<?xml version="1.0" standalone="no"?>
<!DOCTYPE svg PUBLIC "-//W3C//DTD SVG 1.1//EN" "http://www.w3.org/Graphics/SVG/1.1/DTD/svg11.dtd" >
<svg>
<metadata>
Created by FontForge 20090914 at Tue Nov 10 13:13:13 2020
 By www-data
Copyright &#194;&#169; 2020 The Gardens CM Project Authors.
</metadata>
<defs>
<font id="CM_GARDEN_R" horiz-adv-x="816" >
  <font-face 
    font-family="Gardens CM"
    font-weight="400"
    font-stretch="normal"
    units-per-em="1000"
    panose-1="2 11 5 2 4 2 4 2 2 3"
    ascent="750"
    descent="-250"
    x-height="478.999"
    cap-height="730"
    bbox="-24.001 -177.003 972 923.003"
    underline-thickness="50"
    underline-position="-75"
    unicode-range="U+0020-U+2122"
  />
<missing-glyph horiz-adv-x="400" 
 />
    <glyph glyph-name=".notdef" horiz-adv-x="400" 
 />
    <glyph glyph-name="space" unicode=" " horiz-adv-x="400" 
 />
    <glyph glyph-name="exclam" unicode="!" horiz-adv-x="223" 
d="M115 -13l-6 -0.000976562c-16 0 -29.833 5.83301 -41.5 17.5s-17.5 25.834 -17.5 42.501c0 20 5.83301 35.5 17.5 46.5s25.5 16.5 41.5 16.5h6c15.333 0 28.833 -5.5 40.5 -16.5s17.5 -24.833 17.5 -41.5c0 -20 -5.83301 -35.833 -17.5 -47.5s-25.167 -17.5 -40.5 -17.5z
M115 166.999h-6c-8.66699 0 -16 3.16699 -22 9.5s-9 13.833 -9 22.5l2 500c0 8.66699 3 16 9 22s13.667 9 23 9s17 -3 23 -9s9 -13.333 9 -22l2 -500c0 -8.66699 -3 -16.167 -9 -22.5s-13.333 -9.5 -22 -9.5z" />
    <glyph glyph-name="quotedbl" unicode="&#x22;" horiz-adv-x="389" 
d="M83 565h-3c-7.33301 0 -11 3 -11 9c0 4 1.66699 7.66699 5 11c10 6 17.833 12.167 23.5 18.5s8.5 11.833 8.5 16.5c0 4 -3 6 -9 6l-20 -2c-12.667 0 -23.5 5.33301 -32.5 16s-13.5 23.667 -13.5 39c0 20 5.5 35.5 16.5 46.5s24.5 16.5 40.5 16.5h6
c21.333 0 39.333 -10.333 54 -31c7.33301 -10 11 -22 11 -36c0 -15.333 -4.33301 -33.333 -13 -54c-14.667 -29.333 -35.667 -48 -63 -56zM281 565h-3c-6.66699 0 -10 3 -10 9v4c0 2 2 4.33301 6 7c9.33301 6 16.833 12.167 22.5 18.5s8.5 11.833 8.5 16.5c0 4 -3 6 -9 6
l-21 -2c-12.667 0 -23.5 5.33301 -32.5 16s-13.5 23.667 -13.5 39c0 20 5.83301 35.5 17.5 46.5s25.167 16.5 40.5 16.5h6c21.333 0 39.333 -10.333 54 -31c7.33301 -10 11 -21.667 11 -35c0 -16 -4.66699 -34.333 -14 -55c-13.333 -29.333 -34.333 -48 -63 -56z" />
    <glyph glyph-name="numbersign" unicode="#" horiz-adv-x="579" 
d="M376 0c-9.33301 0 -17 3 -23 9s-9 13.333 -9 22v79c0 4.66699 -0.833008 7.66699 -2.5 9s-5.16699 2 -10.5 2h-83c-4.66699 0 -8 -0.666992 -10 -2s-3 -4.33301 -3 -9v-79c0 -8.66699 -3 -16 -9 -22s-13.667 -9 -23 -9s-17 3 -23 9s-9 13.333 -9 22v79
c0 4.66699 -0.833008 7.66699 -2.5 9s-5.16699 2 -10.5 2h-77c-8.66699 0 -16 3 -22 9s-9 14 -9 24c0 9.33301 3 17 9 23s13.333 9 22 9h77c5.33301 0 8.83301 0.666992 10.5 2s2.5 4 2.5 8v87c0 4.66699 -0.833008 7.66699 -2.5 9s-5.16699 2 -10.5 2h-77
c-8.66699 0 -16 3 -22 9s-9 14 -9 24c0 9.33301 3 17 9 23s13.333 9 22 9h77c5.33301 0 8.83301 0.666992 10.5 2s2.5 4 2.5 8v79c0 8.66699 3 16 9 22s13.667 9 23 9s17 -3 23 -9s9 -13.333 9 -22v-79c0 -4 1 -6.66699 3 -8s5.33301 -2 10 -2h83
c5.33301 0 8.83301 0.666992 10.5 2s2.5 4 2.5 8v79c0 8.66699 3 16 9 22s13.667 9 23 9s17 -3 23 -9s9 -13.333 9 -22v-79c0 -4 1 -6.66699 3 -8s5.33301 -2 10 -2h77c8.66699 0 16 -3 22 -9s9 -13.667 9 -23c0 -10 -3 -18 -9 -24s-13.333 -9 -22 -9h-77
c-4.66699 0 -8 -0.666992 -10 -2s-3 -4.33301 -3 -9v-87c0 -4 1 -6.66699 3 -8s5.33301 -2 10 -2h77c8.66699 0 16 -3 22 -9s9 -13.667 9 -23c0 -10 -3 -18 -9 -24s-13.333 -9 -22 -9h-77c-4.66699 0 -8 -0.666992 -10 -2s-3 -4.33301 -3 -9v-79c0 -8.66699 -3 -16 -9 -22
s-13.667 -9 -23 -9zM331 186c5.33301 0 8.83301 0.666992 10.5 2s2.5 4 2.5 8v87c0 4.66699 -0.833008 7.66699 -2.5 9s-5.16699 2 -10.5 2h-83c-4.66699 0 -8 -0.666992 -10 -2s-3 -4.33301 -3 -9v-87c0 -4 1 -6.66699 3 -8s5.33301 -2 10 -2h83z" />
    <glyph glyph-name="dollar" unicode="$" horiz-adv-x="488" 
d="M245 -80c-10 0 -17.9961 3.00293 -23.9961 9.00293s-9 13.333 -9 22v21c0 9.33301 -0.666992 14.666 -2 15.999s-4 2 -8 2c-70.667 10.667 -123.334 44.334 -158.001 101.001c-6 10.667 -9 20 -9 28c0 3.33301 1.66699 8.33301 5 15s10.666 10 21.999 10
c11.333 -0.666992 22.666 -8.33398 33.999 -23.001c25.333 -36.667 60.333 -59.667 105 -69l5 -1c4 0 6 3.33301 6 10v280c0 11.333 -1 18.166 -3 20.499s-4.33301 3.5 -7 3.5c-43.333 6.66699 -79.333 27.167 -108 61.5s-43 76.833 -43 127.5c0 46 13.667 86.167 41 120.5
s63.666 56.166 108.999 65.499h1c6.66699 2 10 5.33301 10 10v30c0 8.66699 3 16 9 22s14 9 24 9c9.33301 0 16.833 -3 22.5 -9s8.5 -13.333 8.5 -22v-21c0 -10 0.833008 -15.833 2.5 -17.5s4.16699 -2.83398 7.5 -3.50098c51.333 -12 90.333 -40.333 117 -85
c4.66699 -8.66699 7 -16.334 7 -23.001c0 -4 -1.83301 -8.83301 -5.5 -14.5s-11.167 -8.5 -22.5 -8.5s-21.333 5 -30 15c-20.667 26 -42.667 43.667 -66 53l-5 2c-3.33301 0 -5 -2.66699 -5 -8v-237c0 -8 3.66699 -12.667 11 -14c26.667 -6 52.667 -17.333 78 -34
c58.667 -40 88 -98 88 -174c0 -55.333 -15 -102.666 -45 -141.999s-70.667 -64.666 -122 -75.999c-6.66699 -1.33301 -10 -5.33301 -10 -12v-29c0 -8.66699 -2.83301 -16 -8.5 -22s-13.167 -9 -22.5 -9zM205.004 426.003c4.66699 0 7.00098 3.66699 7.00098 11v236
c0 4.66699 -1.33301 7 -4 7l-4 -1c-28.667 -7.33301 -51.334 -22.5 -68.001 -45.5s-25 -49.5 -25 -79.5c0 -25.333 6.83301 -50.833 20.5 -76.5s36.5 -42.5 68.5 -50.5zM282.005 55.0029l9 1.00098c32 10.667 57 29.667 75 57s27 59.666 27 96.999
c0 34 -9.66699 64.5 -29 91.5s-45 45.5 -77 55.5l-4 1c-4.66699 0 -7 -2.66699 -7 -8v-285c0 -6.66699 2 -10 6 -10z" />
    <glyph glyph-name="percent" unicode="%" horiz-adv-x="775" 
d="M674 750l-523.001 -800h-65l477 729c-56.667 -14 -125.667 -21 -207 -21l-26 1c20 -28 30 -57.667 30 -89c0 -44.667 -15.5 -84.667 -46.5 -120s-72.167 -53 -123.5 -53c-47.333 0 -87.166 16.5 -119.499 49.5s-48.5 72.833 -48.5 119.5
c0 31.333 7.33301 59.666 22 84.999s35.5 45.833 62.5 61.5s54.833 23.5 83.5 23.5c12 0 32 -2.66699 60 -8c42 -9.33301 87.667 -14 137 -14c36.667 0 71.167 2.33301 103.5 7s74.5 14.334 126.5 29.001h57zM190.999 674c-29.333 0 -54.5 -10.5 -75.5 -31.5
s-31.5 -46.167 -31.5 -75.5c0 -30 10.5 -55.333 31.5 -76s46.167 -31 75.5 -31c30 0 55.5 10.333 76.5 31s31.5 46 31.5 76c0 29.333 -10.5 54.5 -31.5 75.5s-46.5 31.5 -76.5 31.5zM582.999 317c46.667 0 86.5 -16.5 119.5 -49.5s49.5 -72.833 49.5 -119.5
s-16.5 -86.5 -49.5 -119.5s-72.833 -49.5 -119.5 -49.5c-46 0 -85.5 16.5 -118.5 49.5s-49.5 72.833 -49.5 119.5s16.5 86.5 49.5 119.5s72.5 49.5 118.5 49.5zM582.999 255c-29.333 0 -54.333 -10.5 -75 -31.5s-31 -46.167 -31 -75.5s10.333 -54.5 31 -75.5
s45.667 -31.5 75 -31.5c30 0 55.5 10.5 76.5 31.5s31.5 46.167 31.5 75.5s-10.5 54.5 -31.5 75.5s-46.5 31.5 -76.5 31.5z" />
    <glyph glyph-name="ampersand" unicode="&#x26;" horiz-adv-x="628" 
d="M281 -13c-71.333 0 -130.168 20.1689 -176.501 60.502s-69.5 96.166 -69.5 167.499c0 36 6.83301 65.833 20.5 89.5s30.167 43.334 49.5 59.001s38.333 29.167 57 40.5l25 16c3.33301 3.33301 5 7 5 11c0 5.33301 -3 10.666 -9 15.999c-44 38 -66 83.333 -66 136
c0 45.333 16 83.166 48 113.499s73 45.5 123 45.5s92 -14.667 126 -44s51 -67.666 51 -114.999c0 -18 -3 -38.667 -9 -62c-14 -56.667 -60.667 -96.667 -140 -120c-10 -3.33301 -15.333 -7.33301 -16 -12c0 -2 1.33301 -4.33301 4 -7l136 -159c5.33301 -6 10 -9 14 -9
c7.33301 0 11 20 11 60c0 22.667 10.667 34 32 34c4.66699 0 10.667 -1.66699 18 -5s11 -13 11 -29c0 -40 -4.66699 -75.667 -14 -107c-2 -4.66699 -3 -9.33398 -3 -14.001c0 -7.33301 2.66699 -14 8 -20l68 -80c5.33301 -6.66699 8 -14 8 -22
c-0.666992 -8.66699 -4.16699 -16 -10.5 -22s-13.833 -9 -22.5 -9c-1.33301 0 -4.16602 0.166992 -8.49902 0.5s-9.5 3.83301 -15.5 10.5l-50 64c-2.66699 4 -5.66699 6 -9 6s-6.33301 -1.66699 -9 -5c-48.667 -59.333 -111 -89 -187 -89zM267.998 450.002
c12.667 0 28.334 3.33398 47.001 10.001c33.333 12 56.666 26.667 69.999 44s20 43.666 20 78.999c0 31.333 -11.167 55.833 -33.5 73.5s-50.166 26.5 -83.499 26.5c-32.667 0 -59.334 -13 -80.001 -39s-31 -53 -31 -81c0 -30.667 22 -65.667 66 -105l4 -3
c5.33301 -3.33301 12.333 -5 21 -5zM280.998 47.0029c62 0 111.331 26.6689 147.998 80.002c2 3.33301 3 6.66602 3 9.99902c0 4 -2.33301 8.66699 -7 14l-174 217c-4.66699 6.66699 -9.66699 10 -15 10c-2.66699 0 -5.66699 -0.666992 -9 -2
c-23.333 -7.33301 -44.666 -17 -63.999 -29s-35.166 -28.5 -47.499 -49.5s-18.5 -48.5 -18.5 -82.5c0 -54.667 17 -96.334 51 -125.001s78.333 -43 133 -43z" />
    <glyph glyph-name="quotesingle" unicode="'" horiz-adv-x="141" 
d="M16 678v5c0 16 5 29.833 15 41.5s21.667 17.5 35 17.5h5c18 0 33.333 -10.333 46 -31c5.33301 -9.33301 8.33301 -20.333 9 -33v-2l-30 -176h-42z" />
    <glyph glyph-name="parenleft" unicode="(" horiz-adv-x="257" 
d="M175 -14c-8 0 -15.998 3.99805 -23.998 11.998c-28.667 30.667 -52.5 78.834 -71.5 144.501s-28.5 137.167 -28.5 214.5v16c0 76.667 9.5 147.667 28.5 213s42.833 113.666 71.5 144.999c8 8 16 12 24 12c2 0 6.16699 -0.666992 12.5 -2s11.833 -6.66602 16.5 -15.999
c2 -4 3 -8 3 -12c0 -6.66699 -2.66699 -14.334 -8 -23.001c0 -0.666992 -0.333008 -1 -1 -1c-10.667 -16 -22.334 -36.833 -35.001 -62.5s-23.834 -59.5 -33.501 -101.5s-14.5 -95.333 -14.5 -160c0 -65.333 4.83301 -119.166 14.5 -161.499s21 -76.5 34 -102.5
s24.833 -46.667 35.5 -62c5.33301 -8.66699 8 -16.667 8 -24c0 -15.333 -8.66699 -24.666 -26 -27.999z" />
    <glyph glyph-name="parenright" unicode=")" horiz-adv-x="257" 
d="M81 -14c-2 0 -6.16504 0.667969 -12.498 2.00098s-11.833 6.66602 -16.5 15.999c-2 3.33301 -3 7 -3 11c0 7.33301 2.66699 15.333 8 24c10.667 15.333 22.5 36 35.5 62s24.333 60.167 34 102.5s14.5 96.166 14.5 161.499c0 64.667 -4.83301 118 -14.5 160
s-20.834 75.833 -33.501 101.5s-24.334 46.5 -35.001 62.5c-0.666992 0 -1 0.333008 -1 1c-5.33301 8.66699 -8 16.334 -8 23.001c0 16 8.66699 25.667 26 29l6 1c8 0 16 -4 24 -12c28.667 -31.333 52.5 -79.666 71.5 -144.999s28.5 -136.333 28.5 -213v-16
c0 -77.333 -9.5 -148.833 -28.5 -214.5s-42.833 -113.834 -71.5 -144.501c-8 -8 -16 -12 -24 -12z" />
    <glyph glyph-name="asterisk" unicode="*" horiz-adv-x="368" 
d="M184 474c-10.667 0 -18.667 3.33496 -24 10.002s-8 13.667 -8 21c0 4 0.333008 7 1 9c0 10 -1 15 -3 15c-1.33301 0 -3.16602 -1.33301 -5.49902 -4s-4.16602 -5 -5.49902 -7s-3 -3.66699 -5 -5c-6.66699 -6 -13.667 -9 -21 -9s-14.833 3.33301 -22.5 10
s-11.5 14.334 -11.5 23.001c0 8 3 15.333 9 22c1.33301 1.33301 3 2.66602 5 3.99902s4.16699 3.33301 6.5 6s3.5 4.66699 3.5 6c0 2 -2.33301 3 -7 3c-4 0 -7 -0.333008 -9 -1h-6c-8.66699 0 -16 3 -22 9s-9 13.667 -9 23c0 10 3.16699 17.667 9.5 23s13.5 8 21.5 8l16 -1
c4.66699 0 7 1 7 3c0 1.33301 -1.16699 3.16602 -3.5 5.49902s-4.33301 4.16602 -6 5.49902s-3 2.33301 -4 3s-1.83301 1.33398 -2.5 2.00098c-6 7.33301 -9 14.666 -9 21.999s3.33301 14.666 10 21.999s14.334 11 23.001 11c11.333 0 20.666 -5.33301 27.999 -16
c5.33301 -5.33301 8.66602 -8 9.99902 -8c2 0 3 2.33301 3 7c0 4 -0.333008 7 -1 9v6c0 8.66699 3 16 9 22s13.667 9 23 9s17 -3 23 -9s9 -13.333 9 -22l-1 -15c0 -4.66699 1 -7 3 -7c1.33301 0 4.66602 2.66699 9.99902 8c7.33301 10.667 16.666 16 27.999 16
c7.33301 0 14.666 -3.66699 21.999 -11s11 -14.666 11 -21.999c0 -8 -4.66699 -16.667 -14 -26c-7.33301 -4.66699 -11 -8.66699 -11 -12c0 -2 4.66699 -3 14 -3c2.66699 0.666992 5.66699 1 9 1c7.33301 0 14.333 -2.66699 21 -8s10 -13 10 -23c0 -9.33301 -3 -17 -9 -23
s-13.333 -9 -22 -9l-15 1c-5.33301 0 -8 -1 -8 -3c0 -3.33301 3.33301 -7 10 -11c9.33301 -9.33301 14 -18.333 14 -27c0 -8 -3.5 -15.5 -10.5 -22.5s-14.5 -10.5 -22.5 -10.5c-6.66699 0 -13.667 3 -21 9c-2 1.33301 -3.66699 3 -5 5s-3.16602 4.33301 -5.49902 7
s-4.16602 4 -5.49902 4c-2 0 -3 -5 -3 -15c0.666992 -2 1 -5 1 -9c0 -7.33301 -2.66699 -14.333 -8 -21s-13.333 -10 -24 -10z" />
    <glyph glyph-name="plus" unicode="+" horiz-adv-x="628" 
d="M314 102c-9.33301 0 -17 3 -23 9s-9 13.333 -9 22v178c0 15.333 -6 23 -18 23h-183c-8.66699 0 -16 3 -22 9s-9 13.667 -9 23c0 8.66699 3 16 9 22s13.333 9 22 9h178c15.333 0 23 6.33301 23 19v182c0 8.66699 3 16 9 22s13.667 9 23 9s17 -3 23 -9s9 -13.333 9 -22
v-177c0 -16 7 -24 21 -24h180c8.66699 0 16 -3 22 -9s9 -13.333 9 -22c0 -9.33301 -3 -17 -9 -23s-13.333 -9 -22 -9h-178c-15.333 0 -23 -6.66699 -23 -20v-181c0 -8.66699 -3 -16 -9 -22s-13.667 -9 -23 -9z" />
    <glyph glyph-name="comma" unicode="," horiz-adv-x="228" 
d="M102 -71l-4 -0.00390625c-6.66699 0 -10 2.33301 -10 7c0 3.33301 2.33301 7 7 11c9.33301 6.66699 16.833 13.334 22.5 20.001s8.5 12.334 8.5 17.001c0 4 -3 6 -9 6l-23 -2c-11.333 0 -21.5 5 -30.5 15s-13.5 23.333 -13.5 40c0 18.667 5.5 33.834 16.5 45.501
s26.5 17.5 46.5 17.5c21.333 0 39.333 -10.333 54 -31c7.33301 -10 11 -22 11 -36c0 -16 -4.33301 -34.333 -13 -55c-14 -29.333 -35 -47.666 -63 -54.999z" />
    <glyph glyph-name="hyphenminus" unicode="-" horiz-adv-x="379" 
d="M298 207l-217 0.000976562c-8.66699 0 -16 3.16699 -22 9.5s-9 14.166 -9 23.499c0 8.66699 3 16 9 22s13.333 9 22 9h217c8.66699 0 16 -3 22 -9s9 -13.667 9 -23s-3 -17 -9 -23s-13.333 -9 -22 -9z" />
    <glyph glyph-name="period" unicode="." horiz-adv-x="223" 
d="M115 -13l-6 -0.000976562c-16 0 -29.833 5.83301 -41.5 17.5s-17.5 25.834 -17.5 42.501c0 20 5.83301 35.5 17.5 46.5s25.5 16.5 41.5 16.5h6c15.333 0 28.833 -5.5 40.5 -16.5s17.5 -24.833 17.5 -41.5c0 -20 -5.83301 -35.833 -17.5 -47.5s-25.167 -17.5 -40.5 -17.5z
" />
    <glyph glyph-name="slash" unicode="/" horiz-adv-x="551" 
d="M83 0c-6 0 -12 2.00098 -18 6.00098c-10 5.33301 -15 14.333 -15 27c0 4.66699 1.33301 9.66699 4 15l385 668c6.66699 10 15.667 15 27 15c6 0 12 -1.66699 18 -5c10.667 -6.66699 16 -15.334 16 -26.001c0 -6 -1.66699 -11.667 -5 -17l-385 -667
c-6.66699 -10.667 -15.667 -16 -27 -16z" />
    <glyph glyph-name="zero" unicode="0" horiz-adv-x="601" 
d="M50 364c0 94.667 10.167 168.001 30.5 220.001s49 91.333 86 118s78.5 40 124.5 40c46.667 0 88.834 -13.5 126.501 -40.5s67.5 -67.333 89.5 -121s33 -125.834 33 -216.501c0 -90 -10.833 -161.667 -32.5 -215s-51.5 -93.666 -89.5 -120.999s-80.333 -41 -127 -41
c-46 0 -87.333 13.167 -124 39.5s-65.334 65.666 -86.001 117.999s-31 125.5 -31 219.5zM118 363.001c0 -81.333 7.16699 -142.832 21.5 -184.499s35.666 -73.167 63.999 -94.5s58.5 -32 90.5 -32c31.333 0 60.833 10.5 88.5 31.5s48.834 52.5 63.501 94.5
c18 51.333 27 113 27 185s-8 131.167 -24 177.5s-38.167 80.166 -66.5 101.499s-57.833 32 -88.5 32c-32 0 -62 -10.667 -90 -32s-49.333 -52.833 -64 -94.5s-22 -103.167 -22 -184.5z" />
    <glyph glyph-name="one" unicode="1" horiz-adv-x="460" 
d="M419 0l-378 0.000976562c-8.66699 0 -16 3 -22 9s-9 14 -9 24c0 9.33301 3 17 9 23s13.333 9 22 9h147c6.66699 0 10 3 10 9v454c0 6 -3.33301 9 -10 9h-109c-8.66699 0 -16 3 -22 9s-9 14 -9 24c0 9.33301 3 17 9 23s13.333 9 22 9h109c6.66699 0 10 3 10 9v88
c0 8.66699 3 16 9 22s14 9 24 9c9.33301 0 16.833 -3 22.5 -9s8.5 -13.333 8.5 -22v-625c0 -2.66699 1 -4.83398 3 -6.50098s4.33301 -2.5 7 -2.5h147c8.66699 0 16 -3 22 -9s9 -13.667 9 -23c0 -10 -3 -18 -9 -24s-13.333 -9 -22 -9z" />
    <glyph glyph-name="two" unicode="2" horiz-adv-x="525" 
d="M459 0l-378.001 0.00195312c-8.66699 0 -16 3 -22 9s-9 14 -9 24c0 88.667 9 155 27 199s41.833 76.167 71.5 96.5s62.167 37.166 97.5 50.499c41.333 14 83 36 125 66c36.667 28.667 55 67 55 115c0 42 -14.167 73 -42.5 93s-66.833 30 -115.5 30
c-51.333 0 -97 -23.333 -137 -70c-9.33301 -9.33301 -18.666 -14 -27.999 -14c-2 0 -6 0.333008 -12 1s-11 6 -15 16c-1.33301 3.33301 -2 6.66602 -2 9.99902c0 6.66699 2.66699 14 8 22c21.333 28 47.833 50.667 79.5 68s67.167 26 106.5 26c65.333 0 118 -15 158 -45
s60 -75.667 60 -137c0 -35.333 -7.66699 -68.833 -23 -100.5s-35.666 -55.5 -60.999 -71.5c-32 -19.333 -63.333 -36 -94 -50c-54.667 -23.333 -100.667 -52.833 -138 -88.5s-57.333 -94.167 -60 -175.5c1.33301 -6 4.66602 -9 9.99902 -9h339c8.66699 0 16 -3 22 -9
s9 -13.667 9 -23c0 -10 -3 -18 -9 -24s-13.333 -9 -22 -9z" />
    <glyph glyph-name="three" unicode="3" horiz-adv-x="588" 
d="M278 -13c-41.333 0 -82.665 8.66602 -123.998 25.999s-77 43.333 -107 78c-8 10 -12 19.333 -12 28c0 2.66699 0.833008 7.33398 2.5 14.001s8.16699 11 19.5 13h3c10 0 21.333 -5.66699 34 -17l1 -1c9.33301 -10 21.5 -21.333 36.5 -34s34.5 -23.667 58.5 -33
s53.333 -14 88 -14c55.333 0 102.333 18.5 141 55.5s58 83.833 58 140.5c0 57.333 -19.833 103.333 -59.5 138s-86.167 52 -139.5 52c-12.667 0 -27 -1 -43 -3c-34 -4 -53.667 -6 -59 -6c-28.667 0 -43 12.333 -43 37c0 24 34.667 51.667 104 83l46 21
c29.333 12.667 55.666 25 78.999 37c35.333 18 53 34 53 48c0 10.667 -8 16 -24 16h-278c-8.66699 0 -16 3 -22 9s-9 13.667 -9 23s3 17 9 23s13.333 9 22 9h340c8.66699 0 16 -3 22 -9s9 -13.333 9 -22v-8c0 -13.333 -1.83301 -28.5 -5.5 -45.5
s-15.167 -36.167 -34.5 -57.5c-28 -26.667 -74.333 -50.667 -139 -72l-47 -18c-11.333 -5.33301 -17 -10 -17 -14c0 -4.66699 4 -7 12 -7h6c19.333 2.66699 37.666 4 54.999 4c63.333 0 116.333 -21.167 159 -63.5s64 -100.5 64 -174.5s-25.333 -135.167 -76 -183.5
s-111.667 -72.5 -183 -72.5z" />
    <glyph glyph-name="four" unicode="4" horiz-adv-x="594" 
d="M428 0c-9.33301 0 -17.001 3.00098 -23.001 9.00098s-9 13.333 -9 22v139c0 2.66699 -1 4.83398 -3 6.50098s-4.33301 2.5 -7 2.5h-345c-8.66699 0 -16 3 -22 9s-9 14 -9 24c0 6.66699 2.33301 13.667 7 21l384 496c6.66699 8.66699 15.334 13 26.001 13
c10 0 18 -3 24 -9s9 -13.333 9 -22v-458c0 -2.66699 1 -4.83398 3 -6.50098s4.33301 -2.5 7 -2.5h73c8.66699 0 16 -3 22 -9s9 -13.667 9 -23c0 -10 -3 -18 -9 -24s-13.333 -9 -22 -9h-73c-2.66699 0 -5 -0.833008 -7 -2.5s-3 -3.83398 -3 -6.50098v-139
c0 -8.66699 -3 -16 -9 -22s-13.667 -9 -23 -9zM385.999 244.001c2.66699 0 5 0.832031 7 2.49902s3 3.83398 3 6.50098v331c0 11.333 -4 17 -12 17c-4.66699 0 -9.66699 -2.66699 -15 -8l-258 -317c-5.33301 -6 -8 -11.667 -8 -17c0 -2 0.666992 -5 2 -9s6 -6 14 -6h267z
" />
    <glyph glyph-name="five" unicode="5" horiz-adv-x="582" 
d="M278 -13c-41.333 0 -82.667 8.66504 -124 25.998s-77 43.333 -107 78c-8 10.667 -12 20.334 -12 29.001c0 14.667 7.33301 23.334 22 26.001h3c10 0 21.333 -5.66699 34 -17c14.667 -14.667 28 -26.667 40 -36c37.333 -30 85.333 -45 144 -45
c55.333 0 101.5 18.167 138.5 54.5s55.5 83.166 55.5 140.499s-19 102.5 -57 135.5s-83.667 49.5 -137 49.5c-28 0 -55 -2 -81 -6c-33.333 -6 -60.666 -12 -81.999 -18c-10.667 -3.33301 -20.667 -5 -30 -5c-6.66699 0 -13 3 -19 9s-9 12.333 -9 19
c0 4 4.66699 22.667 14 56l50 178l12 46.5c1.33301 5 4 10 8 15s11.333 7.5 22 7.5h290c8.66699 0 16 -3 22 -9s9 -13.667 9 -23s-3 -17 -9 -23s-13.333 -9 -22 -9h-245c-6.66699 0 -12 -1.33301 -16 -4s-7.33301 -8 -10 -16l-33 -106c-10 -32 -15 -50.667 -15 -56
c0 -8.66699 3.66699 -13 11 -13c3.33301 0 7.33301 1 12 3c39.333 12 79.666 18 120.999 18c71.333 0 131.5 -23.167 180.5 -69.5s73.5 -106.166 73.5 -179.499c0 -74 -24.5 -135.167 -73.5 -183.5s-109.167 -72.5 -180.5 -72.5z" />
    <glyph glyph-name="six" unicode="6" horiz-adv-x="594" 
d="M309 -13c-129.333 6 -209.668 72.666 -241.001 199.999c-12 50 -18 103.667 -18 161c0 115.333 24.333 211 73 287c45.333 70.667 115.333 106.334 210 107.001c71.333 -1.33301 125.666 -19 162.999 -53c8.66699 -9.33301 13 -18 13 -26
c0 -2 -0.666992 -6.16699 -2 -12.5s-7.33301 -10.833 -18 -13.5l-8 -1c-8.66699 0 -18.334 3.66699 -29.001 11c-15.333 12.667 -32.166 21.667 -50.499 27s-42.166 8 -71.499 8c-70.667 0 -122.334 -25.167 -155.001 -75.5s-51.667 -111.833 -57 -184.5
c0 -9.33301 3.33301 -14 10 -14c2.66699 0 5.66699 1.33301 9 4c49.333 58 111 87 185 87c68.667 -4 125 -29.5 169 -76.5s66 -104.167 66 -171.5v-3c-3.33301 -76 -27.666 -138.5 -72.999 -187.5s-103.666 -73.5 -174.999 -73.5zM309.998 47.999
c51.333 0 94.666 18.999 129.999 56.999s54.333 86 57 144c0 51.333 -16.5 95 -49.5 131s-75.167 55.333 -126.5 58h-3c-55.333 0 -102.666 -18 -141.999 -54c-36.667 -33.333 -55 -78.666 -55 -135.999c0 -36 10.333 -70.667 31 -104c16.667 -28 38.667 -51 66 -69
s58 -27 92 -27z" />
    <glyph glyph-name="seven" unicode="7" horiz-adv-x="456" 
d="M144 0c-17.333 0 -25.999 10.667 -25.999 32c0 72 9.66699 137 29 195s42.666 110.667 69.999 158s54.333 90.333 81 129c32 44.667 56.333 84.667 73 120c2.66699 7.33301 4 13.333 4 18c0 2 -0.833008 4.83301 -2.5 8.5s-8.16699 5.5 -19.5 5.5h-312
c-8.66699 0 -16 3 -22 9s-9 13.667 -9 23s3 17 9 23s13.333 9 22 9h374c8.66699 0 16 -3 22 -9s9 -13.333 9 -22c0 -29.333 -9.16699 -60.5 -27.5 -93.5s-41 -69.167 -68 -108.5s-54.167 -82.333 -81.5 -129s-50.333 -98 -69 -154s-28 -117.333 -28 -184
c0 -8 -2.33301 -15 -7 -21s-11.667 -9 -21 -9z" />
    <glyph glyph-name="eight" unicode="8" horiz-adv-x="557" 
d="M278 -13c-64 0 -118 20.5 -162 61.5s-66 93.5 -66 157.5c0 38.667 9.5 73 28.5 103s42.5 54.667 70.5 74c8.66699 6 13 11.667 13 17c0 4.66699 -3 9.33398 -9 14.001c-49.333 42.667 -74 89.334 -74 140.001c0 52 19.5 96.333 58.5 133s85.833 55 140.5 55
c55.333 0 102.5 -18.333 141.5 -55s58.5 -81 58.5 -133c0 -50.667 -24.667 -97.334 -74 -140.001c-6 -4.66699 -9 -9.33398 -9 -14.001c0 -5.33301 4.33301 -11 13 -17c28 -19.333 51.5 -44 70.5 -74s28.5 -64.333 28.5 -103c0 -64 -22 -116.5 -66 -157.5
s-98.333 -61.5 -163 -61.5zM278 425c38.667 0 71.5 12.5 98.5 37.5s40.5 55.5 40.5 91.5c0 35.333 -13.5 65.666 -40.5 90.999s-59.833 38 -98.5 38c-38 0 -70.5 -12.667 -97.5 -38s-40.5 -55.666 -40.5 -90.999c0 -36 13.5 -66.5 40.5 -91.5s59.5 -37.5 97.5 -37.5zM278 47
c47.333 0 87.166 14.667 119.499 44s48.5 67.666 48.5 114.999c0 49.333 -16.167 88 -48.5 116s-72.166 42 -119.499 42s-87 -14 -119 -42s-48 -66.667 -48 -116c0 -47.333 16 -85.666 48 -114.999s71.667 -44 119 -44z" />
    <glyph glyph-name="nine" unicode="9" horiz-adv-x="594" 
d="M260 -13c-71.333 1.33301 -125.664 18.999 -162.997 52.999c-8.66699 9.33301 -13 18 -13 26c0 2 0.666992 6.16699 2 12.5s7.33301 10.833 18 13.5l8 1c8.66699 0 18.334 -3.66699 29.001 -11c15.333 -12.667 32.166 -21.667 50.499 -27s42.166 -8 71.499 -8
c70.667 0.666992 122.334 26.167 155.001 76.5s51.667 111.5 57 183.5c0 9.33301 -3.33301 14 -10 14c-3.33301 0 -6.33301 -1.33301 -9 -4c-49.333 -58 -111 -87 -185 -87c-68.667 4 -125 29.667 -169 77s-66 105.333 -66 174c3.33301 76 27.666 138.5 72.999 187.5
s103.666 73.5 174.999 73.5c129.333 -6 209.666 -72.667 240.999 -200c12 -50 18 -103.667 18 -161c0 -115.333 -24 -210.666 -72 -285.999c-46 -71.333 -116.333 -107.333 -211 -108zM275.002 290.999c55.333 0 102.666 18.001 141.999 54.001
c36.667 33.333 55 78.666 55 135.999c0 36 -10.333 71 -31 105c-16.667 27.333 -38.667 50 -66 68s-58 27 -92 27c-51.333 0 -94.666 -19 -129.999 -57s-54.333 -86 -57 -144c0 -51.333 16.5 -95 49.5 -131s75.167 -55.333 126.5 -58h3z" />
    <glyph glyph-name="colon" unicode=":" horiz-adv-x="182" 
d="M115 -13l-6 -0.000976562c-16 0 -29.833 5.83301 -41.5 17.5s-17.5 25.834 -17.5 42.501c0 20 5.83301 35.5 17.5 46.5s25.5 16.5 41.5 16.5h6c15.333 0 28.833 -5.5 40.5 -16.5s17.5 -24.833 17.5 -41.5c0 -20 -5.83301 -35.833 -17.5 -47.5s-25.167 -17.5 -40.5 -17.5z
M115 367.999l-6 -0.000976562c-16 0 -29.833 5.83301 -41.5 17.5s-17.5 25.834 -17.5 42.501c0 20 5.83301 35.5 17.5 46.5s25.5 16.5 41.5 16.5h6c15.333 0 28.833 -5.5 40.5 -16.5s17.5 -24.833 17.5 -41.5c0 -20 -5.83301 -35.833 -17.5 -47.5s-25.167 -17.5 -40.5 -17.5
z" />
    <glyph glyph-name="semicolon" unicode=";" horiz-adv-x="228" 
d="M119 370h-6c-16 0 -29.833 5.5 -41.5 16.5s-17.5 24.833 -17.5 41.5c0 20 5.83301 35.5 17.5 46.5s25.5 16.5 41.5 16.5h6c15.333 0 28.833 -5.5 40.5 -16.5s17.5 -24.833 17.5 -41.5c0 -20 -5.83301 -35.5 -17.5 -46.5s-25.167 -16.5 -40.5 -16.5zM102 -71
l-4 -0.00390625c-6.66699 0 -10 2.33301 -10 7c0 3.33301 2.33301 7 7 11c9.33301 6.66699 16.833 13.334 22.5 20.001s8.5 12.334 8.5 17.001c0 4 -3 6 -9 6l-23 -2c-11.333 0 -21.5 5 -30.5 15s-13.5 23.333 -13.5 40c0 18.667 5.5 33.834 16.5 45.501
s26.5 17.5 46.5 17.5c21.333 0 39.333 -10.333 54 -31c7.33301 -10 11 -22 11 -36c0 -16 -4.33301 -34.333 -13 -55c-14 -29.333 -35 -47.666 -63 -54.999z" />
    <glyph glyph-name="less" unicode="&#x3c;" horiz-adv-x="370" 
d="M286 -13c-8 0 -15.332 3.00195 -21.999 9.00195l-31 32l-72.5 72l-74.5 74.5l-41 41.5c-6.66699 8 -10 16 -10 24c0 9.33301 2.66699 16.666 8 21.999l222 220c6.66699 6 14 9 22 9c7.33301 0 14.5 -3.5 21.5 -10.5s10.5 -14.167 10.5 -21.5c0 -8 -3 -15.333 -9 -22
l-195 -188c-4 -4 -6 -6.66699 -6 -8c0 -0.666992 0.333008 -1.83398 1 -3.50098s2.5 -4 5.5 -7l34 -33l66.5 -64.5l66 -63l28 -28c6 -6.66699 9 -14 9 -22s-3.33301 -15.5 -10 -22.5s-14.334 -10.5 -23.001 -10.5z" />
    <glyph glyph-name="equal" unicode="=" horiz-adv-x="628" 
d="M547 397h-466c-8.66699 0 -16 3 -22 9s-9 14 -9 24c0 9.33301 3 17 9 23s13.333 9 22 9h466c8.66699 0 16 -3 22 -9s9 -13.667 9 -23c0 -10 -3 -18 -9 -24s-13.333 -9 -22 -9zM547 268h-466c-8.66699 0 -16 3 -22 9s-9 14 -9 24c0 9.33301 3 17 9 23s13.333 9 22 9h466
c8.66699 0 16 -3 22 -9s9 -13.667 9 -23c0 -10 -3 -18 -9 -24s-13.333 -9 -22 -9z" />
    <glyph glyph-name="greater" unicode="&#x3e;" horiz-adv-x="370" 
d="M83 -13c-8 0 -15.501 3.33008 -22.501 9.99707s-10.5 14.334 -10.5 23.001c0 8 3 15.333 9 22l29 28l65 63l66.5 64.5l34 33c3 3 4.83301 5.33301 5.5 7s1 2.83398 1 3.50098c0 1.33301 -2 4 -6 8l-195 188c-6 6.66699 -9 14 -9 22c0 7.33301 3.33301 14.5 10 21.5
s14.334 10.5 23.001 10.5c7.33301 0 14.333 -3 21 -9l222 -220c5.33301 -5.33301 8 -12.666 8 -21.999c0 -8 -3.33301 -16 -10 -24l-41 -41.5l-74.5 -74.5l-72.5 -72l-31 -32c-6.66699 -6 -14 -9 -22 -9z" />
    <glyph glyph-name="question" unicode="?" horiz-adv-x="525" 
d="M249 -13c-19.333 0 -34.666 5.83203 -45.999 17.499s-17 25.834 -17 42.501c0 20 5.66699 35.5 17 46.5s25.333 16.5 42 16.5c19.333 0 34.833 -5.5 46.5 -16.5s17.5 -24.833 17.5 -41.5c0 -20 -5.83301 -35.833 -17.5 -47.5s-25.834 -17.5 -42.501 -17.5zM251 166.999
l-7.00098 0.000976562c-8.66699 0 -15.834 3.33301 -21.501 10s-8.5 14 -8.5 22c0 42.667 6 76.5 18 101.5s27 44.667 45 59s36.667 26.833 56 37.5c16.667 9.33301 32 19.333 46 30s25.5 24.167 34.5 40.5s13.5 37.5 13.5 63.5c0 23.333 -5.83301 46.666 -17.5 69.999
s-29.834 42.833 -54.501 58.5s-56 23.5 -94 23.5c-20.667 0 -43.667 -6 -69 -18s-47.166 -30.5 -65.499 -55.5s-27.5 -57.167 -27.5 -96.5c0 -8.66699 -2.83301 -16 -8.5 -22s-13.167 -9 -22.5 -9c-10 0 -18 3.16699 -24 9.5s-9 13.5 -9 21.5c0 50 11.333 92 34 126
s51.334 59.667 86.001 77s70 26 106 26c50 0 92 -10.333 126 -31s59.667 -47 77 -79s26 -65.667 26 -101c0 -32.667 -4.83301 -58.667 -14.5 -78s-22.167 -35.333 -37.5 -48s-31.833 -24 -49.5 -34s-34.667 -21.667 -51 -35s-29.666 -30.5 -39.999 -51.5
s-15.5 -49.5 -15.5 -85.5c0 -8.66699 -3 -16.167 -9 -22.5s-13.333 -9.5 -22 -9.5z" />
    <glyph glyph-name="at" unicode="@" 
d="M464 -13l-50.9961 -0.00390625c-69.333 0 -132.666 17 -189.999 51s-103 79.667 -137 137s-51 120.666 -51 189.999c0 70 17 133.5 51 190.5s79.667 102.333 137 136s120.666 50.5 189.999 50.5c70 0 132.667 -16.833 188 -50.5s99.166 -79 131.499 -136
s48.5 -120.5 48.5 -190.5c0 -74 -20 -143.333 -60 -208c-13.333 -23.333 -32.666 -35 -57.999 -35c-18 0 -32.333 6.33301 -43 19s-16 28 -16 46c0 5.33301 -1.33301 8.33301 -4 9c-2 0 -4 -1 -6 -3c-47.333 -53.333 -107 -80 -179 -80c-70 0 -130 24.333 -180 73
s-75 108 -75 178s24.833 129.833 74.5 179.5s109.167 74.5 178.5 74.5s128.666 -25.333 177.999 -76c11.333 -10 22.666 -24.167 33.999 -42.5s21.166 -41.166 29.499 -68.499s12.5 -60 12.5 -98c0 -15.333 -2 -32.666 -6 -51.999c-4.66699 -24 -7 -50 -7 -78
c0 -12 3.33301 -18 10 -18c7.33301 0 14.833 6.83301 22.5 20.5s14.667 37.334 21 71.001s9.5 63.167 9.5 88.5c0 58 -13.333 111.167 -40 159.5s-62.834 86.833 -108.501 115.5s-97.5 43 -155.5 43c-86.667 0 -160.667 -31.167 -222 -93.5s-92 -137.166 -92 -224.499
c0 -57.333 14.167 -110.166 42.5 -158.499s66.333 -87 114 -116s100.167 -43.5 157.5 -43.5h51c8.66699 0 15.834 -2.83301 21.501 -8.5s8.5 -12.5 8.5 -20.5c0 -8.66699 -2.83301 -16 -8.5 -22s-12.834 -9 -21.501 -9zM415.004 172.996c52 0 96.168 18.833 132.501 56.5
s54.5 82.5 54.5 134.5c0 52.667 -18.333 98 -55 136s-81.334 57 -134.001 57c-52 0 -96.333 -19 -133 -57s-55 -83.333 -55 -136c0 -52 18.667 -96.833 56 -134.5s82 -56.5 134 -56.5z" />
    <glyph glyph-name="A" unicode="A" horiz-adv-x="646" 
d="M601 1c-12.667 0 -22.332 6 -28.999 18l-77 184c-4 8.66699 -12 13 -24 13h-299c-12 0 -20 -5.33301 -24 -16l-76 -181c-6.66699 -12 -16.334 -18 -29.001 -18c-4 0 -8.33301 1 -13 3c-13.333 5.33301 -20 14.666 -20 27.999c0 4 0.666992 8 2 12l280 667
c5.33301 12.667 15.333 19 30 19c13.333 0 23.333 -6.33301 30 -19l280 -667c2 -4 3 -8 3 -12c0 -13.333 -7 -22.666 -21 -27.999c-4.66699 -2 -9 -3 -13 -3zM445.002 281c9.33301 0 14 2.33398 14 7.00098c0 2 -1 5.16699 -3 9.5s-10.333 24.166 -25 59.499l-49 117
l-51 124c-2.66699 8.66699 -5.66699 13 -9 13c-6.66699 0 -48.667 -98 -126 -294l-9 -23.5c-0.666992 -1.66699 -1 -3.16699 -1 -4.5c0 -5.33301 4.33301 -8 13 -8h246z" />
    <glyph glyph-name="B" unicode="B" horiz-adv-x="562" 
d="M279 0l-198 -0.000976562c-8.66699 0 -16 3 -22 9s-9 13.333 -9 22v668c0 8.66699 3 16 9 22s13.333 9 22 9h174c46.667 0 88 -6.16699 124 -18.5s64.333 -32.166 85 -59.499s31 -63 31 -107c0 -56.667 -26.667 -100.667 -80 -132c-6.66699 -4 -10 -7.66699 -10 -11
c0.666992 -2.66699 3.66699 -5.66699 9 -9c32 -20 59.333 -45.5 82 -76.5s34 -66.167 34 -105.5c0 -43.333 -11.667 -80.833 -35 -112.5s-54 -56 -92 -73s-79.333 -25.5 -124 -25.5zM255 437.999c34.667 0 65.167 2.5 91.5 7.5s47 15.167 62 30.5s22.5 38.333 22.5 69
c0 32 -7.33301 56.667 -22 74c-25.333 30.667 -75 46 -149 46h-123c-14.667 0 -22 -6.66699 -22 -20v-185c0 -14 6.66699 -21.333 20 -22h120zM279 64.999c32.667 0 63.167 5.5 91.5 16.5s51.333 27.333 69 49s26.5 48.5 26.5 80.5c0 48 -18.833 87 -56.5 117
s-81.167 45 -130.5 45h-144c-13.333 0 -20 -6 -20 -18v-268c0 -14 8 -21.333 24 -22h140z" />
    <glyph glyph-name="C" unicode="C" horiz-adv-x="692" 
d="M413 -13c-69.333 0 -132.664 17 -189.997 51s-103 79.667 -137 137s-51 120.666 -51 189.999c0 70 17 133.5 51 190.5s79.667 102.333 137 136s120.666 50.5 189.999 50.5c47.333 0 91.666 -8.33301 132.999 -25s77.666 -38.334 108.999 -65.001
c6.66699 -4.66699 10 -11.667 10 -21v-64c0 -6.66699 -1.66699 -10 -5 -10c-2.66699 0 -5.33398 1.66699 -8.00098 5c-27.333 36.667 -61.666 65.834 -102.999 87.501s-86.666 32.5 -135.999 32.5c-86.667 0 -160.667 -31.167 -222 -93.5s-92 -136.833 -92 -223.5
c0 -57.333 14.167 -110.166 42.5 -158.499s66.333 -87 114 -116s100.167 -43.5 157.5 -43.5c49.333 0 94.666 11 135.999 33s75.666 51.333 102.999 88c2.66699 3.33301 5.33398 5 8.00098 5c3.33301 0 5 -3 5 -9v-64c0 -10 -3.33301 -17.333 -10 -22
c-32 -28 -68.5 -50.167 -109.5 -66.5s-85.167 -24.5 -132.5 -24.5z" />
    <glyph glyph-name="D" unicode="D" horiz-adv-x="623" 
d="M220 0l-139 -0.00195312c-8.66699 0 -16 3 -22 9s-9 13.333 -9 22v669c0 8.66699 3 15.834 9 21.501s13.333 8.5 22 8.5h139c70 0 132.667 -14.833 188 -44.5s99.166 -71 131.499 -124s48.5 -114.5 48.5 -184.5c0 -69.333 -16.167 -132.666 -48.5 -189.999
s-76.166 -102.833 -131.499 -136.5s-118 -50.5 -188 -50.5zM220 64.998c86.667 0 159 30.332 217 90.999s87 134.334 87 221.001s-29 156.5 -87 209.5s-130.333 79.5 -217 79.5h-90c-10 0 -15 -4 -15 -12v-574c0 -8.66699 5.33301 -13.667 16 -15h89z" />
    <glyph glyph-name="E" unicode="E" horiz-adv-x="498" 
d="M440 0l-360 0.000976562c-8.66699 0 -15.834 3 -21.501 9s-8.5 13.333 -8.5 22v668c0 8.66699 2.83301 16 8.5 22s12.834 9 21.501 9h341c8.66699 0 16 -3 22 -9s9 -13.667 9 -23s-3 -17 -9 -23s-13.333 -9 -22 -9h-294c-4.66699 0 -8 -0.833008 -10 -2.5
s-3 -4.5 -3 -8.5v-236c0 -4.66699 0.666992 -8 2 -10s4.33301 -3 9 -3h258c8.66699 0 16 -3 22 -9s9 -13.667 9 -23s-3 -17 -9 -23s-13.333 -9 -22 -9h-256c-4.66699 0 -8 -0.666992 -10 -2s-3 -4.33301 -3 -9v-254c0 -4.66699 0.666992 -7.83398 2 -9.50098
s4.33301 -2.5 9 -2.5h315c8.66699 0 16 -3 22 -9s9 -13.667 9 -23c0 -10 -3 -18 -9 -24s-13.333 -9 -22 -9z" />
    <glyph glyph-name="F" unicode="F" horiz-adv-x="462" 
d="M300 343v-1h-173c-4.66699 0 -8 -0.833008 -10 -2.5s-3 -4.5 -3 -8.5v-300c0 -8.66699 -3 -16 -9 -22s-13.333 -9 -22 -9h-2c-8.66699 0 -16 3 -22 9s-9 13.333 -9 22v668c0 8.66699 3 16 9 22s13.333 9 22 9h340c8.66699 0 16 -3 22 -9s9 -13.333 9 -22v-2
c0 -8.66699 -3 -16 -9 -22s-13.333 -9 -22 -9h-294c-4.66699 0 -8 -0.833008 -10 -2.5s-3 -4.5 -3 -8.5v-236c0 -4.66699 1 -8 3 -10l2 -2h179c8.66699 0 16 -3 22 -9s9 -13.333 9 -22v-2c0 -8.66699 -3 -16 -9 -22c-5.33301 -5.33301 -12 -8.33301 -20 -9z" />
    <glyph glyph-name="G" unicode="G" horiz-adv-x="715" 
d="M665 278l0.000976562 -168.999c0 -6 -0.666992 -11 -2 -15s-4.33301 -7.66699 -9 -11c-32 -28.667 -68.333 -51.834 -109 -69.501s-84.667 -26.5 -132 -26.5c-69.333 0 -132.666 17 -189.999 51s-103 79.667 -137 137s-51 120.666 -51 189.999c0 70 17 133.5 51 190.5
s79.667 102.333 137 136s120.666 50.5 189.999 50.5c94 0 174.333 -30 241 -90c3.33301 -3.33301 6 -6.33301 8 -9s3 -6.66699 3 -12v-64c0 -6 -1.5 -9 -4.5 -9s-5.83301 1.66699 -8.5 5c-28 36.667 -62.5 65.667 -103.5 87s-86.167 32 -135.5 32
c-86.667 0 -160.667 -31 -222 -93s-92 -136.667 -92 -224c0 -57.333 14.167 -110.166 42.5 -158.499s66.166 -87 113.499 -116s100 -43.5 158 -43.5c66 0 124.667 19.333 176 58h1c2 1.33301 4.33301 4 7 8s4 11 4 21v144h-46c-8.66699 0 -16 3.16699 -22 9.5
s-9 13.833 -9 22.5v2c0 8 3 15 9 21s13.333 9 22 9h111v-64h-1z" />
    <glyph glyph-name="H" unicode="H" horiz-adv-x="621" 
d="M539 0c-10 0 -18.002 3 -24.002 9s-9 13.333 -9 22v301c0 6.66699 -3 10 -9 10h-373c-6 0 -9 -3.33301 -9 -10v-301c0 -8.66699 -3 -16 -9 -22s-13.667 -9 -23 -9c-10 0 -18 3 -24 9s-9 13.333 -9 22v668c0 8.66699 3 16 9 22s14 9 24 9c9.33301 0 17 -3 23 -9
s9 -13.333 9 -22v-283c0 -2.66699 0.833008 -5 2.5 -7s3.83398 -3 6.50098 -3h373c2.66699 0 4.83398 1 6.50098 3s2.5 4.33301 2.5 7v283c0 8.66699 3 16 9 22s14 9 24 9c9.33301 0 17 -3 23 -9s9 -13.333 9 -22v-668c0 -8.66699 -3 -16 -9 -22s-13.667 -9 -23 -9z" />
    <glyph glyph-name="I" unicode="I" horiz-adv-x="164" 
d="M82 0c-9.33301 0 -17 3 -23 9s-9 13.333 -9 22v668c0 8.66699 3 16 9 22s13.667 9 23 9s17 -3 23 -9s9 -13.333 9 -22v-668c0 -8.66699 -3 -16 -9 -22s-13.667 -9 -23 -9z" />
    <glyph glyph-name="J" unicode="J" horiz-adv-x="485" 
d="M230 -13c-66.667 0 -115.831 20 -147.498 60s-47.5 91.667 -47.5 155c0 19.333 5.66699 32 17 38c5.33301 3.33301 10.666 5 15.999 5c22 0 33 -14.333 33 -43c0 -46.667 9.16699 -84.167 27.5 -112.5s52.166 -42.5 101.499 -42.5c34.667 0 62.167 8.83301 82.5 26.5
s35 41.167 44 70.5s13.5 61.333 13.5 96v413c0 5.33301 -0.666992 8.83301 -2 10.5s-4.33301 2.5 -9 2.5h-250c-8.66699 0 -16 3 -22 9s-9 13.667 -9 23s3 17 9 23s13.333 9 22 9h295c8.66699 0 16 -3 22 -9s9 -13.333 9 -22v-459c0 -46 -7.5 -88.167 -22.5 -126.5
s-37.5 -69 -67.5 -92s-68.333 -34.5 -115 -34.5z" />
    <glyph glyph-name="K" unicode="K" horiz-adv-x="497" 
d="M449 0c-2 0 -5.83203 0.5 -11.499 1.5s-10.834 5.16699 -15.501 12.5l-32 51l-74.5 117l-74.5 118l-38.5 60.5c-3.66699 5.66699 -7.83398 8.5 -12.501 8.5c-4 0 -8 -2.66699 -12 -8l-47 -61c-6 -7.33301 -10.167 -15.333 -12.5 -24s-3.5 -20.334 -3.5 -35.001v-210
c0 -8.66699 -3 -16 -9 -22s-13.667 -9 -23 -9c-10 0 -18 3 -24 9s-9 13.333 -9 22v668c0 8.66699 3 16 9 22s14 9 24 9c9.33301 0 17 -3 23 -9s9 -13.333 9 -22v-284c0 -13.333 2 -20 6 -20c2.66699 0 6.5 3.5 11.5 10.5s46.833 61.167 125.5 162.5l116 150
c6.66699 8 15.334 12 26.001 12c8 0 15.333 -3 22 -9s10 -13.333 10 -22c0 -7.33301 -2.33301 -14 -7 -20l-169 -217c-10 -13.333 -15 -24.333 -15 -33c0 -6.66699 2 -13.167 6 -19.5l41 -64l78.5 -123l77.5 -120.5l33 -53c3.33301 -5.33301 5 -10.666 5 -15.999
c0 -10.667 -5 -19.667 -15 -27c-8 -4 -14 -6 -18 -6z" />
    <glyph glyph-name="L" unicode="L" horiz-adv-x="453" 
d="M412 0l-331 0.000976562c-8.66699 0 -16 3 -22 9s-9 13.333 -9 22v668c0 8.66699 3 16 9 22s14 9 24 9c9.33301 0 17 -3 23 -9s9 -13.333 9 -22v-622c0 -4.66699 0.666992 -7.83398 2 -9.50098s4.33301 -2.5 9 -2.5h286c8.66699 0 16 -3 22 -9s9 -13.667 9 -23
c0 -10 -3 -18 -9 -24s-13.333 -9 -22 -9z" />
    <glyph glyph-name="M" unicode="M" horiz-adv-x="708" 
d="M626 0c-10 0 -17.998 3 -23.998 9s-9 13.333 -9 22v555c0 13.333 -1.66699 20.333 -5 21c-4 0 -8.33301 -3 -13 -9l-119 -148l-79 -96c-7.33301 -6 -15 -9 -23 -9c-8.66699 0 -16.334 3 -23.001 9c-1.33301 2 -9.5 12.167 -24.5 30.5l-55 67.5l-64.5 79.5l-53 64.5
c-5.33301 6 -9.33301 9 -12 9c-4.66699 0 -7 -6.33301 -7 -19v-555c0 -8.66699 -3 -16 -9 -22s-13.667 -9 -23 -9c-10 0 -18 3 -24 9s-9 13.333 -9 22v668c0 8.66699 3 16 9 22s13.333 9 22 9c6.66699 0 11.834 -0.833008 15.501 -2.5s6 -3.16699 7 -4.5s1.66699 -2 2 -2
s11.5 -13.167 33.5 -39.5l76 -91.5l77.5 -94c23 -28 36.833 -44.667 41.5 -50c8.66699 -11.333 15 -17 19 -17c5.33301 0 13.666 7.33301 24.999 22c9.33301 10.667 48.666 58 117.999 142l107 129c8 5.33301 16 8 24 8c8.66699 0 16 -3 22 -9s9 -13.333 9 -22v-668
c0 -8.66699 -3 -16 -9 -22s-13.667 -9 -23 -9z" />
    <glyph glyph-name="N" unicode="N" horiz-adv-x="624" 
d="M539 0c-9.33301 0 -17.667 4.66797 -25 14.001l-374 544c-7.33301 10 -13 15 -17 15c-5.33301 0 -8 -9 -8 -27v-515c0 -8.66699 -3 -16 -9 -22s-13.667 -9 -23 -9c-10 0 -18 3 -24 9s-9 13.333 -9 22v667c0 5.33301 1.83301 11 5.5 17s8.16699 10 13.5 12s10.333 3 15 3
c10 0 18.333 -4.33301 25 -13l55 -80l127 -185.5l129.5 -187.5l67.5 -97.5c6.66699 -9.66699 11.334 -14.5 14.001 -14.5c4.66699 0 7 8.33301 7 25v522c0 8.66699 3 16 9 22s14 9 24 9c9.33301 0 17 -3 23 -9s9 -13.333 9 -22v-667c0 -12.667 -7 -22.334 -21 -29.001
c-4.66699 -2 -9.33398 -3 -14.001 -3z" />
    <glyph glyph-name="O" unicode="O" 
d="M413 -13c-69.333 0 -132.666 17 -189.999 51s-103 79.667 -137 137s-51 120.666 -51 189.999c0 70 17 133.5 51 190.5s79.667 102.333 137 136s120.666 50.5 189.999 50.5c70 0 132.667 -16.833 188 -50.5s99.166 -79 131.499 -136s48.5 -120.5 48.5 -190.5
c0 -69.333 -16.167 -132.666 -48.5 -189.999s-76.166 -103 -131.499 -137s-118 -51 -188 -51zM413 47c58 0 109.833 14.499 155.5 43.499s81.834 67.667 108.501 116s40 101.166 40 158.499c0 58 -13.333 111.167 -40 159.5s-62.834 86.833 -108.501 115.5
s-97.5 43 -155.5 43c-86.667 0 -160.667 -31.167 -222 -93.5s-92 -137.166 -92 -224.499c0 -57.333 14.167 -110.166 42.5 -158.499s66.333 -87 114 -116s100.167 -43.5 157.5 -43.5z" />
    <glyph glyph-name="P" unicode="P" horiz-adv-x="543" 
d="M83 0c-10 0 -18 3 -24 9s-9 13.333 -9 22v668c0 8.66699 3 16 9 22s13.333 9 22 9h183c46.667 0 89 -9 127 -27s68.333 -43.5 91 -76.5s34 -72.833 34 -119.5c0 -69.333 -24.667 -125 -74 -167s-108.666 -63 -177.999 -63h-137
c-4.66699 0 -7.83398 -0.666992 -9.50098 -2s-2.5 -4.33301 -2.5 -9v-235c0 -8.66699 -3 -16 -9 -22s-13.667 -9 -23 -9zM264 342c52 0 96.333 14.501 133 43.501s55 69.5 55 121.5s-18.333 91.5 -55 118.5s-81 40.5 -133 40.5h-137c-8 0 -12 -3 -12 -9
c0 -206.667 0.666992 -310.834 2 -312.501s4.33301 -2.5 9 -2.5h138z" />
    <glyph glyph-name="Q" unicode="Q" 
d="M589 -87c-46 0 -87.998 11.6719 -125.998 35.0049c-37.333 28 -77.333 42 -120 42l-18 -1c-34.667 -5.33301 -65.334 -18 -92.001 -38c-11.333 -6.66699 -21 -10 -29 -10c-16.667 0 -26.667 8 -30 24l-1 5c0 8 4 15.667 12 23c11.333 9.33301 24.333 18 39 26
c6.66699 4 10 7 10 9s-3.66699 5.33301 -11 10c-57.333 33.333 -103 78.666 -137 135.999s-51 120.666 -51 189.999c0 70 17 133.5 51 190.5s79.667 102.5 137 136.5s120.666 51 189.999 51s131.833 -17 187.5 -51s99.667 -79.5 132 -136.5s48.5 -120.5 48.5 -190.5
c0 -84.667 -23.833 -159.834 -71.5 -225.501s-110.5 -110.834 -188.5 -135.501c-6 -2 -9 -4 -9 -6c0 -2.66699 3 -5.33398 9 -8.00098c23.333 -10 48 -15 74 -15l17 1c35.333 5.33301 66.333 18 93 38c12 8 22.667 12 32 12c18.667 0 28 -9.66699 28 -29
c0 -8.66699 -4.33301 -17 -13 -25c-48 -38.667 -102.333 -58 -163 -58zM413.002 47.0049c58 0 109.834 14.332 155.501 42.999s81.834 67.167 108.501 115.5s40 101.166 40 158.499c0 58 -13.333 111.167 -40 159.5s-62.834 86.833 -108.501 115.5s-97.5 43 -155.5 43
c-86.667 0 -160.667 -31.167 -222 -93.5s-92 -137.166 -92 -224.499c0 -57.333 14.167 -110.166 42.5 -158.499s66.166 -86.833 113.499 -115.5s100 -43 158 -43z" />
    <glyph glyph-name="R" unicode="R" horiz-adv-x="579" 
d="M500 -6c-8.66699 0 -17.665 2.66211 -26.998 7.99512c-25.333 12.667 -38 35.334 -38 68.001c0 20.667 1.5 42.834 4.5 66.501s4.5 46.5 4.5 68.5c0 40.667 -12.333 69.834 -37 87.501s-66 26.5 -124 26.5c-108.667 0 -163.834 -0.666992 -165.501 -2
s-2.5 -4.33301 -2.5 -9v-286c0 -4.66699 -3 -9.5 -9 -14.5s-13.667 -7.5 -23 -7.5c-10 0 -18 2.66699 -24 8s-9 10 -9 14v668c0 26 10.333 39.333 31 40h173c45.333 0 87.166 -8 125.499 -24s69.166 -39.167 92.499 -69.5s35 -67.5 35 -111.5c0 -64 -28 -115 -84 -153
c-5.33301 -4 -8 -7.33301 -8 -10c0 -3.33301 3.33301 -7 10 -11c27.333 -15.333 48.333 -34.666 63 -57.999s22 -52.666 22 -87.999c0 -21.333 -3.66699 -46 -11 -74c-5.33301 -28 -8 -47 -8 -57s3 -15 9 -15c18.667 0 31.334 -5.33301 38.001 -16
c3.33301 -5.33301 5 -11 5 -17c0 -5.33301 -2 -12 -6 -20s-16.333 -12 -37 -12zM254.002 383.995c34 0 65.334 5.16797 94.001 15.501s51.667 26 69 47s26 47.167 26 78.5c0 32 -8.83301 58.5 -26.5 79.5s-40.834 36.5 -69.501 46.5s-59.667 15 -93 15h-127
c-8 0 -12 -3 -12 -9v-261c0 -4.66699 0.666992 -7.83398 2 -9.50098s4.33301 -2.5 9 -2.5h128z" />
    <glyph glyph-name="S" unicode="S" horiz-adv-x="488" 
d="M237 -13c-84.667 0 -149.334 34.333 -194.001 103c-5.33301 9.33301 -8 18 -8 26c0 5.33301 2.5 12.166 7.5 20.499s14.167 12.5 27.5 12.5c12 0 23.667 -7 35 -21c15.333 -23.333 33.333 -42.666 54 -57.999s46.667 -23 78 -23c47.333 0 85 15.167 113 45.5
s42 69.166 42 116.499c0 43.333 -14.167 79.666 -42.5 108.999s-64.5 44 -108.5 44h-11c-48.667 0 -90.667 17.333 -126 52s-53 81 -53 139c0 52 17.333 96.5 52 133.5s79.334 55.5 134.001 55.5c73.333 0 128.666 -30 165.999 -90c3.33301 -7.33301 5 -13.666 5 -18.999
s-2.5 -11.666 -7.5 -18.999s-14.5 -11 -28.5 -11c-8.66699 0 -16.667 4 -24 12c-16.667 20.667 -33.167 37 -49.5 49s-36.833 18 -61.5 18c-38 0 -68.5 -12.667 -91.5 -38s-34.5 -55.666 -34.5 -90.999c0 -20 4 -40.333 12 -61s20.833 -37.334 38.5 -50.001
s40.834 -19 69.501 -19h11c28 0 58 -7.16699 90 -21.5s60.167 -37.5 84.5 -69.5s36.5 -73 36.5 -123c0 -64 -20 -117 -60 -159s-92 -63 -156 -63z" />
    <glyph glyph-name="T" unicode="T" horiz-adv-x="474" 
d="M237 0c-9.33301 0 -17 3 -23 9s-9 13.333 -9 22v622c0 5.33301 -0.666992 8.83301 -2 10.5s-4.33301 2.5 -9 2.5h-153c-8.66699 0 -16 3 -22 9s-9 13.667 -9 23s3 17 9 23s13.333 9 22 9h392c8.66699 0 16 -3 22 -9s9 -13.667 9 -23s-3 -17 -9 -23s-13.333 -9 -22 -9
h-151c-4.66699 0 -8 -0.833008 -10 -2.5s-3 -4.5 -3 -8.5v-624c0 -8.66699 -3 -16 -9 -22s-13.667 -9 -23 -9z" />
    <glyph glyph-name="U" unicode="U" horiz-adv-x="656" 
d="M333 -13c-188.667 0 -282.996 116.667 -282.996 350v362c0 8.66699 3 16 9 22s14 9 24 9c9.33301 0 16.833 -3 22.5 -9s8.5 -13.333 8.5 -22v-362c0 -58 7 -108.667 21 -152s37.167 -77.166 69.5 -101.499s75.166 -36.5 128.499 -36.5s95.166 12.167 125.499 36.5
s51.666 58.166 63.999 101.499s18.5 94 18.5 152v362c0 8.66699 3 16 9 22s14 9 24 9c9.33301 0 17 -3 23 -9s9 -13.333 9 -22v-362c0 -69.333 -8.33301 -130.333 -25 -183s-44.834 -93.667 -84.501 -123s-94.167 -44 -163.5 -44z" />
    <glyph glyph-name="V" unicode="V" horiz-adv-x="592" 
d="M296 0c-12.667 0 -23 6.66699 -31 20l-248 667c-1.33301 3.33301 -2 7 -2 11c0 14 7 24 21 30c4 1.33301 8 2 12 2c14 0 23.667 -6.66699 29 -20l121 -325l38 -108l45 -126c7.33301 -21.333 12.666 -32 15.999 -32h2c2 0.666992 7.33301 12.667 16 36l79 230l121 325
c5.33301 13.333 15 20 29 20c4 0 8 -0.666992 12 -2c14 -6 21 -16 21 -30c0 -4 -0.666992 -7.66699 -2 -11l-248 -667c-7.33301 -13.333 -17.666 -20 -30.999 -20z" />
    <glyph glyph-name="W" unicode="W" horiz-adv-x="906" 
d="M609 0c-12.667 0 -22.999 6.66699 -30.999 20l-116 319l-1 2c-2.66699 9.33301 -5.33398 14 -8.00098 14c-2 0 -5.33301 -6 -10 -18l-116 -317c-2 -6.66699 -5.83301 -11.667 -11.5 -15s-11.834 -5 -18.501 -5c-14 0 -24.333 6.66699 -31 20l-249 667
c-1.33301 3.33301 -2 7 -2 11c0 14 6.66699 23.667 20 29c4.66699 2 9.33398 3 14.001 3c14 0 23.667 -6.66699 29 -20l121 -325l38 -108l45 -126c7.33301 -21.333 12.666 -32 15.999 -32h2c2 0.666992 7 12.667 15 36l16 46c50.667 142 77.5 217.5 80.5 226.5
s4.5 16.167 4.5 21.5c0 6 -2.33301 14.667 -7 26c-5.33301 16 -19.333 54 -42 114l-37 98c-1.33301 3.33301 -2 7 -2 11c0 14 6.66699 23.667 20 29c4.66699 2 9 3 13 3c14 0 23.667 -6.66699 29 -20l37 -107c12.667 -40 21.667 -60 27 -60c4 0 7.66699 6.66699 11 20l30 85
l20 62c5.33301 13.333 15 20 29 20c4.66699 0 9.33398 -1 14.001 -3c13.333 -5.33301 20 -15 20 -29c0 -4 -0.666992 -7.66699 -2 -11l-78 -208c-6 -14 -9 -23.667 -9 -29c0 -6 2.33301 -14 7 -24l38 -105c25.333 -73.333 45.666 -130 60.999 -170l3 -8
c4.66699 -16 8.66699 -24 12 -24c4 0 10 12 18 36l79 230l121 325c5.33301 13.333 15 20 29 20c4 0 8 -0.666992 12 -2c14.667 -6.66699 22 -16.667 22 -30c0 -4 -0.666992 -7.66699 -2 -11l-249 -667c-7.33301 -13.333 -17.666 -20 -30.999 -20z" />
    <glyph glyph-name="X" unicode="X" horiz-adv-x="563" 
d="M519 1c-1.33301 0 -4.66992 0.334961 -10.0029 1.00195s-10.333 4.66699 -15 12l-197 290c-7.33301 12 -12.666 18 -15.999 18s-8.66602 -5.66699 -15.999 -17l-3 -4l-193 -287c-6.66699 -8.66699 -15 -13 -25 -13c-4.66699 0 -11.334 2 -20.001 6
c-8.66699 6.66699 -13 15 -13 25c0 6 1.66699 12 5 18l172 247l43 61.5c7.33301 11 11 17.833 11 20.5c0 3.33301 -1.5 7.66602 -4.5 12.999s-19.5 29.333 -49.5 72l-65 91l-89 125c-3.33301 6 -5 12 -5 18c0 1.33301 0.333008 4.66602 1 9.99902s4.66699 10.333 12 15
c4.66699 4.66699 11.334 7 20.001 7c1.33301 0 4.5 -0.333008 9.5 -1s10.167 -4.66699 15.5 -12l82 -119l96 -143c6.66699 -12 12 -18 16 -18s9 6 15 18l5 7c12.667 17.333 43.334 62 92.001 134l82 121c6.66699 8.66699 15 13 25 13c8.66699 0 15.334 -2.33301 20.001 -7
c8.66699 -6 13 -14.333 13 -25c0 -6 -1.66699 -12 -5 -18l-190 -267c-11.333 -16 -17 -26.333 -17 -31c0 -6 3.66699 -13.667 11 -23l45 -64l71 -102l99 -143c3.33301 -6 5 -12 5 -18c0 -1.33301 -0.333008 -4.5 -1 -9.5s-4.66699 -10.167 -12 -15.5
c-8.66699 -4 -15.334 -6 -20.001 -6z" />
    <glyph glyph-name="Y" unicode="Y" horiz-adv-x="526" 
d="M263 0c-9.33301 0 -17.001 3.00195 -23.001 9.00195s-9 13.333 -9 22v305c0 23.333 -6 42.666 -18 57.999l-197 285c-3.33301 6 -5 12 -5 18c0 1.33301 0.166992 4.66602 0.5 9.99902s4.33301 10.333 12 15s14.5 7 20.5 7c1.33301 0 4.5 -0.333008 9.5 -1
s10.167 -4.66699 15.5 -12l176 -260c9.33301 -13.333 15.333 -20 18 -20c3.33301 0 7.33301 4 12 12l182 268c6.66699 8.66699 15 13 25 13c8.66699 0 15.334 -2.33301 20.001 -7c8.66699 -6 13 -14.333 13 -25c0 -6 -1.66699 -12 -5 -18l-196 -283
c-12.667 -18.667 -19 -39 -19 -61v-304c0 -8.66699 -3 -16 -9 -22s-13.667 -9 -23 -9z" />
    <glyph glyph-name="Z" unicode="Z" horiz-adv-x="581" 
d="M524 0h-459.001c-8.66699 0 -17 2.66699 -25 8s-12 13.333 -12 24c0 6 1.66699 12 5 18l341 493c45.333 65.333 68 98.666 68 99.999c6.66699 8.66699 10 14.667 10 18s-6.66699 5 -20 5h-357c-8.66699 0 -16 3 -22 9s-9 13.667 -9 23s3 17 9 23s13.333 9 22 9h442
c7.33301 0 15 -2.66699 23 -8s12 -13.333 12 -24c0 -6 -1.66699 -12 -5 -18l-62 -89l-142 -206l-142 -205l-67.5 -97c-3.66699 -5.33301 -5.5 -9.66602 -5.5 -12.999l1 -2c0.666992 -2 6.33398 -3 17.001 -3h378c8.66699 0 15.834 -3 21.501 -9s8.5 -13.667 8.5 -23
c0 -10 -2.83301 -18 -8.5 -24s-12.834 -9 -21.501 -9z" />
    <glyph glyph-name="bracketleft" unicode="[" horiz-adv-x="285" 
d="M219 1l-138 -0.000976562c-8.66699 0 -16 2.83301 -22 8.5s-9 12.834 -9 21.501v668c0 8.66699 3 16 9 22s13.333 9 22 9h138c8.66699 0 16 -3 22 -9s9 -13.667 9 -23s-3 -17 -9 -23s-13.333 -9 -22 -9h-87c-6.66699 0 -11.334 -1.5 -14.001 -4.5s-4 -8.16699 -4 -15.5
v-561c0 -8 1.33301 -13.333 4 -16s7.33398 -4 14.001 -4h87c8.66699 0 16 -3 22 -9s9 -13.667 9 -23c0 -10 -3 -17.833 -9 -23.5s-13.333 -8.5 -22 -8.5z" />
    <glyph glyph-name="backslash" unicode="\" horiz-adv-x="551" 
d="M466 0c-11.333 0 -20.333 5.33301 -27 16l-385 667c-2.66699 5.33301 -4 10.333 -4 15c0 12 5.33301 21.667 16 29c6 2.66699 11.667 4 17 4c11.333 0 20.333 -5 27 -15l385 -668c2.66699 -5.33301 4 -10.333 4 -15c0 -12.667 -5 -21.667 -15 -27c-6 -4 -12 -6 -18 -6z
" />
    <glyph glyph-name="bracketright" unicode="]" horiz-adv-x="285" 
d="M204 1l-138 0.000976562c-8.66699 0 -16 2.83301 -22 8.5s-9 13.5 -9 23.5c0 9.33301 3 17 9 23s13.333 9 22 9h87c7.33301 0 12.166 1.33301 14.499 4s3.5 8 3.5 16v561c0 7.33301 -1.16699 12.5 -3.5 15.5s-7.16602 4.5 -14.499 4.5h-87c-8.66699 0 -16 3 -22 9
s-9 13.667 -9 23s3 17 9 23s13.333 9 22 9h138c8.66699 0 16 -3 22 -9s9 -13.333 9 -22v-668c0 -8.66699 -3 -15.834 -9 -21.501s-13.333 -8.5 -22 -8.5z" />
    <glyph glyph-name="asciicircum" unicode="^" horiz-adv-x="672" 
d="M302 720h37l161 -326h-42l-138 281l-138 -281h-40z" />
    <glyph glyph-name="underscore" unicode="_" horiz-adv-x="689" 
d="M608 0l-527 0.000976562c-8.66699 0 -16 3.16699 -22 9.5s-9 14.166 -9 23.499c0 8.66699 3 16 9 22s13.333 9 22 9h527c8.66699 0 16 -3 22 -9s9 -13.667 9 -23s-3 -17 -9 -23s-13.333 -9 -22 -9z" />
    <glyph glyph-name="grave" unicode="`" horiz-adv-x="378" 
d="M155 780l106 -150h-67l-144 150h105z" />
    <glyph glyph-name="a" unicode="a" horiz-adv-x="589" 
d="M287 -13c-70 0 -130 24.333 -180 73s-75 108 -75 178s24.667 129.667 74 179s109 74 179 74c34.667 0 67.834 -6.66699 99.501 -20s57.5 -32.333 77.5 -57c2 -2.66699 4.33301 -4 7 -4c1.33301 0 2.66602 0.5 3.99902 1.5s2 5.5 2 13.5v23c0 8.66699 3 16 9 22
s13.667 9 23 9s17 -3 23 -9s9 -13.333 9 -22v-418c0 -8.66699 -3 -16 -9 -22s-13.667 -9 -23 -9s-17 3 -23 9s-9 13.333 -9 22v30c0 6 -1.66699 9 -5 9c-2 0 -3.33301 -0.666992 -4 -2c-48 -53.333 -107.667 -80 -179 -80zM287 47c52 0 96.168 18.833 132.501 56.5
s54.5 82.5 54.5 134.5s-18.5 97.167 -55.5 135.5s-81.5 57.5 -133.5 57.5c-52.667 0 -97.334 -19.167 -134.001 -57.5s-55 -83.5 -55 -135.5s18.667 -96.833 56 -134.5s82.333 -56.5 135 -56.5z" />
    <glyph glyph-name="b" unicode="b" horiz-adv-x="582" 
d="M298 -13c-66.667 0 -125.332 28.333 -175.999 85c-0.666992 1.33301 -1.66699 2 -3 2h-2c-1.33301 0 -2 -2 -2 -6v-38c0 -8.66699 -3 -15.834 -9 -21.501s-13.333 -8.5 -22 -8.5c-10.667 0 -19 2.83301 -25 8.5s-9 12.834 -9 21.501v670c0 8 3 15 9 21s13 9 21 9
c11.333 0 20 -3 26 -9s9 -13 9 -21v-287c0 -4 2 -6 6 -6c2 0 3.66699 1 5 3c45.333 54 102.666 81 171.999 81s128.666 -24.333 177.999 -73s74 -108 74 -178s-24.667 -129.667 -74 -179s-108.666 -74 -177.999 -74zM298.002 47c52 0 96.333 19.167 133 57.5
s55 83.5 55 135.5s-18.333 96.833 -55 134.5s-81 56.5 -133 56.5s-96.333 -18.833 -133 -56.5s-55 -82.5 -55 -134.5s18.333 -97.167 55 -135.5s81 -57.5 133 -57.5z" />
    <glyph glyph-name="c" unicode="c" horiz-adv-x="482" 
d="M287 -13c-70 0 -129.499 24.833 -178.499 74.5s-73.5 109.167 -73.5 178.5s24.5 128.5 73.5 177.5s108.5 73.5 178.5 73.5c60 0 113.333 -18.667 160 -56c5.33301 -3.33301 8 -10 8 -20v-55c0 -9.33301 -2 -14 -6 -14c-3.33301 0 -8.66602 4 -15.999 12
c-18 22 -39.5 39.667 -64.5 53s-52.167 20 -81.5 20c-52 0 -96.333 -18.833 -133 -56.5s-55 -82.5 -55 -134.5s18.333 -97.167 55 -135.5s81 -57.5 133 -57.5c31.333 0 60.166 7.66699 86.499 23s48.166 35.333 65.499 60c4 5.33301 7.66699 8 11 8
c0.666992 0 1.66699 -0.333008 3 -1s2 -4 2 -10v-62c0 -10 -3 -17 -9 -21c-46 -38 -99 -57 -159 -57z" />
    <glyph glyph-name="d" unicode="d" horiz-adv-x="582" 
d="M284 -13c-68.667 0 -127.833 24.667 -177.5 74s-74.5 109 -74.5 179s24.833 129.333 74.5 178s108.834 73 177.501 73c69.333 0 126.666 -27 171.999 -81c1.33301 -2 3 -3 5 -3h4c1.33301 0 2 2 2 6v287c0 8 3 15 9 21s13.333 9 22 9c10.667 0 19 -3 25 -9s9 -13 9 -21
v-670c0 -8.66699 -3 -15.834 -9 -21.501s-13 -8.5 -21 -8.5c-11.333 0 -20 2.83301 -26 8.5s-9 12.834 -9 21.501v38c0 4 -0.5 6 -1.5 6h-2.5c-0.666992 0 -1.66699 -0.666992 -3 -2c-50 -56.667 -108.667 -85 -176 -85zM284.001 47c52 0 96.333 19.167 133 57.5
s55 83.5 55 135.5s-18.333 96.833 -55 134.5s-81 56.5 -133 56.5s-96.333 -18.833 -133 -56.5s-55 -82.5 -55 -134.5s18.333 -97.167 55 -135.5s81 -57.5 133 -57.5z" />
    <glyph glyph-name="e" unicode="e" horiz-adv-x="557" 
d="M285 -13c-70 0 -129.667 24.667 -179 74s-74 109 -74 179s24.667 129.333 74 178s109 73 179 73s129.667 -24.333 179 -73c35.333 -35.333 56.333 -78 63 -128l1 -7c0 -6 -1.66699 -13 -5 -21s-12 -12 -26 -12h-383c-6.66699 0 -11 -1.16699 -13 -3.5
s-3 -5.83301 -3 -10.5v-5c4 -50 22.333 -91 55 -123c40.667 -40.667 84.667 -61 132 -61c25.333 0 49.833 5.5 73.5 16.5s41.5 23.833 53.5 38.5c16 20 29.333 30 40 30c6 0 12.667 -2 20 -6c9.33301 -7.33301 14 -16 14 -26c0 -8.66699 -3.33301 -17 -10 -25
c-50 -58.667 -113.667 -88 -191 -88zM439 314c10 0 15 2 15 6c0 3.33301 -2 7.33301 -6 12v1c-6.66699 13.333 -17 26.333 -31 39c-36.667 39.333 -80.667 59 -132 59c-52 0 -96.333 -19.667 -133 -59c-15.333 -16 -27 -30.667 -35 -44c-2 -4 -3 -7 -3 -9
c0 -1.33301 0.833008 -2.5 2.5 -3.5s109.167 -1.5 322.5 -1.5z" />
    <glyph glyph-name="f" unicode="f" horiz-adv-x="236" 
d="M117 0c-10 0 -17.999 3.00098 -23.999 9.00098s-9 13.333 -9 22v372c0 8 -3.33301 12 -10 12c-10.667 0 -19 3 -25 9s-9 13.667 -9 23s3 17 9 23s13.667 9 23 9h5c4.66699 0 7 3.33301 7 10v117c0 8 2 19.667 6 35s10.667 30.333 20 45
c27.333 37.333 64.666 56 111.999 56c12 0 23.667 -1.5 35 -4.5s22.166 -6.5 32.499 -10.5s17.833 -10.667 22.5 -20c2.66699 -4.66699 4 -9.33398 4 -14.001s-1 -9 -3 -13c-5.33301 -12 -14.666 -18 -27.999 -18c-6 0 -12 1.66699 -18 5c-18 10 -32 15 -42 15
c-24 0 -43.333 -8.33301 -58 -25c-6 -6.66699 -10.5 -15.167 -13.5 -25.5s-4.5 -18.833 -4.5 -25.5v-118c0 -6 3.33301 -9 10 -9h48c8.66699 0 16 -3 22 -9s9 -13.667 9 -23s-3 -17 -9 -23s-13.333 -9 -22 -9h-49c-6 0 -9 -3.66699 -9 -11v-373c0 -8.66699 -3 -16 -9 -22
s-13.667 -9 -23 -9z" />
    <glyph glyph-name="g" unicode="g" horiz-adv-x="592" 
d="M328 -176h-7c-22 0 -34.667 9.66699 -38 29v3c0 14 4.16699 23.833 12.5 29.5s17.166 8.5 26.499 8.5c38 2.66699 71.833 18.667 101.5 48s47.834 55.666 54.501 78.999c2 8 3 16.333 3 25c-1.33301 18 -3.33301 27 -6 27h-1c-24 -28.667 -53 -50.167 -87 -64.5
s-68 -21.5 -102 -21.5c-75.333 0 -136.333 22.5 -183 67.5s-70 106.167 -70 183.5c0 75.333 24.833 136.333 74.5 183s109.167 70 178.5 70c34 0 67 -6.66699 99 -20s60.667 -33.333 86 -60l3 -1h3c1.33301 0 2 3.33301 2 10v23c0 12 3 21 9 27s14 9 24 9
c8.66699 0 16 -3 22 -9s9 -13.333 9 -22v-379c0 -68 -24.333 -126.333 -73 -175c-40 -39.333 -87 -62.666 -141 -69.999zM285 47c52.667 0 98 18.833 136 56.5s57 82.5 57 134.5c0 52.667 -19 98 -57 136s-83.333 57 -136 57c-52 0 -96.333 -19.667 -133 -59
s-55 -84 -55 -134c0 -56.667 17.333 -102.667 52 -138s80 -53 136 -53z" />
    <glyph glyph-name="h" unicode="h" horiz-adv-x="474" 
d="M402 0c-10 0 -18.001 3.00293 -24.001 9.00293s-9 13.333 -9 22l-1 272c0 11.333 -3.83301 27.166 -11.5 47.499s-21.167 38.833 -40.5 55.5s-46.333 25 -81 25c-10 0 -24.667 -3.66699 -44 -11s-36.833 -19.333 -52.5 -36s-23.5 -39 -23.5 -67v-286
c0 -8.66699 -2.83301 -16 -8.5 -22s-12.834 -9 -21.501 -9c-11.333 0 -20 3 -26 9s-9 13.333 -9 22v668c0 8.66699 3 16 9 22s13.333 9 22 9c11.333 0 19.833 -3 25.5 -9s8.5 -13.333 8.5 -22v-258c0 -6.66699 1.33301 -10 4 -10c2 0 4.33301 2 7 6
c10.667 15.333 25.334 28.166 44.001 38.499s40.334 15.5 65.001 15.5c47.333 0 85.5 -10.333 114.5 -31s50.333 -45.334 64 -74.001s20.5 -55 20.5 -79v-276c0 -8.66699 -3 -16 -9 -22s-13.667 -9 -23 -9z" />
    <glyph glyph-name="i" unicode="i" horiz-adv-x="164" 
d="M82 0c-9.33301 0 -17 3 -23 9s-9 13.333 -9 22v418c0 8.66699 3 16 9 22s13.667 9 23 9s17 -3 23 -9s9 -13.333 9 -22v-418c0 -8.66699 -3 -16 -9 -22s-13.667 -9 -23 -9z" />
    <glyph glyph-name="j" unicode="j" horiz-adv-x="174" 
d="M13 -112l-4.00098 0.000976562c-13.333 0 -23 5.33301 -29 16c-2.66699 6.66699 -4 12.667 -4 18c0 6 2 12.167 6 18.5s9.33301 10.166 16 11.499c11.333 2.66699 20.666 7 27.999 13c14.667 14 23.834 28.833 27.501 44.5s5.5 29.834 5.5 42.501v396
c0 8.66699 3 16 9 22s13.667 9 23 9s17 -3 23 -9s9 -13.333 9 -22v-379c0 -32 -4.16699 -61.333 -12.5 -88s-26.5 -52 -54.5 -76c-13.333 -10.667 -27.666 -16.334 -42.999 -17.001z" />
    <glyph glyph-name="k" unicode="k" horiz-adv-x="417" 
d="M83 0c-10 0 -17.998 3.00293 -23.998 9.00293s-9 13.333 -9 22v668c0 8.66699 3 16 9 22s14 9 24 9c9.33301 0 17 -3 23 -9s9 -13.333 9 -22v-407c0 -10.667 2.33301 -16 7 -16c2.66699 0 6.16699 1.83301 10.5 5.5s16.166 14.667 35.499 33l65 61l63 59.5l27 25
c6 5.33301 12.667 8 20 8c0.666992 0 3.5 -0.333008 8.5 -1s10.5 -4.33398 16.5 -11.001s9 -14 9 -22c-0.666992 -8.66699 -4.33398 -16 -11.001 -22l-102 -91l-24 -23c-7.33301 -6 -11 -11 -11 -15c0 -3.33301 1.66699 -7.33301 5 -12l29.5 -40.5l55 -75l54.5 -72.5l23 -32
c4 -6 6 -12.667 6 -20c0 -8.66699 -3.83301 -15.834 -11.5 -21.501s-14.5 -8.5 -20.5 -8.5c-2 0 -5.5 0.166992 -10.5 0.5s-10.167 4.16602 -15.5 11.499l-23 32l-54 72l-54 73.5c-16 21.667 -25.667 34.5 -29 38.5s-6.33301 6.33301 -9 7c-2.66699 0 -5.5 -1.33301 -8.5 -4
l-11.5 -10c-9.33301 -8 -18.333 -16.167 -27 -24.5s-13 -17.5 -13 -27.5v-139c0 -8.66699 -3 -16 -9 -22s-13.667 -9 -23 -9z" />
    <glyph glyph-name="l" unicode="l" horiz-adv-x="164" 
d="M82 0c-9.33301 0 -17 3 -23 9s-9 13.333 -9 22v668c0 8.66699 3 16 9 22s13.667 9 23 9s17 -3 23 -9s9 -13.333 9 -22v-668c0 -8.66699 -3 -16 -9 -22s-13.667 -9 -23 -9z" />
    <glyph glyph-name="m" unicode="m" horiz-adv-x="738" 
d="M656 0c-9.33301 0 -17 2.83398 -23 8.50098s-9 12.834 -9 21.501v273c0 34 -7.33301 60.333 -22 79s-31.167 31.5 -49.5 38.5s-33.166 10.5 -44.499 10.5c-37.333 0 -64.333 -11.5 -81 -34.5s-25 -53.167 -25 -90.5v-276c0 -8.66699 -3 -15.834 -9 -21.501
s-13.667 -8.5 -23 -8.5c-10 0 -18 2.83301 -24 8.5s-9 12.834 -9 21.501v275c-1.33301 33.333 -9 59.166 -23 77.499s-30 31 -48 38s-32.667 10.5 -44 10.5c-38 0 -65.333 -11.5 -82 -34.5s-25 -53.167 -25 -90.5v-276c0 -8.66699 -3 -15.834 -9 -21.501
s-13.667 -8.5 -23 -8.5c-10 -0 -18 2.83301 -24 8.5s-9 12.834 -9 21.501v418c0 8.66699 3 16 9 22s14 9 24 9c8 0 15.333 -2.16699 22 -6.5s10 -11.5 10 -21.5v-11c0 -2.66699 1.33301 -4 4 -4c1.33301 0 2.33301 0.333008 3 1c16.667 20 32.5 34 47.5 42s32.5 12 52.5 12
c59.333 0 104.333 -20.667 135 -62c5.33301 -8.66699 9.66602 -13 12.999 -13c2.66699 0 6 4 10 12c27.333 42 70 63 128 63c42 0 79 -10.667 111 -32c46 -31.333 69 -82 69 -152v-277c0 -8.66699 -3 -15.834 -9 -21.501s-13.667 -8.5 -23 -8.5z" />
    <glyph glyph-name="n" unicode="n" horiz-adv-x="509" 
d="M427 0c-9.33301 0 -17.001 2.99805 -23.001 8.99805s-9 13.333 -9 22v258c0 33.333 -7.16699 60.333 -21.5 81s-32.5 36 -54.5 46s-44.667 15 -68 15c-90 0 -135 -40.667 -135 -122v-278c0 -8.66699 -3 -16 -9 -22s-13.667 -9 -23 -9c-10 0 -18 3 -24 9s-9 13.333 -9 22
l-1 418c0 8.66699 3 15.834 9 21.501s13.333 8.5 22 8.5c10 0 18.167 -2.66699 24.5 -8s9.5 -12.666 9.5 -21.999v-3c0 -2.66699 1.66699 -4 5 -4c1.33301 0 2.33301 0.333008 3 1c30.667 32 73.334 48 128.001 48c30.667 0 62 -5.66699 94 -17s59 -31.333 81 -60
s33 -69 33 -121v-262c0 -8.66699 -3 -16 -9 -22s-13.667 -9 -23 -9z" />
    <glyph glyph-name="o" unicode="o" horiz-adv-x="569" 
d="M284 -13c-69.333 0 -128.666 24.667 -177.999 74s-74 108.666 -74 177.999s24.667 128.666 74 177.999s108.666 74 177.999 74c70 0 129.667 -24.667 179 -74s74 -108.666 74 -177.999s-24.667 -128.666 -74 -177.999s-109 -74 -179 -74zM284 47c52 0 96.333 19 133 57
s55 83 55 135s-18.333 97 -55 135s-81 57 -133 57c-51.333 0 -95.5 -19 -132.5 -57s-55.5 -83 -55.5 -135s18.5 -97 55.5 -135s81.167 -57 132.5 -57z" />
    <glyph glyph-name="p" unicode="p" horiz-adv-x="588" 
d="M81 -140c-9.33301 0 -16.833 2.83301 -22.5 8.5s-8.5 12.834 -8.5 21.501v558c0 8.66699 2.83301 16 8.5 22s13.167 9 22.5 9s17 -3 23 -9s9 -13.333 9 -22v-29c0 -6 2 -9 6 -9c2.66699 0 5 1.33301 7 4c20 24.667 45.833 43.667 77.5 57s64.834 20 99.501 20
c70 0 129.667 -24.667 179 -74s74 -109 74 -179s-25 -129.333 -75 -178s-110 -73 -180 -73c-70.667 0 -130.334 26.667 -179.001 80c-0.666992 1.33301 -1.66699 2 -3 2h-1c-3.33301 0 -5 -2.66699 -5 -8v-171c0 -8.66699 -3 -15.834 -9 -21.501s-13.667 -8.5 -23 -8.5z
M301 47c52.667 0 97.667 18.833 135 56.5s56 82.5 56 134.5s-18.5 97.167 -55.5 135.5s-81.5 57.5 -133.5 57.5s-96.5 -19.167 -133.5 -57.5s-55.5 -83.5 -55.5 -135.5s18.167 -96.833 54.5 -134.5s80.5 -56.5 132.5 -56.5z" />
    <glyph glyph-name="q" unicode="q" horiz-adv-x="588" 
d="M507 -140c-9.33301 0 -17 2.83301 -23 8.5s-9 12.834 -9 21.501v171c0 5.33301 -1.66699 8 -5 8c-2 0 -3.33301 -0.666992 -4 -2c-48 -53.333 -107.667 -80 -179 -80c-70 0 -130 24.333 -180 73s-75 108 -75 178s24.667 129.667 74 179s109 74 179 74
c34.667 0 67.834 -6.66699 99.501 -20s57.5 -32.333 77.5 -57c2 -2.66699 4.33301 -4 7 -4c1.33301 0 2.66602 0.5 3.99902 1.5s2 5.16699 2 12.5v24c0 8.66699 3 16 9 22s13.667 9 23 9s16.833 -3 22.5 -9s8.5 -13.333 8.5 -22v-558
c0 -8.66699 -2.83301 -15.834 -8.5 -21.501s-13.167 -8.5 -22.5 -8.5zM287 47c52 0 96.167 18.833 132.5 56.5s54.5 82.5 54.5 134.5s-18.5 97.167 -55.5 135.5s-81.5 57.5 -133.5 57.5s-96.5 -19.167 -133.5 -57.5s-55.5 -83.5 -55.5 -135.5s18.667 -96.833 56 -134.5
s82.333 -56.5 135 -56.5z" />
    <glyph glyph-name="r" unicode="r" horiz-adv-x="233" 
d="M82 0c-9.33301 0 -16.9971 2.83105 -22.9971 8.49805s-9 12.834 -9 21.501v418c0 8.66699 3 16 9 22s13.667 9 23 9s17.166 -3 23.499 -9s9.5 -13.333 9.5 -22v-31c0 -4 1 -6 3 -6s4 1 6 3c8 10 18.333 21 31 33s24 21 34 27c5.33301 2.66699 11.333 4 18 4
c3.33301 0 8.66602 -0.5 15.999 -1.5s13.666 -5.83301 18.999 -14.5c0 -0.666992 0.333008 -1 1 -1c2.66699 -3.33301 4 -9.33301 4 -18c0 -1.33301 -0.166992 -4.66602 -0.5 -9.99902s-4.16602 -10.666 -11.499 -15.999l-21 -15
c-30.667 -18.667 -54.834 -38.5 -72.501 -59.5s-26.5 -55.5 -26.5 -103.5l-1 -209c0 -8.66699 -3 -15.834 -9 -21.501s-13.667 -8.5 -23 -8.5z" />
    <glyph glyph-name="s" unicode="s" horiz-adv-x="354" 
d="M203 -13c-75.333 0 -130.998 32.998 -166.998 98.998c-2 2 -3 9 -3 21c0 3.33301 1.16699 7.33301 3.5 12s6.66602 8.5 12.999 11.5s12.166 4.5 17.499 4.5c12.667 0 24.334 -9.66699 35.001 -29c23.333 -39.333 57 -59 101 -59c22.667 0 42 8.66699 58 26
c18 20 27 41.667 27 65c0 29.333 -20.667 56 -62 80c-20 12 -39.167 21 -57.5 27s-35.833 14.667 -52.5 26c-32.667 24 -49 56.667 -49 98c0 38 15.667 70.667 47 98c22.667 16 47.667 24 75 24c25.333 0 52.666 -8 81.999 -24c18 -10.667 31 -23 39 -37
c2.66699 -4.66699 4 -9.66699 4 -15c0 -2 -0.5 -5.33301 -1.5 -10s-4.5 -9.33398 -10.5 -14.001s-11.667 -7 -17 -7c-9.33301 0 -20.666 7.33301 -33.999 22c-10 10 -18.333 16.667 -25 20s-17 5 -31 5c-12.667 0 -26 -5.5 -40 -16.5s-21 -26.167 -21 -45.5
c0 -17.333 8 -31.666 24 -42.999c7.33301 -5.33301 16.666 -10.666 27.999 -15.999c82.667 -35.333 134.667 -73.666 156 -114.999c7.33301 -18.667 11 -37.667 11 -57c0 -11.333 -2.33301 -28 -7 -50s-19.167 -44.333 -43.5 -67s-57.5 -34 -99.5 -34z" />
    <glyph glyph-name="t" unicode="t" horiz-adv-x="308" 
d="M154 0c-9.33301 0 -17 3 -23 9s-9 13.333 -9 22v372c0 8 -3.66699 12 -11 12h-48c-8.66699 0 -16 3 -22 9s-9 13.667 -9 23s3 17 9 23s13.333 9 22 9h47c8 0 12 5.33301 12 16v204c0 8.66699 3 16 9 22s13.667 9 23 9s17 -3 23 -9s9 -13.333 9 -22v-207
c0 -8 4 -12.333 12 -13h47c8.66699 0 16 -3 22 -9s9 -13.667 9 -23s-3 -17 -9 -23s-13.333 -9 -22 -9h-33c-13.333 0 -21 -0.666992 -23 -2s-3 -4.33301 -3 -9v-373c0 -8.66699 -3 -16 -9 -22s-13.667 -9 -23 -9z" />
    <glyph glyph-name="u" unicode="u" horiz-adv-x="499" 
d="M250 -13c-30 0 -60.502 5.83301 -91.502 17.5s-56.833 32.167 -77.5 61.5s-31 69.666 -31 120.999v261c0 8.66699 3 16 9 22s14 9 24 9c9.33301 0 17 -3 23 -9s9 -13.333 9 -22v-257c0 -32.667 6.5 -59.667 19.5 -81s29.833 -37.166 50.5 -47.499
s42.334 -15.5 65.001 -15.5c23.333 0 45.333 5.16699 66 15.5s37.334 26.166 50.001 47.499s19 48.333 19 81v257c0 8.66699 3 16 9 22s13.667 9 23 9s17 -3 23 -9s9 -13.333 9 -22v-261c0 -51.333 -10.333 -91.666 -31 -120.999s-46.167 -49.833 -76.5 -61.5
s-60.833 -17.5 -91.5 -17.5z" />
    <glyph glyph-name="v" unicode="v" horiz-adv-x="487" 
d="M242 -13c-4.66699 0 -9 4 -13 12l-171 370c-20.667 44 -32.167 68.833 -34.5 74.5s-3.5 10.5 -3.5 14.5s1.16699 8.5 3.5 13.5s9.16602 7.5 20.499 7.5c17.333 0 28.833 -2.16699 34.5 -6.5s10.834 -11.5 15.501 -21.5l62 -146
c39.333 -94.667 62.333 -148.334 69 -161.001c2.66699 -4 6.66699 -14 12 -30c2 -7.33301 4 -11 6 -11c1.33301 0 4 6.66699 8 20c2 8.66699 4.33301 15.334 7 20.001s26 58.667 70 162l63 146c5.33301 12 10.833 19.667 16.5 23s16.167 5 31.5 5c8.66699 0 15.667 -3 21 -9
c3.33301 -3.33301 5 -7.33301 5 -12c0 -2.66699 -0.666992 -6 -2 -10l-208 -449c-4 -8 -8.33301 -12 -13 -12z" />
    <glyph glyph-name="w" unicode="w" horiz-adv-x="706" 
d="M461 -13c-4.66699 0 -9.33105 3.99902 -13.998 11.999l-27 59c-44.667 97.333 -67.334 146 -68.001 146c-2 0 -4 -3 -6 -9l-90 -196c-4.66699 -8 -9.33398 -12 -14.001 -12c-4 0 -8.33301 4 -13 12l-30 66l-70.5 151l-70.5 152
c-20.667 44.667 -32.167 69.834 -34.5 75.501s-3.5 10.5 -3.5 14.5s1.33301 8.5 4 13.5s9.33398 7.5 20.001 7.5c17.333 0 29 -2.16699 35 -6.5s11 -11.5 15 -21.5l62 -146c36.667 -88.667 59.667 -142.334 69 -161.001l5 -9l7 -21c2 -7.33301 4 -11 6 -11
s3.66699 3.66699 5 11c0.666992 1.33301 1.5 4.16602 2.5 8.49902s3.83301 10.833 8.5 19.5c8.66699 17.333 27 60.333 55 129c0.666992 0.666992 1.16699 1.66699 1.5 3s0.833008 2.66602 1.5 3.99902v3l-11 23l-44 96.5c-12 25.667 -18.833 40.667 -20.5 45
s-2.5 8.5 -2.5 12.5s1.16699 8.5 3.5 13.5s9.16602 7.5 20.499 7.5c16.667 0 28 -2.16699 34 -6.5s11 -11.5 15 -21.5l10 -23c16.667 -43.333 26.667 -65 30 -65c2 0 3.66699 2 5 6l34 82c5.33301 12 10.833 19.667 16.5 23s16.167 5 31.5 5c8.66699 0 16 -3 22 -9
c3.33301 -3.33301 5 -7 5 -11s-13.667 -35.667 -41 -95c-25.333 -54 -38 -82.667 -38 -86s6.33301 -18.666 19 -45.999c9.33301 -23.333 17.666 -42.666 24.999 -57.999l23 -54c2.66699 -11.333 5 -17 7 -17s3.66699 3.66699 5 11l7 19l29 66l108 252
c5.33301 12 10.833 19.667 16.5 23s15.834 5 30.501 5c8.66699 0 16 -3 22 -9c3.33301 -3.33301 5 -7.33301 5 -12c0 -3.33301 -0.666992 -6.66602 -2 -9.99902l-208 -449c-4 -8 -8.33301 -12 -13 -12z" />
    <glyph glyph-name="x" unicode="x" horiz-adv-x="380" 
d="M354 0l-29 0.00195312c-6.66699 0 -13.5 2 -20.5 6s-12.167 9 -15.5 15l-87 175c-4.66699 13.333 -8.66699 20 -12 20c-2.66699 0 -5.66699 -5 -9 -15l-91 -180c-3.33301 -6 -8.5 -11 -15.5 -15s-13.833 -6 -20.5 -6h-30c-8.66699 0 -13 3.33301 -13 10
c0 3.33301 0.666992 7 2 11l132 219c6 9.33301 9 15.666 9 18.999l-1 4c-2 5.33301 -40.333 70.666 -115 195.999c-1.33301 3.33301 -2 6 -2 8c0 8 4.66699 12 14 12h30c6.66699 0 13.5 -2 20.5 -6s11.833 -8.66699 14.5 -14l63 -130c5.33301 -12.667 9.33301 -19 12 -19
c3.33301 0 7.33301 6.33301 12 19l61 130c3.33301 6 8.5 10.833 15.5 14.5s13.833 5.5 20.5 5.5h30c9.33301 0 14 -3.66699 14 -11c0 -2.66699 -1 -5.66699 -3 -9l-109 -186c-5.33301 -8.66699 -8 -14.334 -8 -17.001c0 -3.33301 2.66699 -8.66602 8 -15.999l135 -219
c2 -3.33301 3 -6.33301 3 -9c0 -8 -5 -12 -15 -12z" />
    <glyph glyph-name="y" unicode="y" horiz-adv-x="433" 
d="M133 -103l-25.998 0.000976562c-10 0 -15 4 -15 12c0 3.33301 0.666992 6.66602 2 9.99902l76 159c4.66699 8.66699 7 16 7 22c0 5.33301 -2.33301 12.333 -7 21l-158 337l-1 8c0 8.66699 5 13 15 13h26c6.66699 0 13.167 -2 19.5 -6s11.166 -9 14.499 -15l123 -293
c3.33301 -7.33301 5.66602 -11 6.99902 -11s3.33301 3.33301 6 10c1.33301 2 43 100 125 294c3.33301 6 8.16602 11 14.499 15s12.833 6 19.5 6h26c10 0 15 -4 15 -12l-1 -9l-254 -539c-2.66699 -6 -7.16699 -11.167 -13.5 -15.5s-13.166 -6.5 -20.499 -6.5z" />
    <glyph glyph-name="z" unicode="z" horiz-adv-x="415" 
d="M352 0l-317 0.000976562c-9.33301 0 -14 4 -14 12c0 2.66699 0.666992 5.66699 2 9l232 373c5.33301 7.33301 8 12.666 8 15.999c0 0.666992 -0.166992 1.66699 -0.5 3s-6.83301 2 -19.5 2h-170c-8.66699 0 -16 3 -22 9s-9 13.667 -9 23s3 17 9 23s13.333 9 22 9h289
c9.33301 0 14 -3.66699 14 -11c0 -2.66699 -1 -5.66699 -3 -9l-229 -370c-6 -10 -9 -17 -9 -21c0 -2 1 -3 3 -3h214c8.66699 0 16 -3 22 -9s9 -13.667 9 -23c0 -10 -3 -18 -9 -24s-13.333 -9 -22 -9z" />
    <glyph glyph-name="braceleft" unicode="{" horiz-adv-x="351" 
d="M37 315c19.333 0.666992 35.332 4.33594 47.999 11.0029c16 9.33301 28.167 22 36.5 38s13.166 38.667 14.499 68c0.666992 14.667 1.33398 48 2.00098 100s4.16699 89.167 10.5 111.5s16.333 40 30 53s31.167 22.5 52.5 28.5c12.667 3.33301 33 5 61 5h27v-74h-15
c-34 0 -56.5 -6 -67.5 -18s-16.5 -38.333 -16.5 -79c0 -73.333 -1 -120 -3 -140c-4.66699 -38.667 -14.334 -68.334 -29.001 -89.001s-38 -38.334 -70 -53.001c36 -14.667 62 -36.834 78 -66.501s24 -78.5 24 -146.5c0 -60.667 0.666992 -96.334 2 -107.001
c2 -17.333 6 -30.333 12 -39c4.66699 -6.66699 12 -11.667 22 -15s31 -5 63 -5v-75h-27c-32.667 0 -56.334 2.66699 -71.001 8c-22 8 -39.667 20.833 -53 38.5s-21.666 41.167 -24.999 70.5c-3.33301 20.667 -5 59.334 -5 116.001
c-0.666992 57.333 -4.16699 96.333 -10.5 117s-17.166 36.5 -32.499 47.5s-34.666 16.833 -57.999 17.5v77z" />
    <glyph glyph-name="bar" unicode="|" horiz-adv-x="164" 
d="M82 0c-9.33301 0 -17 3 -23 9s-9 13.333 -9 22v668c0 8.66699 3 16 9 22s13.667 9 23 9s17 -3 23 -9s9 -13.333 9 -22v-668c0 -8.66699 -3 -16 -9 -22s-13.667 -9 -23 -9z" />
    <glyph glyph-name="braceright" unicode="}" horiz-adv-x="351" 
d="M319 315l-0.000976562 -77.002c-23.333 -0.666992 -42.666 -6.5 -57.999 -17.5s-26.166 -26.833 -32.499 -47.5s-9.83301 -59.667 -10.5 -117c0 -56.667 -1.66699 -95.334 -5 -116.001c-3.33301 -29.333 -11.666 -52.833 -24.999 -70.5s-31 -30.5 -53 -38.5
c-14.667 -5.33301 -38.334 -8 -71.001 -8h-27v75c32 0 53 1.66699 63 5s17.333 8.33301 22 15c6 8.66699 10 21.667 12 39c1.33301 10.667 2 46.334 2 107.001c0 68 8 116.833 24 146.5s42 51.834 78 66.501c-32 14.667 -55.333 32.334 -70 53.001
s-24.334 50.334 -29.001 89.001c-2 20 -3 66.667 -3 140c0 40.667 -5.5 67 -16.5 79s-33.5 18 -67.5 18h-15v74h27c28 0 48.333 -1.66699 61 -5c21.333 -6 38.833 -15.5 52.5 -28.5s23.667 -30.667 30 -53s9.83301 -59.5 10.5 -111.5s1.33398 -85.333 2.00098 -100
c1.33301 -29.333 6.16602 -52 14.499 -68s20.5 -28.667 36.5 -38c12.667 -6.66699 28.667 -10.334 48 -11.001z" />
    <glyph glyph-name="asciitilde" unicode="~" horiz-adv-x="606" 
d="M551 409l0.000976562 -79.001c-36.667 -20.667 -62.834 -33.667 -78.501 -39s-30.5 -8 -44.5 -8c-31.333 0 -74.666 12.333 -129.999 37c-42.667 20 -70 31.833 -82 35.5s-23 5.5 -33 5.5c-14.667 0 -30.667 -3.16699 -48 -9.5s-44 -20.166 -80 -41.499v78
c35.333 20 61 32.833 77 38.5s31.667 8.5 47 8.5c31.333 0 75 -13.333 131 -40c38 -18 64.167 -29.333 78.5 -34s27.166 -7 38.499 -7c13.333 0 27 2.83301 41 8.5s41.667 21.167 83 46.5z" />
    <glyph glyph-name="copyright" unicode="&#xa9;" 
d="M413 -13c-69.333 0 -132.666 17 -189.999 51s-103 79.667 -137 137s-51 120.666 -51 189.999c0 70 17 133.5 51 190.5s79.667 102.5 137 136.5s120.666 51 189.999 51c70 0 132.667 -17 188 -51s99.166 -79.5 131.499 -136.5s48.5 -120.5 48.5 -190.5
c0 -69.333 -16.167 -132.666 -48.5 -189.999s-76.166 -103 -131.499 -137s-118 -51 -188 -51zM413 48c58 0 109.833 14.333 155.5 43s81.834 67.167 108.501 115.5s40 101.166 40 158.499c0 58 -13.333 111.167 -40 159.5s-62.834 86.833 -108.501 115.5s-97.5 43 -155.5 43
c-86.667 0 -160.667 -31.167 -222 -93.5s-92 -137.166 -92 -224.499c0 -86.667 30.667 -161.167 92 -223.5s135.333 -93.5 222 -93.5zM421 112c-70 0 -129.501 24.833 -178.501 74.5s-73.5 109.167 -73.5 178.5s24.5 128.5 73.5 177.5s108.5 73.5 178.5 73.5
c64 0 117.333 -18.667 160 -56c5.33301 -3.33301 8 -10 8 -20v-55c0 -9.33301 -2 -14 -6 -14c-3.33301 0 -8.66602 4 -15.999 12c-18 22 -39.5 39.667 -64.5 53s-52.167 20 -81.5 20c-52 0 -96.333 -18.833 -133 -56.5s-55 -82.5 -55 -134.5s18.333 -97.167 55 -135.5
s81 -57.5 133 -57.5c31.333 0 60 7.66699 86 23s48 35.333 66 60c4 5.33301 7.66699 8 11 8c0.666992 0 1.66699 -0.333008 3 -1s2 -4 2 -10v-62c0 -10 -3 -17 -9 -21c-46 -38 -99 -57 -159 -57z" />
    <glyph glyph-name="guillemotleft" unicode="&#xab;" horiz-adv-x="564" 
d="M301 -13c-8 0 -15.332 3.00195 -21.999 9.00195l-31 32l-72.5 72l-74.5 74.5l-41 41.5c-6.66699 8 -10 16 -10 24c0 9.33301 2.66699 16.666 8 21.999l222 220c6.66699 6 14 9 22 9c7.33301 0 14.5 -3.5 21.5 -10.5s10.5 -14.167 10.5 -21.5c0 -8 -3 -15.333 -9 -22
l-195 -188c-4 -4 -6 -6.66699 -6 -8c0 -0.666992 0.333008 -1.83398 1 -3.50098s2.5 -4 5.5 -7l34 -33l66.5 -64.5l66 -63l28 -28c6 -6.66699 9 -14 9 -22s-3.33301 -15.5 -10 -22.5s-14.334 -10.5 -23.001 -10.5zM480.001 -12.998c-8 0 -15.333 3 -22 9l-219 220
c-7.33301 8 -11 16 -11 24v8c0.666992 4.66699 3.66699 9.33398 9 14.001l221 220c6.66699 6 14 9 22 9s15.5 -3.33301 22.5 -10s10.5 -14 10.5 -22s-3 -15.333 -9 -22l-94 -91c-71.333 -68 -107 -103 -107 -105c0 -2.66699 2.33301 -6.33398 7 -11.001l193 -188
c6 -6.66699 9 -14 9 -22s-3.33301 -15.5 -10 -22.5s-14 -10.5 -22 -10.5z" />
    <glyph glyph-name="registered" unicode="&#xae;" 
d="M413 -13c-69.333 0 -132.666 17 -189.999 51s-103 79.667 -137 137s-51 120.666 -51 189.999c0 70 17 133.5 51 190.5s79.667 102.333 137 136s120.666 50.5 189.999 50.5s131.833 -16.833 187.5 -50.5s99.667 -79 132 -136s48.5 -120.5 48.5 -190.5
c0 -69.333 -16.167 -132.666 -48.5 -189.999s-76.333 -103 -132 -137s-118.167 -51 -187.5 -51zM413 47c58 0 109.834 14.499 155.501 43.499s81.834 67.667 108.501 116s40 101.166 40 158.499c0 58 -13.333 111.167 -40 159.5s-62.834 86.833 -108.501 115.5
s-97.5 43 -155.5 43c-86.667 0 -160.667 -31.167 -222 -93.5s-92 -137.166 -92 -224.499c0 -57.333 14.167 -110.166 42.5 -158.499s66.166 -87 113.499 -116s100 -43.5 158 -43.5zM559.001 132.999c-18 0 -33.668 7 -47.001 21c-8 10 -12 24.333 -12 43c0 8 0.5 17 1.5 27
s1.5 20.667 1.5 32c0 12.667 -5 24.834 -15 36.501s-21.667 17.5 -35 17.5h-123c-4.66699 0 -8 -0.666992 -10 -2s-3 -4.33301 -3 -9v-139c0 -4 -3 -8.66699 -9 -14s-13.667 -8 -23 -8s-17 2.66699 -23 8s-9 10 -9 14v397c0 13.333 3 23.333 9 30s13.333 10 22 10h162
c37.333 0 69.333 -12.167 96 -36.5s40 -57.5 40 -99.5c0 -50.667 -19.667 -84 -59 -100c-4 -1.33301 -6 -3 -6 -5s2 -4.33301 6 -7c16.667 -9.33301 27.667 -19 33 -29s8 -22.667 8 -38c0 -16 -2.66699 -32.333 -8 -49c-3.33301 -12.667 -5 -22.667 -5 -30
c0 -6.66699 3.33301 -10 10 -10l14 1c12.667 0 21.334 -4 26.001 -12c2.66699 -4.66699 4 -9.33398 4 -14.001c0 -23.333 -15.333 -35 -46 -35zM442 374.999c18 0 35.167 7 51.5 21s24.5 35.333 24.5 64c0 17.333 -5.66699 33.833 -17 49.5s-31 23.5 -59 23.5h-112
c-4.66699 0 -8 -0.666992 -10 -2s-3 -4.33301 -3 -9v-135c0 -8 3 -12 9 -12h116z" />
    <glyph glyph-name="degree" unicode="&#xb0;" horiz-adv-x="374" 
d="M187 469c-38 0 -70.333 13.333 -97 40s-40 59 -40 97s13.333 70.167 40 96.5s59 39.5 97 39.5s70.333 -13.167 97 -39.5s40 -58.5 40 -96.5s-13.333 -70.333 -40 -97s-59 -40 -97 -40zM187 533c19.333 0 36 7.33301 50 22s21 31.667 21 51s-7 36.333 -21 51
s-30.667 22 -50 22s-36 -7.33301 -50 -22s-21 -31.667 -21 -51s7 -36.333 21 -51s30.667 -22 50 -22z" />
    <glyph glyph-name="plusminus" unicode="&#xb1;" horiz-adv-x="628" 
d="M314 150c-9.33301 0 -17 3 -23 9s-9 13.333 -9 22v178c0 15.333 -6 23 -18 23h-183c-8.66699 0 -16 3 -22 9s-9 13.667 -9 23c0 8.66699 3 16 9 22s13.333 9 22 9h178c15.333 0 23 6.33301 23 19v182c0 8.66699 3 16 9 22s13.667 9 23 9s17 -3 23 -9s9 -13.333 9 -22
v-177c0 -16 7 -24 21 -24h180c8.66699 0 16 -3 22 -9s9 -13.333 9 -22c0 -9.33301 -3 -17 -9 -23s-13.333 -9 -22 -9h-178c-15.333 0 -23 -6.66699 -23 -20v-181c0 -8.66699 -3 -16 -9 -22s-13.667 -9 -23 -9zM547 62h-466c-8.66699 0 -16 3 -22 9s-9 13.667 -9 23
c0 8.66699 3 16 9 22s13.333 9 22 9h466c8.66699 0 16 -3 22 -9s9 -13.333 9 -22c0 -9.33301 -3 -17 -9 -23s-13.333 -9 -22 -9z" />
    <glyph glyph-name="paragraph" unicode="&#xb6;" horiz-adv-x="625" 
d="M440 0c-10 0 -17.999 2.99805 -23.999 8.99805s-9 13.333 -9 22v607c0 18.667 -6.66699 28 -20 28h-66c-16 0 -24 -9.33301 -24 -28v-607c0 -8.66699 -3 -16 -9 -22s-13.667 -9 -23 -9s-17 3 -23 9s-9 13.333 -9 22v312c0 10 -2 16.333 -6 19s-9 4.33398 -15 5.00098h-1
c-46 6.66699 -84.333 26.834 -115 60.501s-46 73.834 -46 120.501c0 49.333 17.167 91.166 51.5 125.499s78.166 53.166 131.499 56.499h311c8.66699 0 16 -3 22 -9s9 -13.667 9 -23s-3 -17 -9 -23s-13.333 -9 -22 -9h-44c-10 0 -17.167 -2.16699 -21.5 -6.5
s-6.5 -13.166 -6.5 -26.499v-602c0 -8.66699 -3 -16 -9 -22s-13.667 -9 -23 -9z" />
    <glyph glyph-name="periodcentered" unicode="&#xb7;" horiz-adv-x="283" 
d="M146 274h-8c-24 0 -44.667 8.66699 -62 26s-26 38 -26 62v7c0 24 8.66699 44.667 26 62s38 26 62 26h8c24 0 44.5 -8.66699 61.5 -26s25.5 -38 25.5 -62v-7c0 -24 -8.5 -44.667 -25.5 -62s-37.5 -26 -61.5 -26z" />
    <glyph glyph-name="guillemotright" unicode="&#xbb;" horiz-adv-x="564" 
d="M262 -13c-8 0 -15.501 3.33008 -22.501 9.99707s-10.5 14.334 -10.5 23.001c0 8 3 15.333 9 22l29 28l65 63l66.5 64.5l34 33c3 3 4.83301 5.33301 5.5 7s1 2.83398 1 3.50098c0 1.33301 -2 4 -6 8l-195 188c-6 6.66699 -9 14 -9 22c0 7.33301 3.33301 14.5 10 21.5
s14.334 10.5 23.001 10.5c7.33301 0 14.333 -3 21 -9l222 -220c5.33301 -5.33301 8 -12.666 8 -21.999c0 -8 -3.33301 -16 -10 -24l-41 -41.5l-74.5 -74.5l-72.5 -72l-31 -32c-6.66699 -6 -14 -9 -22 -9zM83.999 -13.0029c-8 0 -15.502 3.33105 -22.502 9.99805
s-10.5 14.334 -10.5 23.001c0 8 3 15.333 9 22l160 156c26.667 26 40.334 40 41.001 42c0 2 -2 4.66699 -6 8l-196 189c-6 6.66699 -9 14 -9 22c0 7.33301 3.33301 14.5 10 21.5s14.334 10.5 23.001 10.5c8 0 15.333 -3 22 -9l221 -220c6 -5.33301 9 -12.666 9 -21.999
c0 -8 -3.66699 -16 -11 -24l-41 -41.5l-74.5 -74.5l-72.5 -72l-31 -32c-6.66699 -6 -13.667 -9 -21 -9z" />
    <glyph glyph-name="Io-cyrl" unicode="&#x401;" horiz-adv-x="498" 
d="M440 0l-360 0.000976562c-8.66699 0 -15.834 3 -21.501 9s-8.5 13.333 -8.5 22v668c0 8.66699 2.83301 16 8.5 22s12.834 9 21.501 9h341c8.66699 0 16 -3 22 -9s9 -13.667 9 -23s-3 -17 -9 -23s-13.333 -9 -22 -9h-294c-4.66699 0 -8 -0.833008 -10 -2.5
s-3 -4.5 -3 -8.5v-236c0 -4.66699 0.666992 -8 2 -10s4.33301 -3 9 -3h258c8.66699 0 16 -3 22 -9s9 -13.667 9 -23s-3 -17 -9 -23s-13.333 -9 -22 -9h-256c-4.66699 0 -8 -0.666992 -10 -2s-3 -4.33301 -3 -9v-254c0 -4.66699 0.666992 -7.83398 2 -9.50098
s4.33301 -2.5 9 -2.5h315c8.66699 0 16 -3 22 -9s9 -13.667 9 -23c0 -10 -3 -18 -9 -24s-13.333 -9 -22 -9zM345 800.001l-6 0.000976562c-16 0 -29.833 5.5 -41.5 16.5s-17.5 24.833 -17.5 41.5c0 20 5.83301 35.833 17.5 47.5s25.5 17.5 41.5 17.5h6
c15.333 0 28.833 -5.83301 40.5 -17.5s17.5 -25.834 17.5 -42.501c0 -20 -5.83301 -35.5 -17.5 -46.5s-25.167 -16.5 -40.5 -16.5zM167 800.002l-6 0.000976562c-16 0 -29.833 5.5 -41.5 16.5s-17.5 24.833 -17.5 41.5c0 20 5.83301 35.833 17.5 47.5s25.5 17.5 41.5 17.5h6
c15.333 0 28.833 -5.83301 40.5 -17.5s17.5 -25.834 17.5 -42.501c0 -20 -5.83301 -35.5 -17.5 -46.5s-25.167 -16.5 -40.5 -16.5z" />
    <glyph glyph-name="Ieukrainian-cyrl" unicode="&#x404;" horiz-adv-x="701" 
d="M413 -13c-69.333 0 -132.666 17 -189.999 51s-103 79.667 -137 137s-51 120.666 -51 189.999c0 70 17 133.667 51 191s79.667 103 137 137s120.666 51 189.999 51c92 0 172.667 -30.333 242 -91c7.33301 -4.66699 11 -12 11 -22v-64c0 -5.33301 -2 -8 -6 -8
c-2.66699 0 -5 1.33301 -7 4c-28 36.667 -62.667 65.834 -104 87.501s-86.666 32.5 -135.999 32.5c-76.667 0 -143.334 -24.5 -200.001 -73.5s-92.667 -110.5 -108 -184.5c0 -8.66699 1.83301 -14 5.5 -16s8.83398 -3 15.501 -3h341c8.66699 0 15.834 -3 21.501 -9
s8.5 -13.667 8.5 -23s-2.83301 -17 -8.5 -23s-12.834 -9 -21.501 -9h-347c-8 0 -13 -1.5 -15 -4.5s-3 -7.5 -3 -13.5c12 -78.667 47 -144.334 105 -197.001s126.667 -79 206 -79c49.333 0 94.666 10.833 135.999 32.5s76 50.834 104 87.501c2.66699 3.33301 5.66699 5 9 5
c2.66699 -0.666992 4 -3.66699 4 -9v-64c0 -10 -3.66699 -17.333 -11 -22c-32 -28 -68.5 -50.167 -109.5 -66.5s-85.167 -24.5 -132.5 -24.5z" />
    <glyph glyph-name="Ibyelorussianukrainian-cyrl" unicode="&#x406;" horiz-adv-x="223" 
d="M115 800l-6 0.000976562c-16 0 -29.833 5.5 -41.5 16.5s-17.5 24.833 -17.5 41.5c0 20 5.83301 35.833 17.5 47.5s25.5 17.5 41.5 17.5h6c15.333 0 28.833 -5.83301 40.5 -17.5s17.5 -25.834 17.5 -42.501c0 -20 -5.83301 -35.5 -17.5 -46.5s-25.167 -16.5 -40.5 -16.5z
M110 0.000976562c-9.33301 0 -17 3 -23 9s-9 13.333 -9 22v668c0 8.66699 3 16 9 22s13.667 9 23 9s17 -3 23 -9s9 -13.333 9 -22v-668c0 -8.66699 -3 -16 -9 -22s-13.667 -9 -23 -9z" />
    <glyph glyph-name="Yi-cyrl" unicode="&#x407;" horiz-adv-x="412" 
d="M298 800l-6 0.000976562c-16 0 -29.833 5.5 -41.5 16.5s-17.5 24.833 -17.5 41.5c0 20 5.83301 35.833 17.5 47.5s25.5 17.5 41.5 17.5h6c15.333 0 28.833 -5.83301 40.5 -17.5s17.5 -25.834 17.5 -42.501c0 -20 -5.83301 -35.5 -17.5 -46.5s-25.167 -16.5 -40.5 -16.5z
M120 800.001l-6 0.000976562c-16 0 -29.833 5.5 -41.5 16.5s-17.5 24.833 -17.5 41.5c0 20 5.83301 35.833 17.5 47.5s25.5 17.5 41.5 17.5h6c15.333 0 28.833 -5.83301 40.5 -17.5s17.5 -25.834 17.5 -42.501c0 -20 -5.83301 -35.5 -17.5 -46.5s-25.167 -16.5 -40.5 -16.5z
M199 0.00195312c-9.33301 0 -17 3 -23 9s-9 13.333 -9 22v668c0 8.66699 3 16 9 22s13.667 9 23 9s17 -3 23 -9s9 -13.333 9 -22v-668c0 -8.66699 -3 -16 -9 -22s-13.667 -9 -23 -9z" />
    <glyph glyph-name="A-cyrl" unicode="&#x410;" horiz-adv-x="646" 
d="M601 1c-12.667 0 -22.332 6 -28.999 18l-77 184c-4 8.66699 -12 13 -24 13h-299c-12 0 -20 -5.33301 -24 -16l-76 -181c-6.66699 -12 -16.334 -18 -29.001 -18c-4 0 -8.33301 1 -13 3c-13.333 5.33301 -20 14.666 -20 27.999c0 4 0.666992 8 2 12l280 667
c5.33301 12.667 15.333 19 30 19c13.333 0 23.333 -6.33301 30 -19l280 -667c2 -4 3 -8 3 -12c0 -13.333 -7 -22.666 -21 -27.999c-4.66699 -2 -9 -3 -13 -3zM445.002 281c9.33301 0 14 2.33398 14 7.00098c0 2 -1 5.16699 -3 9.5s-10.333 24.166 -25 59.499l-49 117
l-51 124c-2.66699 8.66699 -5.66699 13 -9 13c-6.66699 0 -48.667 -98 -126 -294l-9 -23.5c-0.666992 -1.66699 -1 -3.16699 -1 -4.5c0 -5.33301 4.33301 -8 13 -8h246z" />
    <glyph glyph-name="Be-cyrl" unicode="&#x411;" horiz-adv-x="553" 
d="M283 0l-202 0.00195312c-8.66699 0 -16 3 -22 9s-9 13.333 -9 22v668c0 8.66699 3 16 9 22s13.333 9 22 9h320c9.33301 0 17 -3 23 -9s9 -13.667 9 -23s-3 -17 -9 -23s-13.333 -9 -22 -9h-275c-8 0 -12 -3 -12 -9v-188c0 -4.66699 0.666992 -7.83398 2 -9.50098
s4.33301 -2.5 9 -2.5h157c68 -2 124.667 -24.333 170 -67s68 -96.667 68 -162c0 -64.667 -23.833 -118.834 -71.5 -162.501s-103.167 -65.5 -166.5 -65.5zM278 65.002c49.333 0 91.501 15.168 126.501 45.501s52.5 69.5 52.5 117.5s-17.5 87.333 -52.5 118
s-77.167 46 -126.5 46h-151c-4.66699 0 -7.83398 -0.666992 -9.50098 -2s-2.5 -4.33301 -2.5 -9v-304c0 -4.66699 0.666992 -7.83398 2 -9.50098s4.33301 -2.5 9 -2.5h152z" />
    <glyph glyph-name="Ve-cyrl" unicode="&#x412;" horiz-adv-x="562" 
d="M279 0l-198 -0.000976562c-8.66699 0 -16 3 -22 9s-9 13.333 -9 22v668c0 8.66699 3 16 9 22s13.333 9 22 9h174c46.667 0 88 -6.16699 124 -18.5s64.333 -32.166 85 -59.499s31 -63 31 -107c0 -56.667 -26.667 -100.667 -80 -132c-6.66699 -4 -10 -7.66699 -10 -11
c0.666992 -2.66699 3.66699 -5.66699 9 -9c32 -20 59.333 -45.5 82 -76.5s34 -66.167 34 -105.5c0 -43.333 -11.667 -80.833 -35 -112.5s-54 -56 -92 -73s-79.333 -25.5 -124 -25.5zM255 437.999c34.667 0 65.167 2.5 91.5 7.5s47 15.167 62 30.5s22.5 38.333 22.5 69
c0 32 -7.33301 56.667 -22 74c-25.333 30.667 -75 46 -149 46h-123c-14.667 0 -22 -6.66699 -22 -20v-185c0 -14 6.66699 -21.333 20 -22h120zM279 64.999c32.667 0 63.167 5.5 91.5 16.5s51.333 27.333 69 49s26.5 48.5 26.5 80.5c0 48 -18.833 87 -56.5 117
s-81.167 45 -130.5 45h-144c-13.333 0 -20 -6 -20 -18v-268c0 -14 8 -21.333 24 -22h140z" />
    <glyph glyph-name="Ghe-cyrl" unicode="&#x413;" horiz-adv-x="397" 
d="M83 0c-10 0 -18 3 -24 9s-9 13.333 -9 22v668c0 8.66699 3 16 9 22s13.333 9 22 9h274c8.66699 0 16 -3 22 -9s9 -13.667 9 -23s-3 -17 -9 -23s-13.333 -9 -22 -9h-228c-8 0 -12 -3 -12 -9v-626c0 -8.66699 -3 -16 -9 -22s-13.667 -9 -23 -9z" />
    <glyph glyph-name="De-cyrl" unicode="&#x414;" horiz-adv-x="757" 
d="M586 65c14 0 18.6689 8 14.002 24l-58.5 142.5l-77.5 189.5l-45.5 111.5l-21.5 52.5c-0.666992 2 -1.66699 4 -3 6c-6.66699 18.667 -11.834 27.5 -15.501 26.5s-9.83398 -12.5 -18.501 -34.5c-2 -5.33301 -10 -24.833 -24 -58.5l-50.5 -123l-59.5 -145.5l-67 -164
c-6 -18 -1.66699 -27 13 -27h414zM74.002 0c-0.666992 -1.33301 -1 -4.00391 -1 -8.00391c0 -4.66699 0.333008 -9.66699 1 -15c0.666992 -7.33301 1 -15.666 1 -24.999c0 -8.66699 -3 -16 -9 -22s-13.333 -9 -22 -9h-3c-8.66699 0 -16 3 -22 9s-9 13.333 -9 22v82
c0 8.66699 3 16 9 22s13.333 9 22 9h18c7.33301 0 13 1.66699 17 5s7.33301 8.33301 10 15s17.167 41.167 43.5 103.5l90 214.5l90.5 215v2h1c0 0.666992 0.333008 1.33398 1 2.00098v2c0.666992 0.666992 1 1.33398 1 2.00098c0.666992 1.33301 1 2.33301 1 3h1v2
c0 0.666992 0.333008 1.33398 1 2.00098c0 0.666992 0.333008 1 1 1l4 10v2c0.666992 0 1 0.333008 1 1v1c0.666992 0 1 0.333008 1 1v2h1v2h1v1c0 0.666992 0.333008 1 1 1v1c0 0.666992 0.333008 1.66699 1 3v1h1v2l1 1l2 6l1 1c0.666992 1.33301 1.33398 3 2.00098 5v1
c0 0.666992 0.333008 1 1 1v1c0.666992 0.666992 1 1.33398 1 2.00098v1l1 1v1c0 0.666992 0.333008 1 1 1v2c5.33301 12 8.66602 19.667 9.99902 23c0 0.666992 0.333008 1 1 1v1c7.33301 12.667 17.333 19 30 19c12 0 21.667 -6.33301 29 -19l40 -93l89.5 -214.5l90 -214
l43.5 -102.5c3.33301 -8.66699 7 -14.5 11 -17.5s9.33301 -4.5 16 -4.5h18c8.66699 0 16 -3 22 -9s9 -13.333 9 -22v-82c0 -8.66699 -3 -16 -9 -22s-13.333 -9 -22 -9h-3c-8.66699 0 -16 3 -22 9s-9 13.333 -9 22c0 9.33301 0.333008 17.666 1 24.999
c0.666992 5.33301 1 10.333 1 15c0 4 -0.333008 6.66699 -1 8h-609z" />
    <glyph glyph-name="Ie-cyrl" unicode="&#x415;" horiz-adv-x="498" 
d="M440 0l-360 0.000976562c-8.66699 0 -15.834 3 -21.501 9s-8.5 13.333 -8.5 22v668c0 8.66699 2.83301 16 8.5 22s12.834 9 21.501 9h341c8.66699 0 16 -3 22 -9s9 -13.667 9 -23s-3 -17 -9 -23s-13.333 -9 -22 -9h-294c-4.66699 0 -8 -0.833008 -10 -2.5
s-3 -4.5 -3 -8.5v-236c0 -4.66699 0.666992 -8 2 -10s4.33301 -3 9 -3h258c8.66699 0 16 -3 22 -9s9 -13.667 9 -23s-3 -17 -9 -23s-13.333 -9 -22 -9h-256c-4.66699 0 -8 -0.666992 -10 -2s-3 -4.33301 -3 -9v-254c0 -4.66699 0.666992 -7.83398 2 -9.50098
s4.33301 -2.5 9 -2.5h315c8.66699 0 16 -3 22 -9s9 -13.667 9 -23c0 -10 -3 -18 -9 -24s-13.333 -9 -22 -9z" />
    <glyph glyph-name="Zhe-cyrl" unicode="&#x416;" horiz-adv-x="863" 
d="M797 0c-11.333 0 -19.999 5.00293 -25.999 15.0029l-107 169l-76.5 119l-38.5 60c-3.33301 5.33301 -7 8 -11 8c-2.66699 0 -5.33398 -2 -8.00098 -6c-30.667 -38.667 -48.334 -61.667 -53.001 -69c-9.33301 -10.667 -14 -25.334 -14 -44.001v-221
c0 -8.66699 -3 -16 -9 -22s-13.667 -9 -23 -9s-17 3 -23 9s-9 13.333 -9 22v221c0 11.333 -1.16699 20.166 -3.5 26.499s-9.83301 18.166 -22.5 35.499c-29.333 38 -45.666 57 -48.999 57c-4 0 -7.66699 -2.66699 -11 -8l-38.5 -60l-75.5 -119l-108 -169
c-6 -10 -14.667 -15 -26 -15c-8 -0 -14.333 2.33301 -19 7c-9.33301 6 -14 14.667 -14 26c0 5.33301 1.66699 10.666 5 15.999l33 53l76.5 120l78 122.5l41 65c4.33301 7 6.5 13.833 6.5 20.5c0 1.33301 -0.333008 4.16602 -1 8.49902s-3 9 -7 14l-32.5 42l-59.5 77
l-58 75.5l-26 32c-4 5.33301 -6 11.333 -6 18c0 1.33301 0.166992 4.5 0.5 9.5s4.33301 10.167 12 15.5s14.167 8 19.5 8c1.33301 0 4.5 -0.166992 9.5 -0.5s10.167 -4.16602 15.5 -11.499l36 -46l82.5 -106l83 -107.5c24.333 -31.667 38.666 -50 42.999 -55
s7.83301 -7.5 10.5 -7.5c3.33301 0 5 4 5 12v291c0 8.66699 3 16 9 22s13.667 9 23 9s17 -3 23 -9s9 -13.333 9 -22v-291c0 -8 1.66699 -12 5 -12c2.66699 0 6.33398 2.33301 11.001 7l244 315c6 8 14.333 12 25 12c8 0 14.667 -2.66699 20 -8c8 -6 12 -14.333 12 -25
c0 -6.66699 -2 -12.667 -6 -18l-175 -225c-6 -6.66699 -9 -14 -9 -22c0 -7.33301 2.33301 -15 7 -23s44 -70.333 118 -187l110 -173c3.33301 -5.33301 5 -10.666 5 -15.999c0 -2 -0.5 -5.66699 -1.5 -11s-5.16699 -10.333 -12.5 -15c-4.66699 -4.66699 -11 -7 -19 -7z" />
    <glyph glyph-name="Ze-cyrl" unicode="&#x417;" horiz-adv-x="525" 
d="M245 -13c-82 0 -150.332 31.999 -204.999 95.999c-5.33301 8 -8 15.333 -8 22c0 18 10 27 30 27c8.66699 0 17.667 -4.66699 27 -14c19.333 -21.333 42.5 -38.5 69.5 -51.5s55.833 -19.5 86.5 -19.5c32 0 62.167 6.66699 90.5 20s51.5 32 69.5 56s27 51.667 27 83
c0 47.333 -16.167 84.833 -48.5 112.5s-72.166 41.5 -119.499 41.5h-126c-8.66699 0 -16 3 -22 9s-9 14 -9 24c0 9.33301 3 17 9 23s13.333 9 22 9h126c38 0 70.667 12.667 98 38s41 55.666 41 90.999c0 36 -16.833 66.5 -50.5 91.5s-69.5 37.5 -107.5 37.5
s-76.333 -14.667 -115 -44c-9.33301 -6.66699 -18 -10 -26 -10c-2.66699 0 -7.83398 1.5 -15.501 4.5s-11.5 11.167 -11.5 24.5c0 9.33301 4 18 12 26c47.333 38.667 99.333 58 156 58c36.667 0 71.667 -8.33301 105 -25s60.5 -39.167 81.5 -67.5s31.5 -60.166 31.5 -95.499
c0 -53.333 -24 -99.666 -72 -138.999l-1 -1c-8.66699 -6.66699 -13 -12 -13 -16c0 -3.33301 5 -8 15 -14c66.667 -42.667 100 -102 100 -178c0 -42.667 -11.667 -80.5 -35 -113.5s-53.833 -58.833 -91.5 -77.5s-77.834 -28 -120.501 -28z" />
    <glyph glyph-name="I-cyrl" unicode="&#x418;" horiz-adv-x="624" 
d="M542 0c-10 0 -17.999 3 -23.999 9s-9 13.333 -9 22v522c0 16.667 -2.33301 25 -7 25c-2.66699 0 -7.33398 -4.83301 -14.001 -14.5l-67.5 -97.5l-129.5 -187.5l-127 -184.5l-55 -81c-6.66699 -8.66699 -15 -13 -25 -13c-4.66699 0 -9.66699 1.16699 -15 3.5
s-9.83301 6.5 -13.5 12.5s-5.5 11.333 -5.5 16v667c0 8.66699 3 16 9 22s14 9 24 9c9.33301 0 17 -3 23 -9s9 -13.333 9 -22v-515c0 -17.333 2.66699 -26 8 -26c4 0 9.16699 4.33301 15.5 13l66 95l128 186l126.5 184l55 80c7.33301 9.33301 15.666 14 24.999 14
c4.66699 0 9.33398 -1 14.001 -3c14 -6 21 -15.667 21 -29v-667c0 -8.66699 -3 -16 -9 -22s-13.667 -9 -23 -9z" />
    <glyph glyph-name="Ishort-cyrl" unicode="&#x419;" horiz-adv-x="624" 
d="M325 799c-52 0 -93.333 17.667 -124 53c-8.66699 11.333 -13 21.666 -13 30.999c0 15.333 8.33301 24.333 25 27h5c9.33301 0 18.333 -5 27 -15c10 -14 21.167 -24.667 33.5 -32s27.833 -11 46.5 -11c18 0 33.167 3.66699 45.5 11s23.5 18 33.5 32
c8.66699 10 17.667 15 27 15c2 0 6.33301 -0.5 13 -1.5s12 -6.83301 16 -17.5l2 -8c0 -9.33301 -4.66699 -19.666 -14 -30.999c-30.667 -35.333 -71.667 -53 -123 -53zM542 0c9.33301 0 16.999 3 22.999 9s9 13.333 9 22v667c0 13.333 -7 23 -21 29
c-4.66699 2 -9.33398 3 -14.001 3c-9.33301 0 -17.666 -4.66699 -24.999 -14l-374 -544c-7.33301 -9.33301 -13 -14 -17 -14c-5.33301 0 -8 8.66699 -8 26v515c0 8.66699 -3 16 -9 22s-13.667 9 -23 9c-10 0 -18 -3 -24 -9s-9 -13.333 -9 -22v-667
c0 -4.66699 1.83301 -10 5.5 -16s8.16699 -10.167 13.5 -12.5s10.333 -3.5 15 -3.5c10 -0 18.333 4.33301 25 13l55 81l127 184.5l129.5 187.5l67.5 97.5c6.66699 9.66699 11.334 14.5 14.001 14.5c4.66699 0 7 -8.33301 7 -25v-522c0 -8.66699 3 -16 9 -22s14 -9 24 -9z
" />
    <glyph glyph-name="Ka-cyrl" unicode="&#x41a;" horiz-adv-x="497" 
d="M449 0c-2 0 -5.83203 0.5 -11.499 1.5s-10.834 5.16699 -15.501 12.5l-32 51l-74.5 117l-74.5 118l-38.5 60.5c-3.66699 5.66699 -7.83398 8.5 -12.501 8.5c-4 0 -8 -2.66699 -12 -8l-47 -61c-6 -7.33301 -10.167 -15.333 -12.5 -24s-3.5 -20.334 -3.5 -35.001v-210
c0 -8.66699 -3 -16 -9 -22s-13.667 -9 -23 -9c-10 0 -18 3 -24 9s-9 13.333 -9 22v668c0 8.66699 3 16 9 22s14 9 24 9c9.33301 0 17 -3 23 -9s9 -13.333 9 -22v-284c0 -13.333 2 -20 6 -20c2.66699 0 6.5 3.5 11.5 10.5s46.833 61.167 125.5 162.5l116 150
c6.66699 8 15.334 12 26.001 12c8 0 15.333 -3 22 -9s10 -13.333 10 -22c0 -7.33301 -2.33301 -14 -7 -20l-169 -217c-10 -13.333 -15 -24.333 -15 -33c0 -6.66699 2 -13.167 6 -19.5l41 -64l78.5 -123l77.5 -120.5l33 -53c3.33301 -5.33301 5 -10.666 5 -15.999
c0 -10.667 -5 -19.667 -15 -27c-8 -4 -14 -6 -18 -6z" />
    <glyph glyph-name="El-cyrl" unicode="&#x41b;" horiz-adv-x="645" 
d="M600 0c-13.333 0 -22.668 6.33301 -28.001 19l-227 554c-10 25.333 -17.667 38 -23 38s-13.333 -12.667 -24 -38l-227 -554c-5.33301 -12.667 -14.666 -19 -27.999 -19c-4.66699 0 -9.66699 1 -15 3c-12 6.66699 -18 16.334 -18 29.001c0 4 0.666992 8 2 12l280 667
c5.33301 12.667 15 19 29 19c13.333 0 23.333 -6.33301 30 -19l280 -667c2 -4 3 -8 3 -12c0 -12.667 -7 -22.334 -21 -29.001c-4.66699 -2 -9 -3 -13 -3z" />
    <glyph glyph-name="Em-cyrl" unicode="&#x41c;" horiz-adv-x="708" 
d="M626 0c-10 0 -17.998 3 -23.998 9s-9 13.333 -9 22v555c0 13.333 -1.66699 20.333 -5 21c-4 0 -8.33301 -3 -13 -9l-119 -148l-79 -96c-7.33301 -6 -15 -9 -23 -9c-8.66699 0 -16.334 3 -23.001 9c-1.33301 2 -9.5 12.167 -24.5 30.5l-55 67.5l-64.5 79.5l-53 64.5
c-5.33301 6 -9.33301 9 -12 9c-4.66699 0 -7 -6.33301 -7 -19v-555c0 -8.66699 -3 -16 -9 -22s-13.667 -9 -23 -9c-10 0 -18 3 -24 9s-9 13.333 -9 22v668c0 8.66699 3 16 9 22s13.333 9 22 9c6.66699 0 11.834 -0.833008 15.501 -2.5s6 -3.16699 7 -4.5s1.66699 -2 2 -2
s11.5 -13.167 33.5 -39.5l76 -91.5l77.5 -94c23 -28 36.833 -44.667 41.5 -50c8.66699 -11.333 15 -17 19 -17c5.33301 0 13.666 7.33301 24.999 22c9.33301 10.667 48.666 58 117.999 142l107 129c8 5.33301 16 8 24 8c8.66699 0 16 -3 22 -9s9 -13.333 9 -22v-668
c0 -8.66699 -3 -16 -9 -22s-13.667 -9 -23 -9z" />
    <glyph glyph-name="En-cyrl" unicode="&#x41d;" horiz-adv-x="621" 
d="M539 0c-10 0 -18.002 3 -24.002 9s-9 13.333 -9 22v301c0 6.66699 -3 10 -9 10h-373c-6 0 -9 -3.33301 -9 -10v-301c0 -8.66699 -3 -16 -9 -22s-13.667 -9 -23 -9c-10 0 -18 3 -24 9s-9 13.333 -9 22v668c0 8.66699 3 16 9 22s14 9 24 9c9.33301 0 17 -3 23 -9
s9 -13.333 9 -22v-283c0 -2.66699 0.833008 -5 2.5 -7s3.83398 -3 6.50098 -3h373c2.66699 0 4.83398 1 6.50098 3s2.5 4.33301 2.5 7v283c0 8.66699 3 16 9 22s14 9 24 9c9.33301 0 17 -3 23 -9s9 -13.333 9 -22v-668c0 -8.66699 -3 -16 -9 -22s-13.667 -9 -23 -9z" />
    <glyph glyph-name="O-cyrl" unicode="&#x41e;" 
d="M413 -13c-69.333 0 -132.666 17 -189.999 51s-103 79.667 -137 137s-51 120.666 -51 189.999c0 70 17 133.5 51 190.5s79.667 102.333 137 136s120.666 50.5 189.999 50.5c70 0 132.667 -16.833 188 -50.5s99.166 -79 131.499 -136s48.5 -120.5 48.5 -190.5
c0 -69.333 -16.167 -132.666 -48.5 -189.999s-76.166 -103 -131.499 -137s-118 -51 -188 -51zM413 47c58 0 109.833 14.499 155.5 43.499s81.834 67.667 108.501 116s40 101.166 40 158.499c0 58 -13.333 111.167 -40 159.5s-62.834 86.833 -108.501 115.5
s-97.5 43 -155.5 43c-86.667 0 -160.667 -31.167 -222 -93.5s-92 -137.166 -92 -224.499c0 -57.333 14.167 -110.166 42.5 -158.499s66.333 -87 114 -116s100.167 -43.5 157.5 -43.5z" />
    <glyph glyph-name="Pe-cyrl" unicode="&#x41f;" horiz-adv-x="602" 
d="M520 0c-10 0 -17.999 3 -23.999 9s-9 13.333 -9 22v624c0 4 -0.833008 6.83301 -2.5 8.5s-5.16699 2.5 -10.5 2.5h-347c-8 0 -12 -3 -12 -9v-626c0 -8.66699 -3 -16 -9 -22s-13.667 -9 -23 -9c-10 0 -18 3 -24 9s-9 13.333 -9 22v668c0 8.66699 3 16 9 22s13.333 9 22 9
h441c9.33301 0 16.666 -3.33301 21.999 -10s8 -13.667 8 -21v-668c0 -8.66699 -3 -16 -9 -22s-13.667 -9 -23 -9z" />
    <glyph glyph-name="Er-cyrl" unicode="&#x420;" horiz-adv-x="543" 
d="M83 0c-10 0 -18 3 -24 9s-9 13.333 -9 22v668c0 8.66699 3 16 9 22s13.333 9 22 9h183c46.667 0 89 -9 127 -27s68.333 -43.5 91 -76.5s34 -72.833 34 -119.5c0 -69.333 -24.667 -125 -74 -167s-108.666 -63 -177.999 -63h-137
c-4.66699 0 -7.83398 -0.666992 -9.50098 -2s-2.5 -4.33301 -2.5 -9v-235c0 -8.66699 -3 -16 -9 -22s-13.667 -9 -23 -9zM264 342c52 0 96.333 14.501 133 43.501s55 69.5 55 121.5s-18.333 91.5 -55 118.5s-81 40.5 -133 40.5h-137c-8 0 -12 -3 -12 -9
c0 -206.667 0.666992 -310.834 2 -312.501s4.33301 -2.5 9 -2.5h138z" />
    <glyph glyph-name="Es-cyrl" unicode="&#x421;" horiz-adv-x="692" 
d="M413 -13c-69.333 0 -132.664 17 -189.997 51s-103 79.667 -137 137s-51 120.666 -51 189.999c0 70 17 133.5 51 190.5s79.667 102.333 137 136s120.666 50.5 189.999 50.5c47.333 0 91.666 -8.33301 132.999 -25s77.666 -38.334 108.999 -65.001
c6.66699 -4.66699 10 -11.667 10 -21v-64c0 -6.66699 -1.66699 -10 -5 -10c-2.66699 0 -5.33398 1.66699 -8.00098 5c-27.333 36.667 -61.666 65.834 -102.999 87.501s-86.666 32.5 -135.999 32.5c-86.667 0 -160.667 -31.167 -222 -93.5s-92 -136.833 -92 -223.5
c0 -57.333 14.167 -110.166 42.5 -158.499s66.333 -87 114 -116s100.167 -43.5 157.5 -43.5c49.333 0 94.666 11 135.999 33s75.666 51.333 102.999 88c2.66699 3.33301 5.33398 5 8.00098 5c3.33301 0 5 -3 5 -9v-64c0 -10 -3.33301 -17.333 -10 -22
c-32 -28 -68.5 -50.167 -109.5 -66.5s-85.167 -24.5 -132.5 -24.5z" />
    <glyph glyph-name="Te-cyrl" unicode="&#x422;" horiz-adv-x="474" 
d="M237 0c-9.33301 0 -17 3 -23 9s-9 13.333 -9 22v622c0 5.33301 -0.666992 8.83301 -2 10.5s-4.33301 2.5 -9 2.5h-153c-8.66699 0 -16 3 -22 9s-9 13.667 -9 23s3 17 9 23s13.333 9 22 9h392c8.66699 0 16 -3 22 -9s9 -13.667 9 -23s-3 -17 -9 -23s-13.333 -9 -22 -9
h-151c-4.66699 0 -8 -0.833008 -10 -2.5s-3 -4.5 -3 -8.5v-624c0 -8.66699 -3 -16 -9 -22s-13.667 -9 -23 -9z" />
    <glyph glyph-name="U-cyrl" unicode="&#x423;" horiz-adv-x="608" 
d="M216 0c-4.66699 0 -9.66699 1.66895 -15 5.00195c-12 6 -18 15.333 -18 28c0 4.66699 1.33301 9.33398 4 14.001l29 55c16.667 33.333 29 57 37 71c5.33301 9.33301 8 17.666 8 24.999c0 8 -3.33301 18.333 -10 31c-11.333 23.333 -52.333 102.333 -123 237l-115 218
c-2 5.33301 -3 10.333 -3 15c0 12 5.33301 21 16 27c5.33301 4 11 6 17 6c12 0 21.333 -6 28 -18l100 -197c65.333 -128 102 -200.333 110 -217c10 -20.667 17.333 -31 22 -31s11 9 19 27l5 9l209 409c6 11.333 15.333 17 28 17c4.66699 0 9.66699 -1.33301 15 -4
c12 -6.66699 18 -16.334 18 -29.001c0 -4.66699 -1.33301 -9.33398 -4 -14.001l-349 -667c-6 -11.333 -15.333 -17 -28 -17z" />
    <glyph glyph-name="Ef-cyrl" unicode="&#x424;" 
d="M99 366c0 -77.333 24.667 -145.333 74 -204s112 -95 188 -109c10 0 15 4 15 12v603c0 8 -5.66699 11.667 -17 11c-75.333 -14.667 -137.5 -51 -186.5 -109s-73.5 -126 -73.5 -204zM441 731c58 -4 111.333 -20.001 160 -48.001
c55.333 -33.333 99.166 -77.5 131.499 -132.5s48.5 -116.5 48.5 -184.5c0 -66.667 -16.167 -127.834 -48.5 -183.501s-76.166 -99.834 -131.499 -132.501c-48.667 -28.667 -102 -45 -160 -49v-42c0 -10.667 -3 -19.667 -9 -27s-13.333 -11 -22 -11h-2
c-8.66699 0 -16 3.66699 -22 11s-9 16.333 -9 27v43c-55.333 4.66699 -106.666 20.667 -153.999 48c-57.333 32.667 -103 76.834 -137 132.501s-51 116.834 -51 183.501c0 68 17 129.5 51 184.5s79.667 99.167 137 132.5c47.333 26.667 98.666 42.334 153.999 47.001v41
c0 10.667 3 19.667 9 27s13.333 11 22 11h2c8.66699 0 16 -3.66699 22 -11s9 -16.333 9 -27v-40zM441 670.999l0.000976562 -611.001c2 -4.66699 6.66699 -7.33398 14 -8.00098c77.333 12.667 140.333 48.334 189 107.001s73 127.334 73 206.001
c0 79.333 -24.333 148.5 -73 207.5s-111.667 94.5 -189 106.5c-4.66699 0.666992 -8.33398 -0.333008 -11.001 -3c-1.33301 -2 -2.33301 -3.66699 -3 -5z" />
    <glyph glyph-name="Ha-cyrl" unicode="&#x425;" horiz-adv-x="563" 
d="M519 1c-1.33301 0 -4.66992 0.334961 -10.0029 1.00195s-10.333 4.66699 -15 12l-197 290c-7.33301 12 -12.666 18 -15.999 18s-8.66602 -5.66699 -15.999 -17l-3 -4l-193 -287c-6.66699 -8.66699 -15 -13 -25 -13c-4.66699 0 -11.334 2 -20.001 6
c-8.66699 6.66699 -13 15 -13 25c0 6 1.66699 12 5 18l172 247l43 61.5c7.33301 11 11 17.833 11 20.5c0 3.33301 -1.5 7.66602 -4.5 12.999s-19.5 29.333 -49.5 72l-65 91l-89 125c-3.33301 6 -5 12 -5 18c0 1.33301 0.333008 4.66602 1 9.99902s4.66699 10.333 12 15
c4.66699 4.66699 11.334 7 20.001 7c1.33301 0 4.5 -0.333008 9.5 -1s10.167 -4.66699 15.5 -12l82 -119l96 -143c6.66699 -12 12 -18 16 -18s9 6 15 18l5 7c12.667 17.333 43.334 62 92.001 134l82 121c6.66699 8.66699 15 13 25 13c8.66699 0 15.334 -2.33301 20.001 -7
c8.66699 -6 13 -14.333 13 -25c0 -6 -1.66699 -12 -5 -18l-190 -267c-11.333 -16 -17 -26.333 -17 -31c0 -6 3.66699 -13.667 11 -23l45 -64l71 -102l99 -143c3.33301 -6 5 -12 5 -18c0 -1.33301 -0.333008 -4.5 -1 -9.5s-4.66699 -10.167 -12 -15.5
c-8.66699 -4 -15.334 -6 -20.001 -6z" />
    <glyph glyph-name="Tse-cyrl" unicode="&#x426;" horiz-adv-x="659" 
d="M617 -79c-10 0 -18 3.00293 -24 9.00293s-9 13.333 -9 22c0 9.33301 0.333008 17.166 1 23.499s1 11.833 1 16.5c0 5.33301 -0.833008 8.5 -2.5 9.5s-4.16699 1.5 -7.5 1.5c-8.66699 -0.666992 -14.834 -1.33398 -18.501 -2.00098s-12.167 -1 -25.5 -1h-450
c-9.33301 0 -17 3 -23 9s-9 13.333 -9 22v668c0 8.66699 3 16 9 22s13.667 9 23 9s17 -3 23 -9s9 -13.333 9 -22v-623c0 -4.66699 1 -7.66699 3 -9s5.33301 -2 10 -2h347c4.66699 0 7.83398 0.666992 9.50098 2s2.5 4.33301 2.5 9v623c0 8.66699 3 16 9 22s14 9 24 9
c9.33301 0 17 -3 23 -9s9 -13.333 9 -22v-623c0 -6.66699 3 -10.334 9 -11.001h58c8.66699 0 16 -3 22 -9s9 -13.333 9 -22v-82c0 -8.66699 -3 -16 -9 -22s-13.667 -9 -23 -9z" />
    <glyph glyph-name="Che-cyrl" unicode="&#x427;" horiz-adv-x="557" 
d="M475 0c-9.33301 0 -17.001 2.99902 -23.001 8.99902s-9 13.333 -9 22v197c0 10 -4.66699 15 -14 15h-3c-65.333 -5.33301 -118 -8 -158 -8c-8 0 -24.333 0.5 -49 1.5s-52 6.83301 -82 17.5c-27.333 10 -48.5 23.833 -63.5 41.5s-25.167 35.167 -30.5 52.5
s-8 29.333 -8 36v315c0 8.66699 3 16 9 22s13.667 9 23 9s17 -3 23 -9s9 -13.333 9 -22v-298c0 -4 1.33301 -11.667 4 -23s8 -22.666 16 -33.999c20.667 -32.667 74.334 -49 161.001 -49c43.333 0 94 4.33301 152 13c3.33301 0.666992 6 1.5 8 2.5s3 3.5 3 7.5v381
c0 8.66699 3 16 9 22s13.667 9 23 9s17 -3 23 -9s9 -13.333 9 -22v-668c0 -8.66699 -3 -16 -9 -22s-13.667 -9 -23 -9z" />
    <glyph glyph-name="Sha-cyrl" unicode="&#x428;" horiz-adv-x="790" 
d="M710 0h-629.002c-8.66699 0 -16 3 -22 9s-9 13.333 -9 22v668c0 8.66699 3 16 9 22s14 9 24 9c9.33301 0 16.833 -3 22.5 -9s8.5 -13.333 8.5 -22v-623c0 -4.66699 1 -7.66699 3 -9s5.33301 -2 10 -2h223c4.66699 0 7.83398 0.666992 9.50098 2s2.5 4.33301 2.5 9v623
c0 8.66699 3 16 9 22s14 9 24 9c9.33301 0 17 -3 23 -9s9 -13.333 9 -22v-623c0 -4.66699 1 -7.66699 3 -9s5.33301 -2 10 -2h223c4.66699 0 7.83398 0.666992 9.50098 2s2.5 4.33301 2.5 9v623c0 8.66699 3 16 9 22s14 9 24 9c9.33301 0 17 -3 23 -9s9 -13.333 9 -22v-668
c0 -6.66699 -2.5 -13.5 -7.5 -20.5s-12.5 -10.5 -22.5 -10.5z" />
    <glyph glyph-name="Shcha-cyrl" unicode="&#x429;" horiz-adv-x="848" 
d="M806 -79c-10 0 -18.002 3.00098 -24.002 9.00098s-9 13.333 -9 22c0 9.33301 0.333008 17.166 1 23.499s1 11.833 1 16.5c0 5.33301 -0.666992 8.33301 -2 9s-3 1 -5 1l-22 -1l-5 -1h-658c-10 0 -18 3 -24 9s-9 13.333 -9 22v668c0 8.66699 3 16 9 22s14 9 24 9
c9.33301 0 17 -3 23 -9s9 -13.333 9 -22v-623c0 -4.66699 0.833008 -7.66699 2.5 -9s4.83398 -2 9.50098 -2h223c5.33301 0 8.83301 0.666992 10.5 2s2.5 4.33301 2.5 9v623c0 8.66699 3 16 9 22s14 9 24 9c9.33301 0 17 -3 23 -9s9 -13.333 9 -22v-623
c0 -4.66699 0.833008 -7.66699 2.5 -9s4.83398 -2 9.50098 -2h223c5.33301 0 8.83301 0.666992 10.5 2s2.5 4.33301 2.5 9v623c0 8.66699 2.83301 16 8.5 22s13.5 9 23.5 9c9.33301 0 17 -3 23 -9s9 -13.333 9 -22v-623c0 -6 3 -9.66699 9 -11h58c8.66699 0 16 -3 22 -9
s9 -13.333 9 -22v-82c0 -8.66699 -3 -16 -9 -22s-13.667 -9 -23 -9z" />
    <glyph glyph-name="Signhard-cyrl" unicode="&#x42a;" horiz-adv-x="592" 
d="M308 65c52 0 96.332 14.668 132.999 44.001s55 70 55 122c0 51.333 -18.333 91.166 -55 119.499s-81 42.5 -133 42.5h-138c-4.66699 0 -7.66699 -0.833008 -9 -2.5s-2 -5.16699 -2 -10.5v-304c0 -4.66699 0.833008 -7.66699 2.5 -9s4.83398 -2 9.50098 -2h137z
M93.999 602.001c0 18 0.666016 36.668 1.99902 56.001c0.666992 3.33301 0.166992 6 -1.5 8s-4.83398 2.66699 -9.50098 2c-9.33301 -1.33301 -22.666 -2 -39.999 -2c-8 0 -15 3 -21 9s-9 13.333 -9 22v2c0 8.66699 2.83301 16 8.5 22s12.834 9 21.501 9h83
c19.333 0 29.666 -10.333 30.999 -31v-231c0 -8 4 -11.667 12 -11h137c46.667 0 89 -9.16699 127 -27.5s68.333 -44.333 91 -78s34 -73.834 34 -120.501c0 -70 -24.667 -126 -74 -168s-108.666 -63 -177.999 -63h-183c-8.66699 0 -16 3 -22 9s-9 13.333 -9 22v571z" />
    <glyph glyph-name="Yeru-cyrl" unicode="&#x42b;" horiz-adv-x="694" 
d="M264 0l-183.002 0.00195312c-8.66699 0 -16 3 -22 9s-9 13.333 -9 22v668c0 8.66699 3 16 9 22s14 9 24 9c9.33301 0 17 -3 23 -9s9 -13.333 9 -22v-231c0 -4.66699 0.833008 -7.66699 2.5 -9s4.83398 -2 9.50098 -2h137c46.667 0 89 -9.33301 127 -28
s68.333 -44.834 91 -78.501s34 -73.834 34 -120.501c0 -69.333 -24.667 -125 -74 -167s-108.666 -63 -177.999 -63zM263.998 64.002c52 0 96.333 14.668 133 44.001s55 70 55 122s-18.333 92 -55 120s-81 42 -133 42h-138c-4.66699 0 -7.66699 -0.833008 -9 -2.5
s-2 -4.83398 -2 -9.50098v-305c0 -7.33301 3.33301 -11 10 -11h139zM611.998 0.00292969c-9.33301 0 -17 3 -23 9s-9 13.333 -9 22v668c0 8.66699 3 16 9 22s13.667 9 23 9s17 -3 23 -9s9 -13.333 9 -22v-668c0 -8.66699 -3 -16 -9 -22s-13.667 -9 -23 -9z" />
    <glyph glyph-name="Signsoft-cyrl" unicode="&#x42c;" horiz-adv-x="548" 
d="M264 0l-183.002 0.00195312c-8.66699 0 -16 3 -22 9s-9 13.333 -9 22v668c0 8.66699 3 16 9 22s14 9 24 9c9.33301 0 17 -3 23 -9s9 -13.333 9 -22v-231c0 -4.66699 0.833008 -7.66699 2.5 -9s4.83398 -2 9.50098 -2h137c46.667 0 89 -9.33301 127 -28
s68.333 -44.834 91 -78.501s34 -73.834 34 -120.501c0 -69.333 -24.667 -125 -74 -167s-108.666 -63 -177.999 -63zM263.998 64.002c52 0 96.333 14.668 133 44.001s55 70 55 122s-18.333 92 -55 120s-81 42 -133 42h-138c-4.66699 0 -7.66699 -0.833008 -9 -2.5
s-2 -4.83398 -2 -9.50098v-305c0 -7.33301 3.33301 -11 10 -11h139z" />
    <glyph glyph-name="E-cyrl" unicode="&#x42d;" horiz-adv-x="701" 
d="M288 -13c-46.667 0 -90.668 8.16699 -132.001 24.5s-78 38.5 -110 66.5c-7.33301 4.66699 -11 12 -11 22v64c0 5.33301 1.66699 8.33301 5 9c2.66699 0 5.33398 -1.66699 8.00098 -5c28 -36.667 62.667 -65.834 104 -87.501s86.666 -32.5 135.999 -32.5
c79.333 0 148 26.333 206 79s93 118.334 105 197.001c0 6 -1 10.5 -3 13.5s-7 4.5 -15 4.5h-347c-8.66699 0 -15.834 3 -21.501 9s-8.5 13.667 -8.5 23s2.83301 17 8.5 23s12.834 9 21.501 9h341c6.66699 0 11.834 1 15.501 3s5.5 7.33301 5.5 16
c-15.333 74 -51.333 135.5 -108 184.5s-123.334 73.5 -200.001 73.5c-49.333 0 -94.666 -10.833 -135.999 -32.5s-76 -50.834 -104 -87.501c-2 -2.66699 -4.33301 -4 -7 -4c-4 0 -6 2.66699 -6 8v64c0 10 3.66699 17.333 11 22c69.333 60.667 150 91 242 91
c70 0 133.5 -17 190.5 -51s102.5 -79.667 136.5 -137s51 -121 51 -191c0 -69.333 -17 -132.666 -51 -189.999s-79.5 -103 -136.5 -137s-120.5 -51 -190.5 -51z" />
    <glyph glyph-name="Yu-cyrl" unicode="&#x42e;" horiz-adv-x="1007" 
d="M603 -13c-96 0 -178.83 31.166 -248.497 93.499s-111.5 140.833 -125.5 235.5v1c-0.666992 7.33301 -2.33398 13.333 -5.00098 18s-8.66699 7 -18 7h-79c-8 0 -12 -3 -12 -9v-302c0 -8.66699 -3 -16 -9 -22s-13.667 -9 -23 -9c-10 0 -18 3 -24 9s-9 13.333 -9 22v668
c0 8.66699 3 16 9 22s14 9 24 9c9.33301 0 17 -3 23 -9s9 -13.333 9 -22v-282c0 -4.66699 0.833008 -7.66699 2.5 -9s12.167 -2 31.5 -2h57c10 0 16.167 1.66699 18.5 5s4.16602 9.33301 5.49902 18c16.667 90.667 59.667 165.5 129 224.5s150.666 88.5 243.999 88.5
c70 0 132.833 -16.833 188.5 -50.5s99.667 -79 132 -136s48.5 -120.5 48.5 -190.5c0 -69.333 -16.167 -132.666 -48.5 -189.999s-76.333 -103 -132 -137s-118.5 -51 -188.5 -51zM603.003 46.999c58 0 109.833 14.499 155.5 43.499s81.834 67.667 108.501 116
s40 101.166 40 158.499c0 58 -13.333 111.167 -40 159.5s-62.834 86.833 -108.501 115.5s-97.5 43 -155.5 43c-86.667 0 -160.667 -31.167 -222 -93.5s-92 -137.166 -92 -224.499c0 -57.333 14.167 -110.166 42.5 -158.499s66.333 -87 114 -116s100.167 -43.5 157.5 -43.5z
" />
    <glyph glyph-name="Ya-cyrl" unicode="&#x42f;" horiz-adv-x="554" 
d="M54 -6c-28.667 0 -43.001 10.6719 -43.001 32.0049c0 6 2.66699 13 8 21s17 12 35 12c6 0 9 5 9 15s-2.66699 29 -8 57c-7.33301 28 -11 52.667 -11 74c0 35.333 7.33301 64.666 22 87.999s35.667 42.666 63 57.999c6.66699 4 10 7.66699 10 11
c0 2.66699 -2.66699 6 -8 10c-56 38 -84 89 -84 153c0 44 11.667 81.167 35 111.5s54.333 53.5 93 69.5s80.334 24 125.001 24h173c8.66699 0 16 -3.33301 22 -10s9 -16.667 9 -30v-668c0 -4 -3 -8.66699 -9 -14s-13.667 -8 -23 -8c-10 0 -18 2.5 -24 7.5
s-9 9.83301 -9 14.5v286c0 4.66699 -0.833008 7.66699 -2.5 9s-4.83398 2 -9.50098 2h-156c-58 0 -99.333 -8.83301 -124 -26.5s-37 -46.834 -37 -87.501c0 -22 1.5 -44.833 4.5 -68.5s4.5 -45.834 4.5 -66.501c0 -32.667 -12.333 -55.334 -37 -68.001
c-9.33301 -5.33301 -18.666 -8 -27.999 -8zM427.999 384.005c4.66699 0 7.66699 0.832031 9 2.49902s2 4.83398 2 9.50098v259c0 7.33301 -3.33301 11 -10 11h-129c-32.667 0 -63.5 -5 -92.5 -15s-52.333 -25.5 -70 -46.5s-26.5 -47.5 -26.5 -79.5
c0 -31.333 8.66699 -57.5 26 -78.5s40.333 -36.667 69 -47s60 -15.5 94 -15.5h128z" />
    <glyph glyph-name="a-cyrl" unicode="&#x430;" horiz-adv-x="589" 
d="M287 -13c-70 0 -130 24.333 -180 73s-75 108 -75 178s24.667 129.667 74 179s109 74 179 74c34.667 0 67.834 -6.66699 99.501 -20s57.5 -32.333 77.5 -57c2 -2.66699 4.33301 -4 7 -4c1.33301 0 2.66602 0.5 3.99902 1.5s2 5.5 2 13.5v23c0 8.66699 3 16 9 22
s13.667 9 23 9s17 -3 23 -9s9 -13.333 9 -22v-418c0 -8.66699 -3 -16 -9 -22s-13.667 -9 -23 -9s-17 3 -23 9s-9 13.333 -9 22v30c0 6 -1.66699 9 -5 9c-2 0 -3.33301 -0.666992 -4 -2c-48 -53.333 -107.667 -80 -179 -80zM287 47c52 0 96.168 18.833 132.501 56.5
s54.5 82.5 54.5 134.5s-18.5 97.167 -55.5 135.5s-81.5 57.5 -133.5 57.5c-52.667 0 -97.334 -19.167 -134.001 -57.5s-55 -83.5 -55 -135.5s18.667 -96.833 56 -134.5s82.333 -56.5 135 -56.5z" />
    <glyph glyph-name="be-cyrl" unicode="&#x431;" horiz-adv-x="568" 
d="M284 -13c-46 0 -88.165 11.998 -126.498 35.998s-68.833 55.333 -91.5 94s-34 79.667 -34 123c0 64 6.33301 147.667 19 251c6 46.667 19.833 88.834 41.5 126.501s50 67.834 85 90.501s74.833 34 119.5 34c21.333 0 42.166 -2.66699 62.499 -8s39.166 -8 56.499 -8
c16.667 0 31 6.66699 43 20c7.33301 8.66699 12.666 13 15.999 13c4 0 6 -4.66699 6 -14v-48c0 -18 -18 -27 -54 -27c-17.333 0 -38 2.16699 -62 6.5s-46.667 6.5 -68 6.5c-50.667 0 -94.5 -22.833 -131.5 -68.5s-59.167 -110.167 -66.5 -193.5c0 -8 2 -12 6 -12
c2.66699 0 5.66699 2 9 6c19.333 25.333 44.333 44.333 75 57s62.334 19 95.001 19c70 0 129.5 -24.5 178.5 -73.5s73.5 -108.167 73.5 -177.5s-24.5 -128.833 -73.5 -178.5s-108.5 -74.5 -178.5 -74.5zM284.002 46.998c52 0 96.333 19.167 133 57.5s55 83.5 55 135.5
s-18.333 96.833 -55 134.5s-81 56.5 -133 56.5c-51.333 0 -95.333 -18.833 -132 -56.5s-55 -82.5 -55 -134.5s18.333 -97.167 55 -135.5s80.667 -57.5 132 -57.5z" />
    <glyph glyph-name="ve-cyrl" unicode="&#x432;" horiz-adv-x="568" 
d="M284 -13c-67.333 0 -120.001 15.335 -158.001 46.002c-66.667 53.333 -100 141.666 -100 264.999c0 7.33301 0.5 27.666 1.5 60.999s8.16699 81 21.5 143c15.333 73.333 48.333 131.666 99 174.999s110.667 65 180 65c46 0 81 -13.333 105 -40
c16.667 -18.667 25 -40 25 -64c0 -11.333 -3.5 -29.5 -10.5 -54.5s-39.5 -56.167 -97.5 -93.5c-2 -1.33301 -3 -2.16602 -3 -2.49902v-1.5c0 -0.666992 0.666992 -1.66699 2 -3c55.333 -15.333 100.333 -45 135 -89s52 -95.333 52 -154c0 -70 -24.667 -129.667 -74 -179
s-108.666 -74 -177.999 -74zM98.999 404.002c2 0 4.33301 1.33301 7 4c24 32 56.667 55.333 98 70l16 6c20 6.66699 43.833 16.167 71.5 28.5s52.667 28.333 75 48s33.5 43.167 33.5 70.5c0 14.667 -5.5 27.167 -16.5 37.5s-29.5 15.5 -55.5 15.5
c-52 0 -96.5 -15.167 -133.5 -45.5s-63.833 -71.833 -80.5 -124.5c-4 -13.333 -8 -29 -12 -47c-6 -27.333 -9 -45.333 -9 -54c0 -6 2 -9 6 -9zM283.999 47.002c52 0 96.333 19.167 133 57.5s55 83.5 55 135.5s-18.333 96.833 -55 134.5s-81 56.5 -133 56.5
s-96.333 -18.833 -133 -56.5s-55 -82.5 -55 -134.5s18.333 -97.167 55 -135.5s81 -57.5 133 -57.5z" />
    <glyph glyph-name="ghe-cyrl" unicode="&#x433;" horiz-adv-x="324" 
d="M298 415h-173.999c-2.66699 0 -4.83398 -1 -6.50098 -3s-2.5 -4.33301 -2.5 -7v-374c0 -8.66699 -3 -16 -9 -22s-13.333 -9 -22 -9h-3c-8.66699 0 -16 3 -22 9s-9 13.333 -9 22v417c0 8.66699 3 16 9 22s13.333 9 22 9h217v-64z" />
    <glyph glyph-name="de-cyrl" unicode="&#x434;" horiz-adv-x="592" 
d="M328 -176h-7c-22 0 -34.667 9.66699 -38 29v3c0 14 4.16699 23.833 12.5 29.5s17.166 8.5 26.499 8.5c38 2.66699 71.833 18.667 101.5 48s47.834 55.666 54.501 78.999c2 8 3 16.333 3 25c-1.33301 18 -3.33301 27 -6 27h-1c-24 -28.667 -53 -50.167 -87 -64.5
s-68 -21.5 -102 -21.5c-75.333 0 -136.333 22.5 -183 67.5s-70 106.167 -70 183.5c0 75.333 24.833 136.333 74.5 183s109.167 70 178.5 70c34 0 67 -6.66699 99 -20s60.667 -33.333 86 -60l3 -1h3c1.33301 0 2 3.33301 2 10v23c0 12 3 21 9 27s14 9 24 9
c8.66699 0 16 -3 22 -9s9 -13.333 9 -22v-379c0 -68 -24.333 -126.333 -73 -175c-40 -39.333 -87 -62.666 -141 -69.999zM285 47c52.667 0 98 18.833 136 56.5s57 82.5 57 134.5c0 52.667 -19 98 -57 136s-83.333 57 -136 57c-52 0 -96.333 -19.667 -133 -59
s-55 -84 -55 -134c0 -56.667 17.333 -102.667 52 -138s80 -53 136 -53z" />
    <glyph glyph-name="ie-cyrl" unicode="&#x435;" horiz-adv-x="557" 
d="M285 -13c-70 0 -129.667 24.668 -179 74.001s-74 109 -74 179s24.667 129.333 74 178s109 73 179 73s129.667 -24.333 179 -73c35.333 -35.333 56.333 -78 63 -128l1 -7c0 -6 -1.66699 -13 -5 -21s-12 -12 -26 -12h-383c-6.66699 0 -11 -1.16699 -13 -3.5
s-3 -5.83301 -3 -10.5v-5c4 -50 22.333 -91 55 -123c40.667 -40.667 84.667 -61 132 -61c25.333 0 49.833 5.5 73.5 16.5s41.5 23.833 53.5 38.5c16 20 29.333 30 40 30c6 0 12.667 -2 20 -6c9.33301 -6.66699 14 -15.334 14 -26.001c0 -8.66699 -3.33301 -17 -10 -25
c-54 -58.667 -117.667 -88 -191 -88zM439 314.001c10 0 15 2 15 6c0 3.33301 -2 7.33301 -6 12v1c-6.66699 13.333 -17 26.333 -31 39c-36.667 39.333 -80.667 59 -132 59c-52 0 -96.333 -19.667 -133 -59c-15.333 -16 -27 -30.667 -35 -44c-2 -4 -3 -7 -3 -9
c0 -1.33301 0.833008 -2.5 2.5 -3.5s109.167 -1.5 322.5 -1.5z" />
    <glyph glyph-name="zhe-cyrl" unicode="&#x436;" horiz-adv-x="675" 
d="M337 0c-9.33301 0 -16.9971 3 -22.9971 9s-9 13.333 -9 22v150c0 8.66699 -2.66699 14.334 -8 17.001c-8.66699 8.66699 -17.667 17 -27 25l-11.5 10c-2.33301 2 -4.83301 3 -7.5 3c-3.33301 0 -6.33301 -1.5 -9 -4.5s-11.667 -15.5 -27 -37.5l-53 -74l-77 -107
c-6.66699 -8 -15.334 -12 -26.001 -12c-8.66699 0 -15.834 2.5 -21.501 7.5s-9.16699 11.5 -10.5 19.5c0 9.33301 2 17 6 23l165 218c2 3.33301 3 6.33301 3 9c0 4 -1.33301 7.33301 -4 10s-10.667 10.167 -24 22.5l-46 42.5l-65 59c-6 6 -9 14.333 -9 25
c0 6.66699 2.83301 13.167 8.5 19.5s13.167 10.166 22.5 11.499c8 0 15.333 -2.66699 22 -8l27 -26l62 -60.5l62.5 -61.5c18.333 -18 29.166 -28.167 32.499 -30.5s6.33301 -3.5 9 -3.5c4 0 6 3.33301 6 10v160c0 8.66699 3 16 9 22s13.667 9 23 9s17 -3 23 -9
s9 -13.333 9 -22v-160c0 -6.66699 2 -10 6 -10c2.66699 0 5.5 1.16699 8.5 3.5s13.833 12.5 32.5 30.5l63 61.5l62 60.5l27 26c6.66699 5.33301 14.334 8 23.001 8c8 -0.666992 15.167 -4.16699 21.5 -10.5s9.5 -14.166 9.5 -23.499
c-0.666992 -8.66699 -4.33398 -16 -11.001 -22l-19 -18l-45.5 -41.5l-45.5 -42c-13.333 -12.333 -21.333 -19.833 -24 -22.5s-4 -6 -4 -10c0 -2.66699 1 -5.5 3 -8.5s11.333 -15.333 28 -37l56.5 -74.5l56.5 -74l24 -33c4 -6 6 -12.667 6 -20
c0 -8.66699 -4 -16.334 -12 -23.001c-4.66699 -4.66699 -11.334 -7 -20.001 -7h-10c-5.33301 0.666992 -10.666 4.66699 -15.999 12l-23 32l-105 149c-15.333 21.333 -24 33.5 -26 36.5s-5.33301 4.5 -10 4.5c-3.33301 0 -7.33301 -2.33301 -12 -7
c-12.667 -9.33301 -25 -19.333 -37 -30c-4.66699 -3.33301 -7 -9 -7 -17v-150c0 -8.66699 -3 -16 -9 -22s-13.667 -9 -23 -9z" />
    <glyph glyph-name="ze-cyrl" unicode="&#x437;" horiz-adv-x="396" 
d="M197 -12l-10 0.000976562c-78.667 0 -130.667 29 -156 87v1c-1.33301 2 -2.66602 5.66699 -3.99902 11c0 6.66699 0.666992 12.667 2 18s5.66602 10.166 12.999 14.499s14 6.5 20 6.5c2.66699 0 6.66699 -1.16699 12 -3.5s10.5 -7 15.5 -14s8.83301 -12.833 11.5 -17.5
c15.333 -29.333 43.333 -44 84 -44c24.667 0 47.667 11 69 33c17.333 18 26 36.667 26 56c0 20 -4.16699 36.333 -12.5 49s-25.166 24 -50.499 34c-15.333 5.33301 -29.666 8.83301 -42.999 10.5s-24.333 4.16699 -33 7.5s-13 9.66602 -13 18.999
c0 10.667 3.5 17.5 10.5 20.5s16.667 5.5 29 7.5s26.333 5.83301 42 11.5s26.834 15.5 33.501 29.5c5.33301 11.333 8 26 8 44c-4.66699 40.667 -30 61 -76 61c-26 0 -47 -10 -63 -30c-6 -8 -13.333 -14.667 -22 -20c-4 -2.66699 -8 -4 -12 -4
c-4.66699 0 -9.66699 1.66699 -15 5c-9.33301 7.33301 -14 15.666 -14 24.999c0 4.66699 1 9.33398 3 14.001c7.33301 14.667 20.666 28.334 39.999 41.001s38.666 21.334 57.999 26.001c12 2.66699 25 4 39 4c40 0 72.333 -14.667 97 -44c18 -21.333 28.333 -46 31 -74
c0 -24.667 -5.16699 -46.834 -15.5 -66.501s-25.5 -32.834 -45.5 -39.501c-3.33301 -1.33301 -5 -3.33301 -5 -6c0 -1.33301 1.66699 -2.66602 5 -3.99902c17.333 -5.33301 32.666 -13.333 45.999 -24c28 -24 42 -56 42 -96c0 -88 -49 -137.667 -147 -149z" />
    <glyph glyph-name="i-cyrl" unicode="&#x438;" horiz-adv-x="497" 
d="M244 -13c-30.667 0 -61.0029 6 -91.0029 18s-54.667 32.833 -74 62.5s-29 70.834 -29 123.501v256c0 9.33301 3.16699 17 9.5 23s14.5 9 24.5 9c9.33301 0 17 -3 23 -9s9 -13.667 9 -23v-252c0 -50.667 12.5 -87.667 37.5 -111s55.167 -35 90.5 -35
c90.667 0 136 41.333 136 124v274c0 9.33301 3.16699 17 9.5 23s14.166 9 23.499 9c10 0 18 -3 24 -9s9 -13.667 9 -23l1 -415c0 -8.66699 -3.16699 -16.167 -9.5 -22.5s-14.166 -9.5 -23.499 -9.5s-17.166 2.66699 -23.499 8s-9.5 12.666 -9.5 21.999v9
c0 2.66699 -1.33301 4 -4 4c-1.33301 0 -2.66602 -0.666992 -3.99902 -2c-15.333 -20 -35.666 -34 -60.999 -42s-48 -12 -68 -12z" />
    <glyph glyph-name="ishort-cyrl" unicode="&#x439;" horiz-adv-x="496" 
d="M249 509c-52 0 -93.333 17.667 -124 53c-8.66699 11.333 -13 21.666 -13 30.999c0 15.333 8.33301 24.333 25 27h5c9.33301 0 18.333 -5 27 -15c10 -14 21.167 -24.667 33.5 -32s27.833 -11 46.5 -11c18 0 33.167 3.66699 45.5 11s23.5 18 33.5 32
c8.66699 10 17.667 15 27 15c2 0 6.33301 -0.5 13 -1.5s12 -6.83301 16 -17.5l2 -8c0 -9.33301 -4.66699 -19.666 -14 -30.999c-30.667 -35.333 -71.667 -53 -123 -53zM244 -13c-30.667 0 -61.0029 6 -91.0029 18s-54.667 32.833 -74 62.5s-29 70.834 -29 123.501v256
c0 9.33301 3.16699 17 9.5 23s14.5 9 24.5 9c9.33301 0 17 -3 23 -9s9 -13.667 9 -23v-252c0 -50.667 12.5 -87.667 37.5 -111s55.167 -35 90.5 -35c90.667 0 136 41.333 136 124v274c0 9.33301 3.16699 17 9.5 23s14.166 9 23.499 9c10 0 18 -3 24 -9s9 -13.667 9 -23
l1 -415c0 -8.66699 -3.16699 -16.167 -9.5 -22.5s-14.166 -9.5 -23.499 -9.5s-17.166 2.66699 -23.499 8s-9.5 12.666 -9.5 21.999v9c0 2.66699 -1.33301 4 -4 4c-1.33301 0 -2.66602 -0.666992 -3.99902 -2c-15.333 -20 -35.666 -34 -60.999 -42s-48 -12 -68 -12z" />
    <glyph glyph-name="ka-cyrl" unicode="&#x43a;" horiz-adv-x="417" 
d="M83 0c-10 0 -18.001 3 -24.001 9s-9 13.333 -9 22v417c0 8.66699 3 16 9 22s14 9 24 9c9.33301 0 17 -3 23 -9s9 -13.333 9 -22v-162c0 -6.66699 1.66699 -10 5 -10c2 0 4.5 1.33301 7.5 4l34 31l67 61.5l66.5 61.5l28 26c6.66699 5.33301 14.334 8 23.001 8
c8 -0.666992 15.167 -4.16699 21.5 -10.5s9.5 -14.166 9.5 -23.499c-0.666992 -8.66699 -4.33398 -16 -11.001 -22l-66 -59c-40.667 -36 -64 -57 -70 -63c-2.66699 -2.66699 -4 -6 -4 -10c0 -2.66699 1.16699 -5.66699 3.5 -9s11.833 -16 28.5 -38l57 -75l57 -74l24 -33
c4 -6 6 -12.667 6 -20c0 -8.66699 -4 -16.334 -12 -23.001c-4.66699 -4.66699 -11.334 -7 -20.001 -7h-10c-5.33301 0.666992 -10.666 4.66699 -15.999 12l-76 112l-54.5 78.5c-15.667 23 -24.667 36 -27 39s-5.16602 4.5 -8.49902 4.5c-2.66699 0 -5.16699 -1 -7.5 -3
s-6.33301 -5.66699 -12 -11l-18 -17.5l-17.5 -17c-5.33301 -5 -8 -11.833 -8 -20.5v-147c0 -8.66699 -3 -16 -9 -22s-13.667 -9 -23 -9z" />
    <glyph glyph-name="el-cyrl" unicode="&#x43b;" horiz-adv-x="511" 
d="M454 0c-16.667 0 -28.0029 2.33398 -34.0029 7.00098s-11 11.667 -15 21l-135 315c-2 3.33301 -3.66699 7 -5 11s-2.66602 7.33301 -3.99902 10c-2.66699 8 -4.66699 12 -6 12c-0.666992 0 -1.66699 -3 -3 -9c-0.666992 -0.666992 -1.16699 -1.66699 -1.5 -3
s-1.66602 -4.83301 -3.99902 -10.5s-4.66602 -11.667 -6.99902 -18s-10.333 -25 -24 -56l-45.5 -104.5l-63 -147c-5.33301 -11.333 -10.833 -18.833 -16.5 -22.5s-14.834 -5.5 -27.501 -5.5h-3c-8.66699 0 -16 3 -22 9c-3.33301 3.33301 -5 7.66602 -5 12.999
c0 2.66699 0.666992 6 2 10l208 448c4.66699 8 9 12 13 12c4.66699 0 9.33398 -4 14.001 -12l31 -66l69 -151l70 -152c20.667 -44.667 32.167 -69.667 34.5 -75s3.5 -10.333 3.5 -15c0 -14 -8 -21 -24 -21z" />
    <glyph glyph-name="em-cyrl" unicode="&#x43c;" horiz-adv-x="522" 
d="M440 0c-10 0 -18 3 -24 9s-9 13.333 -9 22v332c0 4 -0.666992 6 -2 6l-56 -60c-46 -50.667 -70.833 -77.5 -74.5 -80.5s-8.16699 -4.5 -13.5 -4.5c-4.66699 0 -8.66699 1.33301 -12 4s-7.66602 6.66699 -12.999 12l-119 129c-1.33301 0 -2 -2 -2 -6v-332
c0 -8.66699 -3 -16 -9 -22s-13.667 -9 -23 -9c-10 0 -18 3 -24 9s-9 13.333 -9 22v417c0 8.66699 3 16 9 22s14 9 24 9c9.33301 0 17.333 -3.33301 24 -10c5.33301 -6.66699 16.666 -19.667 33.999 -39c41.333 -46 70.666 -80.333 87.999 -103c14 -21.333 24.667 -32 32 -32
s16 8 26 24c6.66699 8.66699 18.334 22.667 35.001 42c38.667 46 66 77.333 82 94l12 14c4.66699 6.66699 13 10 25 10c8.66699 0 16 -3 22 -9s9 -13.333 9 -22v-417c0 -8.66699 -3 -16 -9 -22s-13.667 -9 -23 -9z" />
    <glyph glyph-name="en-cyrl" unicode="&#x43d;" horiz-adv-x="516" 
d="M434 0c-10 0 -18 3 -24 9s-9 13.333 -9 22v176c0 2.66699 -0.833008 4.83398 -2.5 6.50098s-3.83398 2.5 -6.50098 2.5h-268c-2.66699 0 -4.83398 -0.833008 -6.50098 -2.5s-2.5 -3.83398 -2.5 -6.50098v-176c0 -8.66699 -3 -16 -9 -22s-13.667 -9 -23 -9
c-10 0 -18 3 -24 9s-9 13.333 -9 22v417c0 8.66699 3 16 9 22s14 9 24 9c9.33301 0 17 -3 23 -9s9 -13.333 9 -22v-158c0 -2.66699 0.833008 -4.83398 2.5 -6.50098s3.83398 -2.5 6.50098 -2.5h268c2.66699 0 4.83398 0.833008 6.50098 2.5s2.5 3.83398 2.5 6.50098v158
c0 8.66699 3 16 9 22s14 9 24 9c9.33301 0 17 -3 23 -9s9 -13.333 9 -22v-417c0 -8.66699 -3 -16 -9 -22s-13.667 -9 -23 -9z" />
    <glyph glyph-name="o-cyrl" unicode="&#x43e;" horiz-adv-x="569" 
d="M284 -13c-69.333 0 -128.666 24.667 -177.999 74s-74 108.666 -74 177.999s24.667 128.666 74 177.999s108.666 74 177.999 74c70 0 129.667 -24.667 179 -74s74 -108.666 74 -177.999s-24.667 -128.666 -74 -177.999s-109 -74 -179 -74zM284 47c52 0 96.333 19 133 57
s55 83 55 135s-18.333 97 -55 135s-81 57 -133 57c-51.333 0 -95.5 -19 -132.5 -57s-55.5 -83 -55.5 -135s18.5 -97 55.5 -135s81.167 -57 132.5 -57z" />
    <glyph glyph-name="pe-cyrl" unicode="&#x43f;" horiz-adv-x="506" 
d="M424 0c-9.33301 0 -16.999 3 -22.999 9s-9 13.333 -9 22v374c0 2.66699 -1 5 -3 7s-4.33301 3 -7 3h-258c-2.66699 0 -4.83398 -1 -6.50098 -3s-2.5 -4.33301 -2.5 -7v-374c0 -8.66699 -3 -16 -9 -22s-13.667 -9 -23 -9c-10 0 -18 3 -24 9s-9 13.333 -9 22v417
c0 8.66699 3 16 9 22s13.333 9 22 9h344c8.66699 0 16 -3 22 -9s9 -13.333 9 -22v-417c0 -8.66699 -3 -16 -9 -22s-13.667 -9 -23 -9z" />
    <glyph glyph-name="er-cyrl" unicode="&#x440;" horiz-adv-x="588" 
d="M81 -140c-9.33301 0 -16.833 2.83301 -22.5 8.5s-8.5 12.834 -8.5 21.501v558c0 8.66699 2.83301 16 8.5 22s13.167 9 22.5 9s17 -3 23 -9s9 -13.333 9 -22v-29c0 -6 2 -9 6 -9c2.66699 0 5 1.33301 7 4c20 24.667 45.833 43.667 77.5 57s64.834 20 99.501 20
c70 0 129.667 -24.667 179 -74s74 -109 74 -179s-25 -129.333 -75 -178s-110 -73 -180 -73c-35.333 0 -68.833 6.66699 -100.5 20s-57.834 33.333 -78.501 60c-0.666992 1.33301 -1.66699 2 -3 2h-1c-3.33301 0 -5 -2.66699 -5 -8v-171c0 -8.66699 -3 -15.834 -9 -21.501
s-13.667 -8.5 -23 -8.5zM301 47c52.667 0 97.667 18.833 135 56.5s56 82.5 56 134.5s-18.5 97.167 -55.5 135.5s-81.5 57.5 -133.5 57.5s-96.5 -19.167 -133.5 -57.5s-55.5 -83.5 -55.5 -135.5s18.167 -96.833 54.5 -134.5s80.5 -56.5 132.5 -56.5z" />
    <glyph glyph-name="es-cyrl" unicode="&#x441;" horiz-adv-x="482" 
d="M287 -13c-70 0 -129.501 24.833 -178.501 74.5s-73.5 109.167 -73.5 178.5s24.5 128.5 73.5 177.5s108.5 73.5 178.5 73.5c64 0 117.333 -18.667 160 -56c5.33301 -3.33301 8 -10 8 -20v-55c0 -9.33301 -2 -14 -6 -14c-3.33301 0 -8.66602 4 -15.999 12
c-18 22 -39.5 39.667 -64.5 53s-52.167 20 -81.5 20c-52 0 -96.333 -18.833 -133 -56.5s-55 -82.5 -55 -134.5s18.333 -97.167 55 -135.5s81 -57.5 133 -57.5c31.333 0 60 7.66699 86 23s48 35.333 66 60c4 5.33301 7.66699 8 11 8c0.666992 0 1.66699 -0.333008 3 -1
s2 -4 2 -10v-62c0 -10 -3 -17 -9 -21c-46 -38 -99 -57 -159 -57z" />
    <glyph glyph-name="te-cyrl" unicode="&#x442;" horiz-adv-x="413" 
d="M207 0c-10 0 -17.999 3 -23.999 9s-9 13.333 -9 22v374c0 2.66699 -0.833008 5 -2.5 7s-4.16699 3 -7.5 3h-106c-8.66699 0 -16 3 -22 9s-9 13.667 -9 23s3 17 9 23s13.333 9 22 9h297c8.66699 0 16 -3 22 -9s9 -13.667 9 -23s-3 -17 -9 -23s-13.333 -9 -22 -9h-107
c-2.66699 0 -4.83398 -1 -6.50098 -3s-2.5 -4.33301 -2.5 -7v-374c0 -8.66699 -3 -16 -9 -22s-13.667 -9 -23 -9z" />
    <glyph glyph-name="u-cyrl" unicode="&#x443;" horiz-adv-x="435" 
d="M133 -103l-26.0039 0.000976562c-10 0 -15 4 -15 12c0 3.33301 0.666992 6.66602 2 9.99902l76 159c4.66699 8.66699 7 16 7 22c0 5.33301 -2.33301 12.333 -7 21c-106.667 227.333 -160 342.333 -160 345c0 8.66699 5.33301 13 16 13h26c6.66699 0 13.334 -2 20.001 -6
s11.334 -9 14.001 -15l123 -293c3.33301 -7.33301 5.66602 -11 6.99902 -11s3.33301 3.33301 6 10c1.33301 2 43 100 125 294c2.66699 6 7.33398 11 14.001 15s13.334 6 20.001 6h26c10.667 0 16 -4.33301 16 -13c0 -2.66699 -85.333 -185 -256 -547
c-2.66699 -6 -7.16699 -11.167 -13.5 -15.5s-13.166 -6.5 -20.499 -6.5z" />
    <glyph glyph-name="ef-cyrl" unicode="&#x444;" horiz-adv-x="594" 
d="M298 -141c-10 0 -18.001 3 -24.001 9s-9 13.333 -9 22v89c0 4.66699 -2 7.33398 -6 8.00098c-66 8.66699 -120.333 36.5 -163 83.5s-64 103.167 -64 168.5s21.5 121.666 64.5 168.999s96.833 75 161.5 83c0.666992 0 2 0.5 4 1.5s3 3.16699 3 6.5v88c0 8.66699 3 16 9 22
s14 9 24 9c9.33301 0 17 -3 23 -9s9 -13.333 9 -22v-89c0 -2 1 -3.83301 3 -5.5s3.66699 -2.5 5 -2.5c40 -6.66699 77 -21.5 111 -44.5s61.333 -52.333 82 -88s31 -75.167 31 -118.5c0 -64.667 -21.167 -121.5 -63.5 -170.5s-96.166 -76.167 -161.499 -81.5
c-4.66699 0 -7 -3 -7 -9v-88c0 -8.66699 -3 -16 -9 -22s-13.667 -9 -23 -9zM258.999 47c4 0 6 1.33203 6 3.99902v373c0 4.66699 -1.66699 7 -5 7h-3c-46.667 -8 -85.167 -30.167 -115.5 -66.5s-45.5 -78.166 -45.5 -125.499s15.333 -89.333 46 -126s69.667 -58.667 117 -66
zM335.999 46.999c46.667 8 85.333 30.168 116 66.501s46 78.166 46 125.499c0 32 -7 62.667 -21 92s-33.167 53.333 -57.5 72s-51.833 28 -82.5 28c-4.66699 0 -7 -2 -7 -6v-373c0 -3.33301 2 -5 6 -5z" />
    <glyph glyph-name="ha-cyrl" unicode="&#x445;" horiz-adv-x="380" 
d="M354 0l-29 0.00195312c-6.66699 0 -13.5 2 -20.5 6s-12.167 9 -15.5 15l-87 175c-4.66699 13.333 -8.66699 20 -12 20c-2.66699 0 -5.66699 -5 -9 -15l-91 -180c-3.33301 -6 -8.5 -11 -15.5 -15s-13.833 -6 -20.5 -6h-30c-8.66699 0 -13 3.33301 -13 10
c0 3.33301 0.666992 7 2 11l132 219c6 9.33301 9 15.666 9 18.999l-1 4c-2 5.33301 -40.333 70.666 -115 195.999c-1.33301 3.33301 -2 6 -2 8c0 8 4.66699 12 14 12h30c6.66699 0 13.5 -2 20.5 -6s11.833 -8.66699 14.5 -14l63 -130c5.33301 -12.667 9.33301 -19 12 -19
c3.33301 0 7.33301 6.33301 12 19l61 130c3.33301 6 8.5 10.833 15.5 14.5s13.833 5.5 20.5 5.5h30c9.33301 0 14 -3.66699 14 -11c0 -2.66699 -1 -5.66699 -3 -9l-109 -186c-5.33301 -8.66699 -8 -14.334 -8 -17.001c0 -3.33301 2.66699 -8.66602 8 -15.999l135 -219
c2 -3.33301 3 -6.33301 3 -9c0 -8 -5 -12 -15 -12z" />
    <glyph glyph-name="tse-cyrl" unicode="&#x446;" horiz-adv-x="530" 
d="M471 -80c-10 0 -18 3.16797 -24 9.50098s-9 13.5 -9 21.5c0 9.33301 0.333008 17.5 1 24.5s1 12.833 1 17.5c0 5.33301 -0.666992 8.33301 -2 9s-3 1 -5 1h-3c-18 -2.66699 -46.833 -6 -86.5 -10s-74.167 -6 -103.5 -6c-30 0 -59.5 6 -88.5 18s-53.167 32.667 -72.5 62
s-29 69.666 -29 120.999v260c0 8.66699 3 16 9 22s14 9 24 9c9.33301 0 17 -3 23 -9s9 -13.333 9 -22v-256c0 -49.333 12.167 -85.833 36.5 -109.5s53.833 -35.5 88.5 -35.5c88.667 0 133 9 133 27v374c0 8.66699 3 16 9 22s14 9 24 9c9.33301 0 17 -3 23 -9
s9 -13.333 9 -22v-370c0 -4.66699 1.16699 -8 3.5 -10s4.16602 -3 5.49902 -3c6.66699 0 12.334 0.333008 17.001 1h8c8.66699 0 16 -3 22 -9s9 -13.333 9 -22v-84c0 -8.66699 -3 -16 -9 -22s-13.667 -9 -23 -9z" />
    <glyph glyph-name="che-cyrl" unicode="&#x447;" horiz-adv-x="451" 
d="M369 0c-10 0 -18 3 -24 9s-9 13.333 -9 22v167c0 6.66699 -1.33301 10 -4 10c-1.33301 0 -3 -1.33301 -5 -4c-24.667 -34.667 -63 -52 -115 -52c-30 0 -58.833 5.83301 -86.5 17.5s-50.167 32 -67.5 61s-26 69.167 -26 120.5v97c0 8.66699 3 16 9 22s14 9 24 9
c9.33301 0 17 -3 23 -9s9 -13.333 9 -22v-92c0 -50 10.5 -86.5 31.5 -109.5s48.833 -34.5 83.5 -34.5c45.333 0 77.333 10.5 96 31.5s28 52.167 28 93.5v111c0 8.66699 3 16 9 22s13.667 9 23 9s17 -3 23 -9s9 -13.333 9 -22l1 -417c0 -8.66699 -3 -16 -9 -22
s-13.667 -9 -23 -9z" />
    <glyph glyph-name="sha-cyrl" unicode="&#x448;" horiz-adv-x="738" 
d="M517 -13c-18.667 0 -40.999 4.66797 -66.999 14.001s-49 27.333 -69 54c-2.66699 4 -5 7.83301 -7 11.5s-3.66699 5.5 -5 5.5s-3 -2.33301 -5 -7l-6 -9c-28.667 -46 -71.334 -69 -128.001 -69c-40.667 0 -77.667 11.333 -111 34c-46 30.667 -69 81 -69 151v276
c0 8.66699 3 16 9 22s13.667 9 23 9s17 -3 23 -9s9 -13.333 9 -22v-272c0 -34 7.33301 -60.333 22 -79s31.167 -31.667 49.5 -39s33.166 -11 44.499 -11c37.333 0 64.333 11.667 81 35s25 53.666 25 90.999v275c0 8.66699 3 16 9 22s14 9 24 9c9.33301 0 17 -3 23 -9
s9 -13.333 9 -22v-275c1.33301 -32.667 9.16602 -58.167 23.499 -76.5s30.5 -31.166 48.5 -38.499s32.667 -11 44 -11c37.333 0 64.333 11.667 81 35s25 53.666 25 90.999v275c0 8.66699 3 16 9 22s14 9 24 9c9.33301 0 17 -3 23 -9s9 -13.333 9 -22v-417
c0 -8.66699 -3 -16 -9 -22s-13.667 -9 -23 -9c-8.66699 0 -16.334 2.16699 -23.001 6.5s-10 9.83301 -10 16.5v9c0 4.66699 -1.33301 7 -4 7c-1.33301 0 -2.66602 -0.666992 -3.99902 -2c-13.333 -19.333 -28.166 -32.5 -44.499 -39.5s-34.166 -10.5 -53.499 -10.5z" />
    <glyph glyph-name="shcha-cyrl" unicode="&#x449;" horiz-adv-x="799" 
d="M740 -80c-9.33301 0 -16.998 3.16797 -22.998 9.50098s-9 13.5 -9 21.5c0 9.33301 0.5 17.5 1.5 24.5s1.5 12.833 1.5 17.5c0 5.33301 -0.666992 8.33301 -2 9s-3 1 -5 1h-3c-10 -2 -25.667 -3 -47 -3c-7.33301 0 -14.166 2.16699 -20.499 6.5s-9.5 9.83301 -9.5 16.5v9
c0 4.66699 -1.33301 7 -4 7c-2 0 -3.33301 -0.666992 -4 -2c-12.667 -20 -27.5 -33.333 -44.5 -40s-35.167 -10 -54.5 -10c-18.667 0 -41 4.66699 -67 14s-48.667 27.333 -68 54c-7.33301 11.333 -11.666 17 -12.999 17s-3.33301 -2.66699 -6 -8l-5 -8
c-26.667 -46 -69.334 -69 -128.001 -69c-40 0 -76.667 11.333 -110 34c-46.667 30 -70 80.333 -70 151v276c0 8.66699 3 16 9 22s14 9 24 9c9.33301 0 17 -3 23 -9s9 -13.333 9 -22v-272c0 -34 7.16699 -60.333 21.5 -79s30.666 -31.667 48.999 -39s33.166 -11 44.499 -11
c37.333 0 64.5 11.667 81.5 35s25.5 53.666 25.5 90.999v275c0 8.66699 3 16 9 22s14 9 24 9c9.33301 0 17 -3 23 -9s9 -13.333 9 -22v-275c1.33301 -32.667 9 -58.167 23 -76.5s30 -31.166 48 -38.499s32.667 -11 44 -11c37.333 0 64.5 11.667 81.5 35
s25.5 53.666 25.5 90.999v275c0 8.66699 2.83301 16 8.5 22s13.5 9 23.5 9c9.33301 0 17 -3 23 -9s9 -13.333 9 -22l1 -371c0 -4.66699 1.16699 -8 3.5 -10s4.16602 -3 5.49902 -3c14 0 23.667 0.333008 29 1h14c9.33301 0 16.833 -3 22.5 -9s8.5 -13.333 8.5 -22v-83
c0 -8.66699 -3 -16 -9 -22s-13.667 -9 -23 -9z" />
    <glyph glyph-name="signhard-cyrl" unicode="&#x44a;" horiz-adv-x="556" 
d="M318 -13c-56 0 -105.004 12.001 -147.004 36.001c-3.33301 2 -6.33301 3 -9 3c-1.33301 0 -2.66602 -0.666992 -3.99902 -2s-3 -4 -5 -8s-4.66699 -7.66699 -8 -11s-8.66602 -5 -15.999 -5c-6.66699 0 -12 3 -16 9s-6 13.333 -6 22v334c0 16.667 1 31 3 43v3
c0 4 -2.33301 6 -7 6h-3c-10.667 -1.33301 -24.667 -2 -42 -2c-8 0 -15.167 3 -21.5 9s-9.5 13.667 -9.5 23s3 17 9 23s13.333 9 22 9h83c8.66699 0 15.834 -2.83301 21.501 -8.5s8.83398 -12.834 9.50098 -21.501v-60c0 -8.66699 4.66699 -13 14 -13h2
c32 6.66699 75.333 10 130 10c46.667 0 85.167 -9.16699 115.5 -27.5s53 -42 68 -71s22.5 -59.833 22.5 -92.5c0 -54 -19.5 -102.167 -58.5 -144.5s-88.167 -63.5 -147.5 -63.5zM317.996 47.001c43.333 0 77.667 14.832 103 44.499s38 63.834 38 102.501
c0 33.333 -11.167 63 -33.5 89s-58.166 40 -107.499 42h-18c-68.667 0 -108.334 -7.66699 -119.001 -23c-6 -8.66699 -9 -19.667 -9 -33v-179c0 -15.333 16.333 -26.333 49 -33s65 -10 97 -10z" />
    <glyph glyph-name="yeru-cyrl" unicode="&#x44b;" horiz-adv-x="615" 
d="M533 0c-10 0 -18 3 -24 9s-9 13.333 -9 22v417c0 8.66699 3 16 9 22s14 9 24 9c9.33301 0 17 -3 23 -9s9 -13.333 9 -22v-417c0 -8.66699 -3 -16 -9 -22s-13.667 -9 -23 -9zM255 -13c-52 0 -99.002 12.001 -141.002 36.001c-3.33301 2 -6.33301 3 -9 3
c-1.33301 0 -2.66602 -0.666992 -3.99902 -2s-3 -4 -5 -8s-4.66699 -7.66699 -8 -11s-8.66602 -5 -15.999 -5c-6.66699 0 -12 3 -16 9s-6 13.333 -6 22v417c0 8.66699 3 16 9 22s14 9 24 9c9.33301 0 17 -3 23 -9s9 -13.333 9 -22v-59c0 -8.66699 4.66699 -13 14 -13h2
c28 6.66699 69.333 10 124 10c46.667 0 84.667 -9.16699 114 -27.5s50.833 -42 64.5 -71s20.5 -59.833 20.5 -92.5c0 -36 -8.16699 -69.833 -24.5 -101.5s-39.5 -57.334 -69.5 -77.001s-65 -29.5 -105 -29.5zM255.998 47.001c42.667 0 75.6699 14.999 99.0029 44.999
s35 64.333 35 103c0 22.667 -4.33301 43.834 -13 63.501s-22.834 35.667 -42.501 48s-45.834 18.5 -78.501 18.5h-18c-68.667 0 -107.334 -7.66699 -116.001 -23c-4.66699 -8.66699 -7 -19.667 -7 -33v-179c0 -15.333 15.5 -26.333 46.5 -33s62.5 -10 94.5 -10z" />
    <glyph glyph-name="signsoft-cyrl" unicode="&#x44c;" horiz-adv-x="508" 
d="M268 -13c-19.333 0 -43.6709 2.5 -73.0039 7.5s-56.333 14.5 -81 28.5c-3.33301 2 -6.33301 3 -9 3c-1.33301 0 -2.66602 -0.666992 -3.99902 -2s-3 -4 -5 -8s-4.66699 -7.66699 -8 -11s-8.66602 -5 -15.999 -5c-6.66699 0 -12 3 -16 9s-6 13.333 -6 22v418
c0 8.66699 3 15.834 9 21.501s14 8.5 24 8.5c9.33301 0 17 -2.83301 23 -8.5s9 -12.834 9 -21.501v-60c0 -8.66699 4.33301 -13 13 -13h3c36.667 6.66699 82.334 10 137.001 10c46.667 0 85.334 -9.16699 116.001 -27.5s53.667 -42 69 -71s23 -59.833 23 -92.5
c0 -54 -19.667 -102.167 -59 -144.5s-89 -63.5 -149 -63.5zM268.995 47c42.667 0 77.167 15 103.5 45s39.5 64.333 39.5 103c0 33.333 -11.667 63 -35 89s-59.333 40 -108 42c-45.333 0 -79 -2 -101 -6s-36.333 -10 -43 -18s-10 -18.667 -10 -32v-180
c0 -10 8.33301 -18.333 25 -25c32 -12 75 -18 129 -18z" />
    <glyph glyph-name="e-cyrl" unicode="&#x44d;" horiz-adv-x="484" 
d="M199 -13c-60 0 -113.002 19 -159.002 57c-5.33301 4 -8 11 -8 21v62c0 6 0.666992 9.33301 2 10s2.33301 1 3 1c2.66699 0 6 -2.66699 10 -8c17.333 -24.667 39.333 -44.667 66 -60s55.334 -23 86.001 -23c47.333 0 88 15.5 122 46.5s55.333 69.5 64 115.5v5
c-1.33301 4.66699 -4.66602 7 -9.99902 7h-189c-8.66699 0 -16 3 -22 9s-9 14 -9 24c0 9.33301 3 17 9 23s13.333 9 22 9h182c6 0 9 2.66699 9 8c0 4 -0.333008 7.33301 -1 10c-13.333 37.333 -35.833 67.833 -67.5 91.5s-68.167 35.5 -109.5 35.5
c-54 0 -99.667 -23.667 -137 -71c-6.66699 -8 -12 -12 -16 -12s-6 4.33301 -6 13v56c0 10 2.66699 16.667 8 20c40.667 36 91 54 151 54c70 0 129.667 -24.5 179 -73.5s74 -108.167 74 -177.5s-24.667 -128.833 -74 -178.5s-109 -74.5 -179 -74.5z" />
    <glyph glyph-name="yu-cyrl" unicode="&#x44e;" horiz-adv-x="725" 
d="M441 -13c-64 0 -119.168 20.499 -165.501 61.499s-74.5 92.833 -84.5 155.5c-1.33301 6 -4.33301 9 -9 9h-56c-6.66699 0 -10.334 -3.66699 -11.001 -11v-171c0 -8.66699 -3 -16 -9 -22s-13.667 -9 -23 -9c-10 0 -18 3 -24 9s-9 13.333 -9 22v417
c0 9.33301 3 16.833 9 22.5s14 8.5 24 8.5c9.33301 0 17 -2.83301 23 -8.5s9 -13.167 9 -22.5v-157c0 -8.66699 4 -13 12 -13h55c6.66699 0 10.334 3 11.001 9c12.667 59.333 41.834 108.166 87.501 146.499s99.167 57.5 160.5 57.5c69.333 0 128.666 -24.667 177.999 -74
s74 -108.666 74 -177.999s-24.667 -128.666 -74 -177.999s-108.666 -74 -177.999 -74zM440.999 46.999c51.333 0 95.333 19 132 57s55 83 55 135s-18.333 97 -55 135s-80.667 57 -132 57c-52 0 -96.333 -19 -133 -57s-55 -83 -55 -135s18.333 -97 55 -135s81 -57 133 -57z
" />
    <glyph glyph-name="ya-cyrl" unicode="&#x44f;" horiz-adv-x="435" 
d="M352 0c-10 0 -18 2.99805 -24 8.99805s-9 13.333 -9 22v155c0 5.33301 -1 10 -3 14s-6.66699 6 -14 6h-28c-15.333 0 -28.166 -1 -38.499 -3s-18.5 -7 -24.5 -15l-121 -175c-6.66699 -8 -15.334 -12 -26.001 -12c-8.66699 0 -15.334 2.33301 -20.001 7
c-8 6.66699 -12 14.334 -12 23.001c0 7.33301 2 14 6 20l19 25l45.5 60l52.5 68c3.33301 3.33301 5 6.33301 5 9c0 3.33301 -3.33301 5.66602 -10 6.99902c-32.667 9.33301 -58.167 24 -76.5 44s-27.5 48.333 -27.5 85c0 60.667 28 101.334 84 122.001
c36.667 13.333 86.334 20 149.001 20c31.333 0 60 -5 86 -15c12.667 -5.33301 19 -14.666 19 -27.999v-417c0 -8.66699 -3 -16 -9 -22s-13.667 -9 -23 -9zM305 265.998c9.33301 0 13.999 5.33301 13.999 16v129c0 12 -7 18.333 -21 19c-18 1.33301 -38.333 2 -61 2
c-16 0 -31.333 -0.666992 -46 -2c-54 -6.66699 -81 -33.667 -81 -81c0 -26 6.83301 -44.833 20.5 -56.5s32.834 -19 57.501 -22s55.667 -4.5 93 -4.5h24z" />
    <glyph glyph-name="io-cyrl" unicode="&#x451;" horiz-adv-x="557" 
d="M201 560c-14.667 0 -27.167 4.66699 -37.5 14s-15.5 21.333 -15.5 36s5.16699 26.834 15.5 36.501s22.833 14.5 37.5 14.5s27 -4.83301 37 -14.5s15 -21.834 15 -36.501s-5 -26.667 -15 -36s-22.333 -14 -37 -14zM358 560c-14.667 0 -27 4.66699 -37 14
s-15 21.333 -15 36s5 26.834 15 36.501s22.333 14.5 37 14.5s27.167 -4.83301 37.5 -14.5s15.5 -21.834 15.5 -36.501s-5.16699 -26.667 -15.5 -36s-22.833 -14 -37.5 -14zM285 -13c-70 0 -129.667 24.668 -179 74.001s-74 109 -74 179s24.667 129.333 74 178s109 73 179 73
s129.667 -24.333 179 -73c35.333 -35.333 56.333 -78 63 -128l1 -7c0 -6 -1.66699 -13 -5 -21s-12 -12 -26 -12h-383c-6.66699 0 -11 -1.16699 -13 -3.5s-3 -5.83301 -3 -10.5v-5c4 -50 22.333 -91 55 -123c40.667 -40.667 84.667 -61 132 -61
c25.333 0 49.833 5.5 73.5 16.5s41.5 23.833 53.5 38.5c16 20 29.333 30 40 30c6 0 12.667 -2 20 -6c9.33301 -6.66699 14 -15.334 14 -26.001c0 -8.66699 -3.33301 -17 -10 -25c-54 -58.667 -117.667 -88 -191 -88zM439 314.001c10 0 15 2 15 6c0 3.33301 -2 7.33301 -6 12
v1c-6.66699 13.333 -17 26.333 -31 39c-36.667 39.333 -80.667 59 -132 59c-52 0 -96.333 -19.667 -133 -59c-15.333 -16 -27 -30.667 -35 -44c-2 -4 -3 -7 -3 -9c0 -1.33301 0.833008 -2.5 2.5 -3.5s109.167 -1.5 322.5 -1.5z" />
    <glyph glyph-name="ieukrainian-cyrl" unicode="&#x454;" horiz-adv-x="484" 
d="M285 -13c-70 0 -129.666 24.834 -178.999 74.501s-74 109.167 -74 178.5s24.667 128.5 74 177.5s109 73.5 179 73.5c60 0 110.333 -18 151 -54c5.33301 -3.33301 8 -10 8 -20v-56c0 -8.66699 -2 -13 -6 -13c-3.33301 0 -8.66602 4 -15.999 12
c-37.333 47.333 -83 71 -137 71c-40.667 0 -77 -11.833 -109 -35.5s-54.667 -54.167 -68 -91.5c-0.666992 -2.66699 -1 -6 -1 -10c0 -5.33301 3 -8 9 -8h182c8.66699 0 16 -3 22 -9s9 -13.667 9 -23c0 -10 -3 -18 -9 -24s-13.333 -9 -22 -9h-189
c-3.33301 0 -5.83301 -0.833008 -7.5 -2.5s-2.5 -4.83398 -2.5 -9.50098c8.66699 -46 30.167 -84.5 64.5 -115.5s74.833 -46.5 121.5 -46.5c31.333 0 60.166 7.66699 86.499 23s48.166 35.333 65.499 60c4 5.33301 7.33301 8 10 8c1.33301 0 2.5 -0.333008 3.5 -1
s1.5 -4 1.5 -10v-62c0 -10 -2.66699 -17 -8 -21c-46 -38 -99 -57 -159 -57z" />
    <glyph glyph-name="ibyelorussianukrainian-cyrl" unicode="&#x456;" horiz-adv-x="164" 
d="M82 0c-9.33301 0 -17 3 -23 9s-9 13.333 -9 22v417c0 8.66699 3 16 9 22s13.667 9 23 9s17 -3 23 -9s9 -13.333 9 -22v-417c0 -8.66699 -3 -16 -9 -22s-13.667 -9 -23 -9zM81 560c-14.667 0 -27.167 4.66699 -37.5 14s-15.5 21.333 -15.5 36s5.16699 26.834 15.5 36.501
s22.833 14.5 37.5 14.5s27 -4.83301 37 -14.5s15 -21.834 15 -36.501s-5 -26.667 -15 -36s-22.333 -14 -37 -14z" />
    <glyph glyph-name="yi-cyrl" unicode="&#x457;" horiz-adv-x="355" 
d="M99 560c-14.667 0 -27.167 4.66699 -37.5 14s-15.5 21.333 -15.5 36s5.16699 26.834 15.5 36.501s22.833 14.5 37.5 14.5s27 -4.83301 37 -14.5s15 -21.834 15 -36.501s-5 -26.667 -15 -36s-22.333 -14 -37 -14zM256 560c-14.667 0 -27 4.66699 -37 14s-15 21.333 -15 36
s5 26.834 15 36.501s22.333 14.5 37 14.5s27.167 -4.83301 37.5 -14.5s15.5 -21.834 15.5 -36.501s-5.16699 -26.667 -15.5 -36s-22.833 -14 -37.5 -14zM176 0c-9.33301 0 -17 3 -23 9s-9 13.333 -9 22v417c0 8.66699 3 16 9 22s13.667 9 23 9s17 -3 23 -9s9 -13.333 9 -22
v-417c0 -8.66699 -3 -16 -9 -22s-13.667 -9 -23 -9z" />
    <glyph glyph-name="ushort-cyrl" unicode="&#x45e;" horiz-adv-x="433" 
d="M215 509c-52 0 -93.333 17.667 -124 53c-8.66699 11.333 -13 21.666 -13 30.999c0 15.333 8.33301 24.333 25 27h5c9.33301 0 18.333 -5 27 -15c10 -14 21.167 -24.667 33.5 -32s27.833 -11 46.5 -11c18 0 33.167 3.66699 45.5 11s23.5 18 33.5 32
c8.66699 10 17.667 15 27 15c2 0 6.33301 -0.5 13 -1.5s12 -6.83301 16 -17.5l2 -8c0 -9.33301 -4.66699 -19.666 -14 -30.999c-30.667 -35.333 -71.667 -53 -123 -53zM132 -103c7.33301 0 14.1699 2.16602 20.5029 6.49902s10.833 9.5 13.5 15.5l254 539
c1.33301 3.33301 2 6 2 8c0 8.66699 -5.33301 13 -16 13h-26c-6.66699 0 -13.334 -2 -20.001 -6s-11.334 -9 -14.001 -15l-121 -286c-4.66699 -12 -8 -18 -10 -18c-1.33301 0 -3.66602 3.66699 -6.99902 11l-123 293c-2.66699 6 -7.33398 11 -14.001 15s-13.334 6 -20.001 6
h-26c-10.667 0 -16 -4.33301 -16 -13c0 -2.66699 53.333 -117.667 160 -345c4.66699 -8.66699 7 -15.667 7 -21c0 -6 -2.33301 -13.333 -7 -22l-76 -159c-1.33301 -3.33301 -2 -6.66602 -2 -9.99902c0 -8 5 -12 15 -12h26z" />
    <glyph glyph-name="Gheupturn-cyrl" unicode="&#x490;" horiz-adv-x="406" 
d="M324 730v49c0 8 3 15 9 21s13.333 9 22 9h2c8.66699 0 16 -2.83301 22 -8.5s9 -12.834 9 -21.501v-83c0 -19.333 -10.333 -29.666 -31 -30.999l-230 1c-8.66699 0 -12.667 -3.66699 -12 -11v-624c0 -8.66699 -3 -16 -9 -22s-13.333 -9 -22 -9h-3c-8.66699 0 -16 3 -22 9
s-9 13.333 -9 22v668c0 8.66699 3 16 9 22s13.333 9 22 9h243z" />
    <glyph glyph-name="gheupturn-cyrl" unicode="&#x491;" horiz-adv-x="338" 
d="M124 415c-2.66699 0 -4.83301 -1.00098 -6.5 -3.00098s-2.5 -4.33301 -2.5 -7v-374c0 -8.66699 -3 -16 -9 -22s-13.333 -9 -22 -9h-3c-8.66699 0 -16 3 -22 9s-9 13.333 -9 22v417c0 8.66699 3 16 9 22s13.333 9 22 9h159v49c0 8.66699 2.83301 16 8.5 22
s12.167 9 19.5 9h2c8 0 14.667 -2.83301 20 -8.5s8 -13.167 8 -22.5v-82c0 -19.333 -9.33301 -29.666 -28 -30.999h-146z" />
    <glyph glyph-name="endash" unicode="&#x2013;" horiz-adv-x="489" 
d="M418 207l-347 0.000976562c-8.66699 0 -16 3.16699 -22 9.5s-9 14.166 -9 23.499c0 8.66699 3 16 9 22s13.333 9 22 9h347c8.66699 0 16 -3 22 -9s9 -13.667 9 -23s-3 -17 -9 -23s-13.333 -9 -22 -9z" />
    <glyph glyph-name="emdash" unicode="&#x2014;" horiz-adv-x="689" 
d="M608 207l-527 0.000976562c-8.66699 0 -16 3.16699 -22 9.5s-9 14.166 -9 23.499c0 8.66699 3 16 9 22s13.333 9 22 9h527c8.66699 0 16 -3 22 -9s9 -13.667 9 -23s-3 -17 -9 -23s-13.333 -9 -22 -9z" />
    <glyph glyph-name="quoteleft" unicode="&#x2018;" horiz-adv-x="173" 
d="M93 624h-6c-20.667 0 -38.667 10.333 -54 31c-7.33301 10 -11 22 -11 36c0 15.333 4.33301 33.333 13 54c14.667 29.333 35.667 48 63 56h3c7.33301 0 11 -3 11 -9c0 -4 -1.66699 -7.66699 -5 -11c-21.333 -12.667 -32 -24.667 -32 -36c0 -3.33301 3 -5 9 -5l20 2
c12.667 0 23.5 -5.33301 32.5 -16s13.5 -23.667 13.5 -39c0 -20 -5.5 -35.5 -16.5 -46.5s-24.5 -16.5 -40.5 -16.5z" />
    <glyph glyph-name="quoteright" unicode="&#x2019;" horiz-adv-x="169" 
d="M71 565l-3 0.000976562c-7.33301 0 -11 2.66699 -11 8v4c0 2 2 4.33301 6 7c10 6 17.667 12.333 23 19s8 12 8 16c0 4.66699 -3 7 -9 7l-21 -2c-12 0 -22.667 5.16699 -32 15.5s-14 23.5 -14 39.5c0 19.333 5.83301 34.666 17.5 45.999s25.5 17 41.5 17h6
c21.333 0 39.333 -10.333 54 -31c6.66699 -10 10 -21.667 10 -35c0 -16 -4.33301 -34.667 -13 -56c-13.333 -28.667 -34.333 -47 -63 -55z" />
    <glyph glyph-name="quotesinglbase" unicode="&#x201a;" horiz-adv-x="223" 
d="M115 -13l-6 -0.000976562c-16 0 -29.833 5.83301 -41.5 17.5s-17.5 25.834 -17.5 42.501c0 20 5.83301 35.5 17.5 46.5s25.5 16.5 41.5 16.5h6c15.333 0 28.833 -5.5 40.5 -16.5s17.5 -24.833 17.5 -41.5c0 -20 -5.83301 -35.833 -17.5 -47.5s-25.167 -17.5 -40.5 -17.5z
" />
    <glyph glyph-name="quotedblleft" unicode="&#x201c;" horiz-adv-x="375" 
d="M295 624h-6c-20.667 0 -38.667 10.333 -54 31c-7.33301 10 -11 22 -11 36c0 15.333 4.33301 33.333 13 54c14.667 29.333 35.667 48 63 56h3c7.33301 0 11 -3 11 -9c0 -4 -1.66699 -7.66699 -5 -11c-21.333 -12.667 -32 -24.667 -32 -36c0 -3.33301 3 -5 9 -5l20 2
c12.667 0 23.5 -5.33301 32.5 -16s13.5 -23.667 13.5 -39c0 -20 -5.5 -35.5 -16.5 -46.5s-24.5 -16.5 -40.5 -16.5zM96 624h-6c-20.667 0 -38.667 10.333 -54 31c-7.33301 10 -11 21.667 -11 35c0 16 4.66699 34.333 14 55c13.333 29.333 34.333 48 63 56h3
c6.66699 0 10 -3 10 -9v-4c0 -2 -2 -4.33301 -6 -7c-20.667 -13.333 -31 -25.333 -31 -36c0 -3.33301 3 -5 9 -5l21 2c12.667 0 23.5 -5.33301 32.5 -16s13.5 -23.667 13.5 -39c0 -20 -5.83301 -35.5 -17.5 -46.5s-25.167 -16.5 -40.5 -16.5z" />
    <glyph glyph-name="quotedblright" unicode="&#x201d;" horiz-adv-x="374" 
d="M73 565h-3c-7.33301 0 -11 3 -11 9c0 4 1.66699 7.66699 5 11c10 6 17.833 12.167 23.5 18.5s8.5 11.833 8.5 16.5c0 4 -3 6 -9 6l-20 -2c-12.667 0 -23.5 5.33301 -32.5 16s-13.5 23.667 -13.5 39c0 20 5.5 35.5 16.5 46.5s24.5 16.5 40.5 16.5h6
c21.333 0 39.333 -10.333 54 -31c7.33301 -10 11 -22 11 -36c0 -15.333 -4.33301 -33.333 -13 -54c-14.667 -29.333 -35.667 -48 -63 -56zM271 565h-3c-6.66699 0 -10 3 -10 9v4c0 2 2 4.33301 6 7c9.33301 6 16.833 12.167 22.5 18.5s8.5 11.833 8.5 16.5c0 4 -3 6 -9 6
l-21 -2c-12.667 0 -23.5 5.33301 -32.5 16s-13.5 23.667 -13.5 39c0 20 5.83301 35.5 17.5 46.5s25.167 16.5 40.5 16.5h6c21.333 0 39.333 -10.333 54 -31c7.33301 -10 11 -21.667 11 -35c0 -16 -4.66699 -34.333 -14 -55c-13.333 -29.333 -34.333 -48 -63 -56z" />
    <glyph glyph-name="quotedblbase" unicode="&#x201e;" horiz-adv-x="422" 
d="M103 -71l-3.99902 -0.000976562c-6.66699 0 -10 2.66699 -10 8c0 4.66699 1.66699 8 5 10c10 6.66699 17.833 13.334 23.5 20.001s8.5 12.334 8.5 17.001c0 4 -3 6 -9 6l-21 -2c-12 0 -22.667 5.16699 -32 15.5s-14 23.5 -14 39.5c0 19.333 5.66699 34.666 17 45.999
s24.666 17 39.999 17h6c21.333 0 39.333 -10.333 54 -31c7.33301 -10 11 -22.333 11 -37c0 -15.333 -4 -33.333 -12 -54c-15.333 -28.667 -36.333 -47 -63 -55zM295.001 -71.001h-3c-7.33301 0 -11 2.66699 -11 8v4c0 2 2 4 6 6c10 6.66699 17.667 13.334 23 20.001
s8 12 8 16c0 4.66699 -3 7 -9 7l-21 -2c-12 0 -22.667 5.16699 -32 15.5s-14 23.5 -14 39.5c0 19.333 5.83301 34.666 17.5 45.999s25.5 17 41.5 17h6c21.333 0 39.333 -10.333 54 -31c6.66699 -10 10 -21.667 10 -35c0 -16 -4.33301 -34.667 -13 -56
c-13.333 -28.667 -34.333 -47 -63 -55z" />
    <glyph glyph-name="bullet" unicode="&#x2022;" horiz-adv-x="283" 
d="M146 274h-8c-24 0 -44.667 8.66699 -62 26s-26 38 -26 62v7c0 24 8.66699 44.667 26 62s38 26 62 26h8c24 0 44.5 -8.66699 61.5 -26s25.5 -38 25.5 -62v-7c0 -24 -8.5 -44.667 -25.5 -62s-37.5 -26 -61.5 -26z" />
    <glyph glyph-name="ellipsis" unicode="&#x2026;" horiz-adv-x="593" 
d="M114 -13c-19.333 0 -34.833 5.83203 -46.5 17.499s-17.5 25.834 -17.5 42.501c0 20 5.83301 35.5 17.5 46.5s25.834 16.5 42.501 16.5c19.333 0 34.833 -5.5 46.5 -16.5s17.5 -24.833 17.5 -41.5c0 -20 -5.83301 -35.833 -17.5 -47.5s-25.834 -17.5 -42.501 -17.5z
M300 -13.001l-6 -0.000976562c-16.667 0 -30.5 5.83301 -41.5 17.5s-16.5 25.834 -16.5 42.501c0 20 5.5 35.5 16.5 46.5s24.833 16.5 41.5 16.5h6c16 0 29.833 -5.5 41.5 -16.5s17.5 -24.833 17.5 -41.5c0 -20 -5.83301 -35.833 -17.5 -47.5s-25.5 -17.5 -41.5 -17.5z
M485 -13.002c-20 0 -35.834 5.83203 -47.501 17.499s-17.5 25.834 -17.5 42.501c0 20 5.83301 35.5 17.5 46.5s25.834 16.5 42.501 16.5c20 0 35.5 -5.5 46.5 -16.5s16.5 -24.833 16.5 -41.5c0 -20 -5.5 -35.833 -16.5 -47.5s-24.833 -17.5 -41.5 -17.5z" />
    <glyph glyph-name="perthousand" unicode="&#x2030;" horiz-adv-x="833" 
d="M236 0c-6 0 -12 2.00098 -18 6.00098c-10 5.33301 -15 14.333 -15 27c0 4.66699 1.33301 9.66699 4 15l385 668c6.66699 10 15.667 15 27 15c6 0 12 -1.66699 18 -5c10.667 -6.66699 16 -15.334 16 -26.001c0 -6 -1.66699 -11.667 -5 -17l-385 -667
c-6.66699 -10.667 -15.667 -16 -27 -16zM285 469.001c-38 0 -70.333 13.333 -97 40s-40 59 -40 97s13.333 70.167 40 96.5s59 39.5 97 39.5s70.333 -13.167 97 -39.5s40 -58.5 40 -96.5s-13.333 -70.333 -40 -97s-59 -40 -97 -40zM285 533.001c19.333 0 36 7.33301 50 22
s21 31.667 21 51s-7 36.333 -21 51s-30.667 22 -50 22s-36 -7.33301 -50 -22s-21 -31.667 -21 -51s7 -36.333 21 -51s30.667 -22 50 -22zM559 -12.999c-37.333 0 -69.5 13.5 -96.5 40.5s-40.5 59.5 -40.5 97.5c0 37.333 13.5 69.5 40.5 96.5s59.167 40.5 96.5 40.5
c38 0 70.333 -13.5 97 -40.5s40 -59.167 40 -96.5c0 -38 -13.333 -70.5 -40 -97.5s-59 -40.5 -97 -40.5zM559 52.001c20 0 36.833 7.16699 50.5 21.5s20.5 31.5 20.5 51.5c0 19.333 -6.83301 36.166 -20.5 50.499s-30.5 21.5 -50.5 21.5c-19.333 0 -36 -7.16699 -50 -21.5
s-21 -31.166 -21 -50.499c0 -20 7 -37.167 21 -51.5s30.667 -21.5 50 -21.5z" />
    <glyph glyph-name="guilsinglleft" unicode="&#x2039;" horiz-adv-x="370" 
d="M286 -13c-8 0 -15.332 3.00195 -21.999 9.00195l-31 32l-72.5 72l-74.5 74.5l-41 41.5c-6.66699 8 -10 16 -10 24c0 9.33301 2.66699 16.666 8 21.999l222 220c6.66699 6 14 9 22 9c7.33301 0 14.5 -3.5 21.5 -10.5s10.5 -14.167 10.5 -21.5c0 -8 -3 -15.333 -9 -22
l-195 -188c-4 -4 -6 -6.66699 -6 -8c0 -0.666992 0.333008 -1.83398 1 -3.50098s2.5 -4 5.5 -7l34 -33l66.5 -64.5l66 -63l28 -28c6 -6.66699 9 -14 9 -22s-3.33301 -15.5 -10 -22.5s-14.334 -10.5 -23.001 -10.5z" />
    <glyph glyph-name="guilsinglright" unicode="&#x203a;" horiz-adv-x="833" 
d="M387 -13c-8 0 -15.501 3.33008 -22.501 9.99707s-10.5 14.334 -10.5 23.001c0 8 3 15.333 9 22l29 28l65 63l66.5 64.5l34 33c3 3 4.83301 5.33301 5.5 7s1 2.83398 1 3.50098c0 1.33301 -2 4 -6 8l-195 188c-6 6.66699 -9 14 -9 22c0 7.33301 3.33301 14.5 10 21.5
s14.334 10.5 23.001 10.5c7.33301 0 14.333 -3 21 -9l222 -220c5.33301 -5.33301 8 -12.666 8 -21.999c0 -8 -3.33301 -16 -10 -24l-41 -41.5l-74.5 -74.5l-72.5 -72l-31 -32c-6.66699 -6 -14 -9 -22 -9z" />
    <glyph glyph-name="numerosign" unicode="&#x2116;" horiz-adv-x="946" 
d="M775 129c-38 0 -70.333 13.5 -97 40.5s-40 59.167 -40 96.5c0 38 13.333 70.333 40 97s59 40 97 40c37.333 0 69.333 -13.333 96 -40s40 -59 40 -97c0 -37.333 -13.333 -69.5 -40 -96.5s-58.667 -40.5 -96 -40.5zM775 194c19.333 0 35.833 7.16699 49.5 21.5
s20.5 31.166 20.5 50.499s-6.83301 36.166 -20.5 50.499s-30.167 21.5 -49.5 21.5c-20 0 -36.833 -7.16699 -50.5 -21.5s-20.5 -31.166 -20.5 -50.499s6.83301 -36.166 20.5 -50.499s30.5 -21.5 50.5 -21.5zM539 -1c-9.33301 0 -17.666 4.66602 -24.999 13.999l-375 545
c-6.66699 9.33301 -12.334 14 -17.001 14c-5.33301 0 -8 -9 -8 -27v-514c0 -8.66699 -2.83301 -16 -8.5 -22s-13.167 -9 -22.5 -9c-10 0 -18 3 -24 9s-9 13.333 -9 22v666c0 2.66699 0.333008 4.33398 1 5.00098v1c0.666992 5.33301 2.66699 10 6 14
c6.66699 8.66699 16 13 28 13c10 0 18 -4.66699 24 -14l182 -265l129 -188l67 -97.5c6.66699 -9.66699 11.667 -14.5 15 -14.5c4.66699 0 7 8.33301 7 25v523c0 8.66699 3 16 9 22s14 9 24 9c9.33301 0 16.833 -3 22.5 -9s8.5 -13.333 8.5 -22v-668
c0 -6.66699 -1.83301 -12.667 -5.5 -18s-8.16699 -9 -13.5 -11s-10.333 -3 -15 -3zM871 -0.000976562h-193c-8.66699 0 -16 3 -22 9s-9 14 -9 24c0 9.33301 3 17 9 23s13.333 9 22 9h193c8.66699 0 16 -3 22 -9s9 -13.667 9 -23c0 -10 -3 -18 -9 -24s-13.333 -9 -22 -9z" />
    <glyph glyph-name="trademark" unicode="&#x2122;" horiz-adv-x="1000" 
d="M960 739v-421h-73v347l-157 -347h-48l-152 347v-347h-73v421h119l130 -292l138 292h116zM376 739v-67h-149v-354h-73v354h-148v67h370z" />
    <glyph glyph-name="ampersand.001" horiz-adv-x="602" 
d="M300 -13h-3.00098c-42.667 0 -82.834 9.33301 -120.501 28s-68.167 44.5 -91.5 77.5s-35 70.833 -35 113.5c0 39.333 9.33301 74 28 104s42.667 54.667 72 74c10.667 6 16 11 16 15c0 3.33301 -4 7.66602 -12 12.999l-2 2c-48.667 39.333 -73 86 -73 140
c0 34.667 10.667 66.167 32 94.5s48.666 51 81.999 68s68 25.5 104 25.5c58 0 110 -19.667 156 -59c8.66699 -8 13 -16.667 13 -26c0 -1.33301 -0.5 -5 -1.5 -11s-6.5 -11 -16.5 -15c-2.66699 -1.33301 -6 -2 -10 -2c-7.33301 0 -16 3.33301 -26 10
c-37.333 29.333 -75.666 44 -114.999 44c-38 0 -73.667 -12.667 -107 -38s-50 -55.666 -50 -90.999c0 -30.667 9.66699 -57 29 -79s44 -37.667 74 -47c11.333 -4 19.333 -11 24 -21c2.66699 -5.33301 4 -10.666 4 -15.999c0 -4.66699 -1.66699 -10.667 -5 -18
s-13 -13 -29 -17c-37.333 -8 -67.666 -24.833 -90.999 -50.5s-35 -58.834 -35 -99.501c0 -31.333 8.83301 -59 26.5 -83s40.834 -42.667 69.501 -56s58.667 -20 90 -20c60 0 106.833 20.167 140.5 60.5s50.5 88.166 50.5 143.499v73c0 18.667 -0.666992 29.334 -2 32.001
s-6.33301 4 -15 4h-102c-8.66699 0 -16 3 -22 9s-9 13.667 -9 23c0 10 3 17.833 9 23.5s13.333 8.5 22 8.5h152c8.66699 0 16 -2.83301 22 -8.5s9 -13.167 9 -22.5v-362c0 -8.66699 -3 -16 -9 -22s-13.667 -9 -23 -9c-10 0 -17.833 3 -23.5 9s-8.5 13.333 -8.5 22v46
c0 4.66699 -0.666992 7 -2 7c-2.66699 0 -5.66699 -2 -9 -6c-44.667 -60.667 -103.667 -91 -177 -91z" />
    </font>
</defs>
</svg>
